<svg id="svg" version="1.1" xmlns="http://www.w3.org/2000/svg" xmlns:xlink="http://www.w3.org/1999/xlink" height="113.385"
   width="147.337" viewBox="0, 0, 400,400"><g id="svgg"><path id="path0" d="M41.600 0.376 C 41.600 1.005,42.391 1.289,43.423 1.030 C 44.877 0.665,44.604 0.000,43.000 0.000 C 42.230 0.000,41.600 0.169,41.600 0.376 M355.600 0.392 C 355.600 0.895,357.413 1.358,358.199 1.056 C 359.360 0.610,358.783 0.000,357.200 0.000 C 356.320 0.000,355.600 0.177,355.600 0.392 M37.329 1.478 C 36.850 1.572,36.243 1.907,35.980 2.224 C 35.717 2.541,35.209 2.801,34.851 2.802 C 33.644 2.806,31.673 4.689,32.527 5.022 C 32.927 5.178,33.458 5.102,33.707 4.853 C 33.956 4.604,34.407 4.400,34.709 4.400 C 35.010 4.400,35.540 4.117,35.886 3.771 C 36.280 3.377,36.866 3.230,37.458 3.379 C 38.214 3.569,38.400 3.456,38.400 2.808 C 38.400 2.177,38.663 2.000,39.600 2.000 C 40.260 2.000,40.800 1.820,40.800 1.600 C 40.800 1.207,39.041 1.145,37.329 1.478 M359.400 1.600 C 359.536 1.820,360.177 2.000,360.824 2.000 C 361.471 2.000,362.000 1.820,362.000 1.600 C 362.000 1.380,361.359 1.200,360.576 1.200 C 359.729 1.200,359.253 1.362,359.400 1.600 M362.300 2.032 C 361.538 2.476,361.340 3.600,362.024 3.600 C 362.257 3.600,362.340 3.427,362.210 3.216 C 362.069 2.988,362.467 3.004,363.186 3.255 C 363.854 3.488,364.400 3.841,364.400 4.039 C 364.400 4.238,364.850 4.400,365.400 4.400 C 365.950 4.400,366.400 4.580,366.400 4.800 C 366.400 5.295,367.472 5.330,367.772 4.846 C 367.999 4.477,364.094 1.591,363.397 1.612 C 363.178 1.619,362.685 1.808,362.300 2.032 M29.600 5.481 C 29.270 5.600,28.158 6.396,27.128 7.249 C 26.099 8.102,24.995 8.800,24.676 8.800 C 23.978 8.800,21.550 11.196,21.815 11.624 C 22.117 12.113,23.600 11.556,23.600 10.953 C 23.600 10.480,24.007 10.328,25.026 10.421 C 25.151 10.432,25.614 9.982,26.055 9.421 C 26.497 8.859,27.205 8.400,27.629 8.400 C 28.053 8.400,28.400 8.130,28.400 7.800 C 28.400 7.470,28.670 7.200,29.000 7.200 C 29.330 7.200,29.600 7.038,29.600 6.839 C 29.600 6.641,30.140 6.290,30.800 6.060 C 31.460 5.830,32.000 5.542,32.000 5.421 C 32.000 5.147,30.411 5.187,29.600 5.481 M368.200 5.600 C 368.336 5.820,368.694 6.000,368.995 6.000 C 369.296 6.000,369.781 6.235,370.071 6.522 C 370.362 6.810,370.870 7.169,371.200 7.320 C 372.148 7.755,373.377 8.568,373.650 8.943 C 373.788 9.131,374.009 9.108,374.143 8.892 C 374.459 8.381,371.897 5.877,370.714 5.540 C 369.266 5.128,367.928 5.160,368.200 5.600 M374.800 9.600 C 374.800 10.040,374.935 10.379,375.100 10.353 C 375.913 10.224,376.400 10.455,376.400 10.968 C 376.400 11.281,376.947 11.657,377.616 11.803 C 378.619 12.024,378.786 12.215,378.570 12.896 C 378.362 13.551,378.444 13.669,378.971 13.467 C 379.872 13.121,386.896 20.086,386.551 20.983 C 386.275 21.703,386.838 21.802,387.491 21.149 C 388.324 20.316,380.578 11.861,378.506 11.341 C 378.008 11.216,377.600 10.960,377.600 10.772 C 377.600 10.255,375.921 8.800,375.325 8.800 C 375.036 8.800,374.800 9.160,374.800 9.600 M18.165 14.057 C 16.864 15.190,15.530 16.507,15.200 16.984 C 14.870 17.461,13.970 18.537,13.200 19.374 C 12.430 20.212,11.125 21.632,10.300 22.529 C 9.475 23.427,8.800 24.414,8.800 24.724 C 8.800 25.033,7.881 26.441,6.759 27.852 C 5.200 29.810,4.772 30.635,4.949 31.340 C 5.127 32.049,4.905 32.468,3.991 33.144 C 3.336 33.628,2.800 34.319,2.800 34.680 C 2.800 35.042,2.510 35.657,2.155 36.049 C 1.173 37.135,0.805 42.424,1.768 41.626 C 2.284 41.198,2.398 40.712,2.212 39.726 C 2.002 38.601,2.080 38.400,2.726 38.400 C 3.308 38.400,3.447 38.180,3.312 37.476 C 3.209 36.937,3.399 36.333,3.768 36.027 C 4.116 35.738,4.400 35.093,4.400 34.594 C 4.400 34.094,4.670 33.582,5.000 33.455 C 5.330 33.329,5.600 32.939,5.600 32.589 C 5.600 32.226,5.790 32.070,6.043 32.226 C 6.332 32.405,6.404 32.239,6.250 31.750 C 6.093 31.252,6.481 30.411,7.401 29.252 C 8.163 28.290,8.706 27.371,8.606 27.210 C 8.506 27.048,8.869 26.499,9.412 25.988 C 9.956 25.478,10.400 24.841,10.400 24.573 C 10.400 24.305,10.670 23.982,11.000 23.855 C 11.330 23.729,11.600 23.392,11.600 23.107 C 11.600 22.823,12.050 22.252,12.600 21.839 C 13.150 21.426,13.600 20.753,13.600 20.344 C 13.600 19.927,13.883 19.600,14.243 19.600 C 14.650 19.600,14.801 19.380,14.655 19.000 C 14.529 18.670,14.612 18.400,14.839 18.400 C 15.067 18.400,15.848 17.770,16.574 17.000 C 17.300 16.230,18.021 15.600,18.176 15.600 C 18.804 15.600,21.079 12.545,20.719 12.185 C 20.615 12.081,19.465 12.923,18.165 14.057 M387.753 21.676 C 387.591 21.938,387.670 22.223,387.929 22.310 C 388.188 22.396,388.400 22.722,388.400 23.033 C 388.400 23.345,388.670 23.600,389.000 23.600 C 389.572 23.600,389.669 23.764,389.760 24.896 C 389.782 25.168,390.385 25.994,391.100 26.730 C 391.815 27.466,392.403 28.278,392.407 28.534 C 392.415 29.069,394.337 30.997,394.599 30.734 C 395.185 30.148,393.554 27.316,392.194 26.557 C 391.757 26.314,391.310 25.636,391.200 25.052 C 390.805 22.953,388.412 20.610,387.753 21.676 M394.900 31.887 C 394.206 32.136,394.273 33.176,395.000 33.455 C 395.330 33.582,395.600 34.039,395.600 34.471 C 395.600 34.904,395.884 35.541,396.231 35.888 C 396.578 36.235,396.770 36.872,396.657 37.304 C 396.515 37.848,396.689 38.150,397.226 38.291 C 397.766 38.432,398.000 38.843,398.000 39.647 C 398.000 40.281,398.205 40.800,398.455 40.800 C 399.123 40.800,398.532 36.313,397.791 35.756 C 397.466 35.512,397.200 35.134,397.200 34.917 C 397.200 33.584,395.696 31.602,394.900 31.887 M399.067 41.867 C 398.600 42.334,398.779 43.485,399.400 44.000 C 399.915 44.427,400.000 44.292,400.000 43.049 C 400.000 41.682,399.670 41.264,399.067 41.867 M0.000 43.543 C 0.000 44.428,0.184 45.267,0.410 45.406 C 0.635 45.545,0.770 45.421,0.710 45.130 C 0.649 44.838,0.801 44.637,1.046 44.682 C 1.663 44.795,1.128 42.309,0.490 42.097 C 0.158 41.986,0.000 42.451,0.000 43.543 M170.343 94.198 C 168.016 94.707,163.362 96.771,161.600 98.077 C 159.700 99.484,81.496 177.806,80.000 179.800 C 71.187 191.547,71.120 206.918,79.830 218.800 C 80.556 219.790,87.866 227.287,96.075 235.461 C 111.086 250.407,111.288 250.580,115.800 252.342 C 116.668 252.681,121.867 252.782,134.588 252.706 L 152.177 252.600 152.682 251.600 C 153.213 250.552,153.464 203.225,152.950 201.306 C 152.611 200.044,150.644 199.605,145.316 199.602 C 140.559 199.600,139.649 199.245,138.979 197.134 C 138.636 196.053,139.198 195.407,149.301 185.266 C 163.316 171.199,162.858 171.527,164.964 174.031 L 166.000 175.261 166.000 226.473 C 166.000 280.747,165.986 280.282,167.803 284.600 C 168.081 285.260,168.545 286.475,168.834 287.300 C 169.124 288.125,169.505 288.800,169.680 288.800 C 169.856 288.800,170.000 289.041,170.000 289.335 C 170.000 291.854,181.330 302.800,183.938 302.800 C 184.156 302.800,184.845 303.053,185.468 303.363 C 187.253 304.251,188.505 304.720,189.800 304.988 C 190.460 305.124,191.720 305.400,192.600 305.600 C 193.480 305.801,199.735 305.973,206.500 305.983 L 218.800 306.000 218.800 205.783 L 218.800 105.567 217.627 103.057 C 215.501 98.510,211.865 95.437,207.116 94.173 C 204.290 93.420,173.802 93.441,170.343 94.198 M256.169 94.328 C 253.062 95.402,250.952 97.190,241.098 107.095 L 231.996 116.244 232.098 151.022 L 232.200 185.800 234.338 185.742 C 235.514 185.710,236.675 185.485,236.918 185.242 C 237.161 184.999,237.722 184.800,238.165 184.800 C 238.700 184.800,253.699 170.078,282.885 140.908 C 330.471 93.346,328.626 95.361,325.781 94.064 C 323.889 93.202,258.711 93.449,256.169 94.328 M232.300 199.024 C 232.135 199.194,232.000 212.072,232.000 227.642 L 232.000 255.952 249.552 273.529 C 269.938 293.945,270.552 294.793,271.094 303.300 L 271.266 306.000 294.653 306.000 C 319.903 306.000,318.925 306.077,321.447 303.884 C 323.993 301.671,324.000 301.629,324.000 288.737 C 324.000 276.081,323.878 275.162,321.700 271.477 C 321.205 270.640,320.800 269.856,320.800 269.736 C 320.800 269.617,305.635 254.367,287.100 235.848 C 252.136 200.914,253.089 201.793,247.800 199.579 C 246.444 199.012,232.786 198.523,232.300 199.024 M0.243 354.691 C 0.109 354.824,-0.000 355.638,0.000 356.500 C 0.000 358.358,0.846 358.394,1.222 356.552 C 1.455 355.413,0.788 354.145,0.243 354.691 M399.220 355.376 C 398.630 356.087,398.820 358.079,399.500 358.302 C 399.851 358.418,400.000 357.921,400.000 356.633 C 400.000 354.631,399.931 354.519,399.220 355.376 M1.200 359.376 C 1.200 360.159,1.380 360.800,1.600 360.800 C 1.820 360.800,2.000 360.271,2.000 359.624 C 2.000 358.977,1.820 358.336,1.600 358.200 C 1.362 358.053,1.200 358.529,1.200 359.376 M398.000 360.400 C 398.000 361.337,397.823 361.600,397.192 361.600 C 396.544 361.600,396.431 361.786,396.621 362.542 C 396.770 363.134,396.623 363.720,396.229 364.114 C 395.883 364.460,395.600 364.983,395.600 365.276 C 395.600 365.568,395.189 366.256,394.687 366.804 C 394.185 367.352,393.743 368.247,393.705 368.792 C 393.667 369.338,393.358 369.988,393.018 370.236 C 392.678 370.485,392.400 370.893,392.400 371.144 C 392.400 371.395,392.220 371.600,392.000 371.600 C 391.780 371.600,391.600 372.050,391.600 372.600 C 391.600 373.150,391.407 373.600,391.171 373.600 C 390.618 373.600,389.600 374.618,389.600 375.171 C 389.600 375.407,389.336 375.600,389.013 375.600 C 388.683 375.600,388.516 375.838,388.633 376.142 C 388.748 376.442,388.024 377.525,387.012 378.566 C 386.006 379.602,385.279 380.604,385.396 380.794 C 385.514 380.984,385.293 381.203,384.905 381.282 C 384.246 381.414,384.245 381.441,384.887 381.694 C 385.675 382.005,387.843 380.064,388.429 378.524 C 388.626 378.005,389.106 377.460,389.494 377.315 C 390.369 376.986,391.167 375.996,391.197 375.200 C 391.210 374.870,392.125 373.520,393.231 372.200 C 394.816 370.308,395.200 369.580,395.043 368.759 C 394.887 367.945,395.100 367.529,396.022 366.847 C 396.670 366.368,397.200 365.681,397.200 365.320 C 397.200 364.958,397.476 364.359,397.812 363.986 C 398.583 363.135,399.112 359.200,398.456 359.200 C 398.205 359.200,398.000 359.740,398.000 360.400 M2.300 361.287 C 1.443 362.359,1.421 362.756,2.200 363.055 C 2.530 363.182,2.804 363.761,2.809 364.343 C 2.822 365.850,4.194 367.562,4.858 366.900 C 5.134 366.625,5.183 366.400,4.967 366.400 C 4.751 366.400,4.537 365.946,4.491 365.392 C 4.445 364.837,4.116 363.938,3.760 363.395 C 3.355 362.777,3.206 362.030,3.364 361.403 C 3.673 360.170,3.231 360.122,2.300 361.287 M5.467 367.867 C 4.814 368.519,5.332 370.022,7.000 372.314 C 7.990 373.674,8.800 374.960,8.800 375.170 C 8.800 375.381,9.700 376.492,10.800 377.639 C 11.900 378.786,12.800 379.844,12.800 379.989 C 12.800 380.685,24.231 391.200,24.988 391.200 C 25.760 391.200,27.593 392.179,27.609 392.600 C 27.635 393.262,29.501 394.413,30.147 394.165 C 31.101 393.799,30.533 393.052,28.490 391.986 C 27.451 391.444,26.309 390.685,25.953 390.300 C 25.597 389.915,25.057 389.595,24.753 389.588 C 24.088 389.574,21.600 387.379,21.600 386.806 C 21.600 386.583,21.426 386.400,21.213 386.400 C 20.577 386.400,11.600 377.225,11.600 376.575 C 11.600 376.245,11.330 375.871,11.000 375.745 C 10.670 375.618,10.400 375.329,10.400 375.103 C 10.400 374.877,9.995 374.301,9.500 373.824 C 9.005 373.347,8.541 372.697,8.470 372.379 C 8.398 372.060,8.173 371.740,7.970 371.667 C 7.766 371.593,7.600 371.098,7.600 370.567 C 7.600 369.974,7.368 369.600,7.000 369.600 C 6.421 369.600,6.233 369.153,6.370 368.100 C 6.440 367.565,5.906 367.427,5.467 367.867 M382.825 383.443 C 381.037 385.181,380.767 386.363,382.428 385.180 C 383.592 384.351,384.800 382.890,384.800 382.311 C 384.800 381.753,384.225 382.083,382.825 383.443 M378.974 386.574 C 377.837 387.851,376.190 388.852,375.804 388.501 C 375.622 388.336,375.588 388.521,375.729 388.913 C 375.942 389.506,374.389 390.656,373.692 390.420 C 373.360 390.307,372.520 391.459,372.708 391.768 C 372.831 391.970,372.632 392.021,372.266 391.881 C 371.900 391.740,371.600 391.780,371.600 391.969 C 371.600 392.158,371.150 392.426,370.600 392.564 C 370.050 392.702,369.600 393.101,369.600 393.451 C 369.600 393.936,369.353 394.025,368.561 393.826 C 367.808 393.637,367.569 393.707,367.692 394.083 C 368.149 395.468,373.568 393.183,374.293 391.300 C 374.399 391.025,374.844 390.800,375.283 390.800 C 375.721 390.800,376.710 390.170,377.480 389.400 C 378.250 388.630,379.014 388.000,379.178 388.000 C 379.513 388.000,380.800 386.660,380.800 386.311 C 380.800 385.642,379.658 385.807,378.974 386.574 M33.353 395.276 C 33.191 395.538,33.273 395.824,33.536 395.912 C 33.799 396.000,34.236 396.283,34.507 396.541 C 36.062 398.022,37.266 398.470,38.415 397.994 C 39.547 397.525,39.291 396.237,38.154 396.673 C 37.906 396.768,37.423 396.566,37.080 396.223 C 36.737 395.880,35.994 395.600,35.429 395.600 C 34.863 395.600,34.400 395.420,34.400 395.200 C 34.400 394.647,33.711 394.697,33.353 395.276 M365.951 395.306 C 365.644 395.613,365.140 395.780,364.831 395.677 C 364.522 395.574,364.038 395.806,363.755 396.193 C 363.356 396.740,362.924 396.837,361.821 396.630 C 360.616 396.404,360.405 396.473,360.432 397.082 C 360.450 397.501,360.547 397.592,360.665 397.300 C 360.776 397.025,361.026 396.800,361.221 396.800 C 361.416 396.800,361.478 397.054,361.359 397.364 C 360.949 398.431,362.614 398.435,364.631 397.372 C 367.118 396.060,367.477 395.717,366.934 395.174 C 366.633 394.873,366.345 394.912,365.951 395.306 M39.200 398.400 C 39.200 398.620,39.841 398.800,40.624 398.800 C 41.471 398.800,41.947 398.638,41.800 398.400 C 41.664 398.180,41.023 398.000,40.376 398.000 C 39.729 398.000,39.200 398.180,39.200 398.400 M358.200 398.400 C 358.053 398.638,358.529 398.800,359.376 398.800 C 360.159 398.800,360.800 398.620,360.800 398.400 C 360.800 398.180,360.271 398.000,359.624 398.000 C 358.977 398.000,358.336 398.180,358.200 398.400 M43.067 399.067 C 42.493 399.640,42.853 400.000,44.000 400.000 C 44.800 400.000,45.200 399.800,45.200 399.400 C 45.200 398.795,43.590 398.543,43.067 399.067 M355.067 399.067 C 354.493 399.640,354.853 400.000,356.000 400.000 C 356.800 400.000,357.200 399.800,357.200 399.400 C 357.200 398.795,355.590 398.543,355.067 399.067 " stroke="none" fill="#fafbfc" fill-rule="evenodd"></path><path id="path1" d="M52.000 0.448 C 52.000 0.748,51.214 0.839,49.627 0.724 C 47.536 0.573,47.229 0.645,47.051 1.328 C 46.898 1.913,46.598 2.055,45.824 1.907 C 45.143 1.776,44.800 1.888,44.800 2.240 C 44.800 2.631,44.178 2.744,42.429 2.673 C 41.126 2.620,40.067 2.672,40.077 2.788 C 40.158 3.742,39.895 3.997,39.000 3.834 C 38.314 3.710,38.000 3.833,38.000 4.226 C 38.000 4.572,37.602 4.800,37.000 4.800 C 36.374 4.800,36.000 5.026,36.000 5.405 C 36.000 5.887,35.655 5.961,34.300 5.772 C 33.145 5.611,32.777 5.660,33.153 5.924 C 33.596 6.235,33.536 6.366,32.853 6.583 C 32.384 6.732,32.000 7.022,32.000 7.227 C 32.000 7.432,31.550 7.600,31.000 7.600 C 30.378 7.600,30.000 7.827,30.000 8.200 C 30.000 8.600,29.600 8.800,28.800 8.800 C 28.140 8.800,27.600 8.980,27.600 9.200 C 27.600 9.420,27.150 9.600,26.600 9.600 C 25.961 9.600,25.600 9.825,25.600 10.224 C 25.600 10.593,25.412 10.731,25.138 10.562 C 24.879 10.402,24.784 10.451,24.922 10.673 C 25.400 11.447,23.977 12.881,22.979 12.631 C 22.460 12.500,21.923 12.602,21.763 12.860 C 21.585 13.148,21.652 13.215,21.938 13.038 C 22.192 12.881,22.400 12.922,22.400 13.130 C 22.400 13.337,22.040 13.601,21.600 13.716 C 21.058 13.858,20.800 14.262,20.800 14.970 C 20.800 15.885,20.676 15.984,19.800 15.764 C 18.922 15.544,18.800 15.642,18.800 16.574 C 18.800 17.363,18.620 17.605,18.100 17.518 C 17.623 17.437,17.437 17.623,17.518 18.100 C 17.605 18.620,17.363 18.800,16.574 18.800 C 15.635 18.800,15.543 18.918,15.771 19.828 C 15.979 20.657,15.892 20.841,15.315 20.782 C 14.004 20.646,13.600 20.795,13.600 21.413 C 13.600 21.749,13.362 22.116,13.072 22.228 C 12.726 22.360,12.608 22.875,12.731 23.714 C 12.901 24.870,12.854 24.943,12.260 24.450 C 11.690 23.977,11.600 23.996,11.600 24.594 C 11.600 25.044,11.391 25.205,11.000 25.055 C 10.635 24.915,10.400 25.055,10.400 25.413 C 10.400 26.870,9.779 28.000,8.978 28.000 C 8.545 28.000,8.452 28.270,8.636 29.000 C 8.826 29.756,8.730 30.000,8.243 30.000 C 7.867 30.000,7.600 30.332,7.600 30.800 C 7.600 31.240,7.401 31.600,7.157 31.600 C 6.914 31.600,6.824 31.887,6.959 32.237 C 7.124 32.667,6.931 32.945,6.368 33.093 C 5.667 33.276,5.571 33.520,5.775 34.607 C 5.975 35.672,5.879 35.938,5.235 36.107 C 4.667 36.255,4.512 36.544,4.673 37.156 C 4.830 37.758,4.708 38.000,4.247 38.000 C 3.774 38.000,3.600 38.377,3.600 39.400 C 3.600 40.348,3.415 40.800,3.028 40.800 C 2.585 40.800,2.493 41.254,2.621 42.800 C 2.741 44.239,2.645 44.800,2.279 44.800 C 1.930 44.800,1.775 45.460,1.785 46.900 C 1.796 48.373,1.651 48.970,1.300 48.900 C 0.953 48.831,0.800 49.413,0.800 50.800 C 0.800 51.900,0.620 52.800,0.400 52.800 C 0.134 52.800,0.000 102.067,0.000 199.800 C 0.000 305.835,0.122 346.800,0.437 346.800 C 0.716 346.800,0.825 347.587,0.737 348.980 C 0.620 350.838,0.710 351.189,1.347 351.355 C 1.937 351.509,2.060 351.838,1.932 352.929 C 1.808 353.997,1.899 354.260,2.339 354.091 C 2.811 353.910,2.865 354.403,2.662 357.037 C 2.528 358.777,2.519 359.975,2.642 359.700 C 2.994 358.917,3.600 359.114,3.600 360.013 C 3.600 360.459,3.870 360.929,4.200 361.055 C 4.530 361.182,4.800 361.607,4.800 362.000 C 4.800 362.393,5.073 362.819,5.407 362.947 C 5.836 363.112,5.953 363.533,5.804 364.379 C 5.636 365.333,5.716 365.531,6.196 365.346 C 7.012 365.033,6.968 365.866,6.144 366.327 C 5.580 366.643,5.661 366.821,6.729 367.611 C 7.411 368.115,7.875 368.679,7.761 368.864 C 7.646 369.049,7.833 369.200,8.176 369.200 C 8.575 369.200,8.800 369.561,8.800 370.200 C 8.800 370.828,9.026 371.200,9.408 371.200 C 9.856 371.200,9.949 371.462,9.764 372.200 C 9.570 372.976,9.667 373.200,10.200 373.200 C 10.733 373.200,10.830 373.424,10.636 374.200 C 10.432 375.012,10.532 375.200,11.170 375.200 C 11.601 375.200,12.206 375.559,12.513 375.997 C 12.820 376.436,13.183 376.684,13.318 376.549 C 13.453 376.413,13.773 377.132,14.028 378.146 C 14.284 379.160,14.653 379.891,14.849 379.770 C 15.330 379.472,16.400 380.586,16.400 381.384 C 16.400 381.737,16.670 382.129,17.000 382.255 C 17.330 382.382,17.600 382.736,17.600 383.043 C 17.600 383.349,17.973 383.600,18.429 383.600 C 19.341 383.600,20.102 384.222,20.511 385.304 C 20.658 385.691,20.918 385.984,21.089 385.956 C 22.783 385.678,23.740 386.469,24.632 388.882 C 24.820 389.392,25.175 389.505,26.042 389.332 C 26.916 389.157,27.200 389.250,27.200 389.713 C 27.200 390.127,27.457 390.258,27.995 390.117 C 28.499 389.985,28.881 390.145,29.038 390.555 C 29.174 390.910,29.626 391.200,30.043 391.200 C 30.459 391.200,30.800 391.470,30.800 391.800 C 30.800 392.130,31.089 392.400,31.443 392.400 C 31.864 392.400,32.002 392.618,31.843 393.032 C 31.643 393.552,31.812 393.617,32.800 393.400 C 33.768 393.187,34.000 393.269,34.000 393.821 C 34.000 394.381,34.257 394.463,35.421 394.274 C 36.451 394.107,36.903 394.202,37.064 394.622 C 37.186 394.940,37.626 395.200,38.043 395.200 C 38.473 395.200,38.800 395.479,38.800 395.847 C 38.800 396.323,39.067 396.442,39.814 396.299 C 40.522 396.164,40.946 396.325,41.218 396.833 C 41.546 397.447,41.960 397.529,43.857 397.354 C 45.695 397.184,46.066 397.250,45.888 397.715 C 45.722 398.149,46.020 398.275,47.135 398.243 C 48.244 398.210,48.589 398.355,48.555 398.838 C 48.516 399.379,48.916 399.448,51.204 399.293 C 52.936 399.175,53.995 399.269,54.172 399.555 C 54.563 400.188,346.048 400.192,346.681 399.559 C 346.929 399.311,348.014 399.179,349.161 399.259 C 350.941 399.382,351.200 399.304,351.200 398.647 C 351.200 398.002,351.425 397.925,352.771 398.105 C 353.976 398.267,354.295 398.192,354.138 397.783 C 353.918 397.210,357.039 397.016,357.388 397.581 C 357.732 398.138,359.955 397.548,359.729 396.959 C 359.526 396.431,359.991 396.228,361.086 396.367 C 361.551 396.426,363.091 395.127,363.300 394.500 C 363.355 394.335,363.885 394.233,364.477 394.273 C 365.334 394.331,365.503 394.209,365.302 393.673 C 365.077 393.073,365.127 393.063,365.765 393.582 C 367.029 394.612,368.200 394.235,368.200 392.800 C 368.200 392.470,368.425 392.245,368.700 392.300 C 368.975 392.355,369.200 392.130,369.200 391.800 C 369.200 391.427,369.578 391.200,370.200 391.200 C 370.828 391.200,371.200 390.974,371.200 390.592 C 371.200 390.162,371.493 390.037,372.200 390.166 C 372.906 390.294,373.200 390.169,373.200 389.742 C 373.200 389.285,373.479 389.198,374.334 389.385 C 375.327 389.604,375.463 389.521,375.434 388.718 C 375.412 388.131,375.724 387.659,376.300 387.406 C 376.795 387.188,377.200 386.783,377.200 386.505 C 377.200 386.227,377.515 385.973,377.900 385.939 C 378.285 385.906,378.812 385.858,379.072 385.834 C 379.331 385.810,379.691 385.628,379.872 385.431 C 380.059 385.226,379.986 385.195,379.700 385.359 C 379.391 385.537,379.200 385.409,379.200 385.024 C 379.200 384.681,379.464 384.400,379.787 384.400 C 380.171 384.400,380.286 384.169,380.120 383.736 C 379.924 383.225,380.045 383.118,380.644 383.275 C 381.507 383.501,382.400 382.765,382.400 381.829 C 382.400 381.470,382.632 381.314,382.971 381.444 C 383.397 381.608,383.482 381.435,383.307 380.764 C 383.118 380.044,383.204 379.916,383.736 380.120 C 384.183 380.291,384.400 380.167,384.400 379.741 C 384.400 379.303,384.648 379.172,385.201 379.316 C 385.657 379.435,385.899 379.360,385.764 379.141 C 385.633 378.930,385.903 378.431,386.363 378.032 C 386.823 377.633,387.200 377.040,387.200 376.715 C 387.200 375.975,388.627 374.646,389.104 374.941 C 389.299 375.061,389.690 374.257,389.973 373.154 C 390.328 371.770,390.654 371.212,391.023 371.354 C 391.366 371.485,391.480 371.351,391.338 370.983 C 391.216 370.665,391.404 370.296,391.758 370.161 C 392.111 370.025,392.400 369.574,392.400 369.157 C 392.400 368.741,392.599 368.400,392.843 368.400 C 393.086 368.400,393.184 368.135,393.060 367.811 C 392.930 367.474,393.192 366.971,393.670 366.636 C 394.250 366.230,394.437 365.784,394.279 365.181 C 394.112 364.541,394.259 364.257,394.837 364.106 C 395.392 363.961,395.552 363.680,395.384 363.148 C 395.231 362.669,395.372 362.309,395.772 362.155 C 396.172 362.002,396.400 361.421,396.400 360.557 C 396.400 359.130,397.003 358.707,397.337 359.900 C 397.445 360.285,397.462 359.385,397.375 357.900 C 397.255 355.859,397.345 355.200,397.741 355.200 C 398.120 355.200,398.233 354.644,398.146 353.200 C 398.054 351.655,398.160 351.200,398.613 351.200 C 399.031 351.200,399.200 350.739,399.200 349.600 C 399.200 348.720,399.380 348.000,399.600 348.000 C 399.866 348.000,400.000 298.400,400.000 200.000 C 400.000 101.600,399.866 52.000,399.600 52.000 C 399.380 52.000,399.200 51.100,399.200 50.000 C 399.200 48.523,399.049 48.000,398.622 48.000 C 398.199 48.000,398.068 47.570,398.133 46.400 C 398.193 45.330,398.055 44.800,397.717 44.800 C 397.345 44.800,397.264 44.180,397.409 42.447 C 397.579 40.411,397.507 40.069,396.876 39.904 C 396.290 39.751,396.182 39.417,396.324 38.202 C 396.447 37.144,396.365 36.775,396.047 36.971 C 395.798 37.125,395.486 36.969,395.354 36.625 C 395.222 36.281,394.861 36.000,394.551 36.000 C 394.147 36.000,394.047 35.666,394.198 34.811 C 394.372 33.823,394.295 33.665,393.742 33.878 C 393.168 34.098,393.107 33.905,393.300 32.466 C 393.471 31.196,393.390 30.800,392.962 30.800 C 392.653 30.800,392.400 30.620,392.400 30.400 C 392.400 30.180,392.130 30.000,391.800 30.000 C 391.425 30.000,391.200 29.621,391.200 28.987 C 391.200 28.431,390.950 27.879,390.644 27.762 C 390.339 27.644,390.169 27.239,390.268 26.861 C 390.394 26.381,389.959 25.899,388.824 25.261 C 387.799 24.685,387.200 24.063,387.200 23.574 C 387.200 23.148,387.020 22.800,386.800 22.800 C 386.580 22.800,386.400 22.350,386.400 21.800 C 386.400 20.819,386.098 20.637,384.705 20.778 C 384.133 20.836,384.054 20.629,384.259 19.606 C 384.403 18.883,384.347 18.413,384.123 18.482 C 383.912 18.547,383.071 17.915,382.255 17.078 C 381.144 15.938,380.566 15.620,379.956 15.814 C 379.232 16.044,379.162 15.935,379.335 14.836 C 379.510 13.730,379.424 13.600,378.522 13.600 C 377.827 13.600,377.580 13.428,377.727 13.045 C 377.881 12.645,377.706 12.552,377.098 12.711 C 376.167 12.954,373.827 10.604,374.276 9.877 C 374.423 9.639,374.088 9.566,373.428 9.693 C 372.715 9.829,372.264 9.710,372.126 9.351 C 372.009 9.048,371.499 8.800,370.991 8.800 C 370.358 8.800,369.907 8.438,369.557 7.648 C 369.090 6.594,368.913 6.515,367.457 6.710 C 366.171 6.882,365.910 6.811,366.092 6.337 C 366.266 5.885,366.053 5.790,365.159 5.921 C 364.289 6.048,364.000 5.930,364.000 5.445 C 364.000 5.090,363.820 4.800,363.600 4.800 C 363.380 4.800,363.200 4.528,363.200 4.195 C 363.200 3.723,362.850 3.635,361.600 3.792 C 360.225 3.964,360.000 3.886,360.000 3.234 C 360.000 2.576,359.781 2.505,358.339 2.699 C 357.152 2.858,356.553 2.757,356.239 2.343 C 355.997 2.025,355.171 1.773,354.400 1.782 C 353.398 1.795,353.011 1.630,353.040 1.200 C 353.071 0.721,352.649 0.628,350.940 0.737 C 349.575 0.824,348.800 0.716,348.800 0.437 C 348.800 0.122,307.447 0.000,200.400 0.000 C 91.118 0.000,52.000 0.118,52.000 0.448 M292.486 92.800 L 326.106 92.800 326.853 93.661 C 328.702 95.793,327.968 97.141,321.490 103.514 C 320.659 104.331,317.959 107.032,315.490 109.515 C 310.927 114.104,308.600 116.418,302.661 122.274 C 300.835 124.074,298.679 126.280,297.870 127.175 C 297.062 128.070,296.400 128.738,296.400 128.659 C 296.400 128.533,292.892 132.026,284.515 140.489 C 283.149 141.870,279.999 145.020,277.515 147.490 C 275.032 149.959,272.328 152.659,271.507 153.490 C 270.686 154.320,269.786 155.198,269.507 155.440 C 269.228 155.683,268.334 156.583,267.520 157.440 C 266.707 158.298,265.357 159.675,264.520 160.501 C 262.794 162.204,262.571 162.427,260.501 164.509 C 259.675 165.339,258.323 166.689,257.497 167.509 C 256.670 168.329,253.970 171.025,251.497 173.499 C 241.108 183.894,239.729 185.196,239.086 185.213 C 238.327 185.233,237.179 186.243,237.506 186.604 C 237.668 186.782,237.588 186.807,237.328 186.658 C 237.069 186.509,236.038 186.607,235.038 186.874 C 233.787 187.209,232.872 187.239,232.109 186.971 L 231.000 186.581 230.800 151.590 L 230.600 116.600 241.500 105.740 C 247.495 99.767,252.403 94.637,252.406 94.340 C 252.411 93.889,252.469 93.890,252.756 94.343 C 252.983 94.700,253.189 94.741,253.361 94.463 C 253.504 94.231,254.697 93.722,256.011 93.332 C 257.325 92.942,258.414 92.438,258.432 92.211 C 258.449 91.985,258.554 92.025,258.665 92.300 C 258.824 92.694,265.965 92.800,292.486 92.800 M207.000 93.200 C 207.136 93.420,207.737 93.600,208.335 93.600 C 208.933 93.600,209.822 93.880,210.311 94.223 C 210.939 94.663,211.200 94.702,211.200 94.356 C 211.200 93.845,211.618 94.088,211.733 94.667 C 211.769 94.850,212.789 95.825,213.999 96.834 C 215.210 97.842,216.455 99.147,216.768 99.734 C 217.080 100.320,217.485 100.800,217.668 100.800 C 217.850 100.800,218.000 100.990,218.000 101.222 C 218.000 101.454,218.405 102.489,218.900 103.522 L 219.800 105.400 219.800 206.200 L 219.800 307.000 207.400 306.954 C 194.397 306.906,190.783 306.602,187.271 305.261 C 186.100 304.814,184.930 304.497,184.671 304.558 C 184.412 304.619,184.345 304.590,184.521 304.494 C 184.980 304.244,183.535 303.228,182.700 303.213 C 182.315 303.206,182.000 303.040,182.000 302.843 C 182.000 302.647,181.550 302.374,181.000 302.236 C 180.450 302.098,180.000 301.808,180.000 301.592 C 180.000 301.377,179.745 301.200,179.433 301.200 C 179.122 301.200,178.807 301.065,178.733 300.900 C 178.453 300.269,175.685 298.448,175.416 298.717 C 175.261 298.873,175.193 298.730,175.267 298.400 C 175.340 298.068,175.164 297.849,174.870 297.910 C 174.579 297.970,174.442 297.856,174.566 297.655 C 174.864 297.173,173.820 296.322,173.399 296.703 C 173.219 296.867,173.180 296.809,173.313 296.575 C 173.523 296.206,173.118 295.580,171.208 293.317 C 170.984 293.051,170.800 292.646,170.800 292.417 C 170.800 292.188,170.665 291.999,170.500 291.997 C 170.098 291.994,168.800 289.681,168.800 288.968 C 168.800 288.655,168.620 288.400,168.400 288.400 C 168.180 288.400,168.000 288.029,168.000 287.576 C 168.000 287.095,167.823 286.862,167.573 287.017 C 167.339 287.162,167.187 287.037,167.236 286.740 C 167.320 286.236,167.241 285.942,166.530 284.100 C 165.097 280.392,165.070 279.418,164.930 226.422 C 164.823 185.722,164.688 174.576,164.297 174.328 C 162.789 173.370,161.789 173.999,156.680 179.119 C 153.871 181.935,151.669 184.365,151.786 184.519 C 151.904 184.674,151.874 184.704,151.721 184.587 C 151.290 184.259,144.408 191.285,144.685 191.771 C 144.819 192.007,144.775 192.060,144.587 191.890 C 144.079 191.428,140.000 195.625,140.000 196.610 C 140.000 197.694,141.165 199.204,141.458 198.500 C 141.609 198.138,143.039 198.000,146.639 198.000 L 151.611 198.000 152.794 199.300 L 153.977 200.600 153.988 226.353 L 154.000 252.107 152.900 253.058 L 151.800 254.009 134.600 253.889 C 123.462 253.811,116.864 253.611,115.880 253.322 C 113.102 252.506,110.115 250.739,107.878 248.590 C 106.662 247.422,105.547 246.586,105.400 246.733 C 105.254 246.880,105.193 246.811,105.267 246.580 C 105.432 246.059,99.514 240.000,98.841 240.000 C 98.572 240.000,98.451 239.840,98.572 239.645 C 98.828 239.231,97.851 238.314,97.463 238.603 C 97.318 238.712,97.277 238.693,97.370 238.563 C 97.647 238.178,95.521 236.000,94.867 236.000 C 94.537 236.000,94.376 235.891,94.509 235.758 C 94.854 235.413,89.971 230.573,89.440 230.733 C 89.198 230.807,89.118 230.748,89.263 230.603 C 89.611 230.256,85.557 226.000,84.878 226.000 C 84.589 226.000,84.432 225.865,84.529 225.700 C 84.775 225.281,81.741 222.393,81.406 222.727 C 81.256 222.877,81.193 222.730,81.267 222.400 C 81.347 222.036,81.164 221.853,80.800 221.933 C 80.470 222.007,80.327 221.939,80.483 221.784 C 80.716 221.550,79.195 219.110,78.373 218.400 C 78.246 218.290,78.021 217.930,77.873 217.600 C 77.726 217.270,77.379 216.647,77.103 216.215 C 75.483 213.685,74.800 212.326,74.800 211.632 C 74.800 211.200,74.651 210.755,74.468 210.642 C 74.286 210.530,73.896 209.432,73.601 208.204 C 73.306 206.976,72.937 206.178,72.781 206.431 C 72.624 206.684,72.524 203.797,72.559 200.014 C 72.593 196.232,72.479 193.049,72.304 192.941 C 72.130 192.833,72.102 192.558,72.243 192.330 C 72.414 192.053,72.598 192.073,72.793 192.389 C 72.959 192.657,73.321 191.806,73.626 190.432 C 73.922 189.094,74.308 188.000,74.483 188.000 C 74.657 188.000,74.800 187.636,74.800 187.192 C 74.800 186.748,75.250 185.671,75.800 184.800 C 76.350 183.929,76.800 183.025,76.800 182.791 C 76.800 182.557,76.982 182.149,77.204 181.883 C 77.426 181.617,78.317 180.484,79.185 179.365 C 82.564 175.010,161.232 96.800,162.234 96.800 C 162.545 96.800,162.801 96.665,162.803 96.500 C 162.805 96.174,165.151 94.694,165.800 94.609 C 166.020 94.580,166.707 94.341,167.326 94.078 C 167.945 93.815,168.880 93.600,169.402 93.600 C 169.925 93.600,170.464 93.420,170.600 93.200 C 170.759 92.943,177.263 92.800,188.800 92.800 C 200.337 92.800,206.841 92.943,207.000 93.200 M220.700 256.468 C 220.643 284.041,220.597 261.600,220.597 206.600 C 220.597 151.600,220.643 129.041,220.700 156.468 C 220.757 183.895,220.757 228.895,220.700 256.468 M246.712 198.416 C 247.514 198.929,247.669 198.928,247.993 198.407 C 248.304 197.907,248.538 197.973,249.481 198.826 C 250.096 199.383,251.140 200.092,251.800 200.402 C 252.460 200.713,254.192 202.002,255.649 203.268 C 257.105 204.534,258.455 205.441,258.649 205.285 C 258.842 205.128,258.859 205.171,258.688 205.379 C 258.311 205.836,264.735 212.400,265.558 212.400 C 265.874 212.400,266.010 212.523,265.860 212.674 C 265.458 213.076,268.050 215.613,268.563 215.320 C 268.804 215.184,268.861 215.225,268.690 215.412 C 268.276 215.867,272.014 219.633,272.567 219.318 C 272.805 219.183,272.863 219.222,272.696 219.406 C 272.282 219.863,274.006 221.638,274.558 221.324 C 274.801 221.185,274.867 221.219,274.703 221.399 C 274.298 221.847,275.189 222.854,275.707 222.534 C 275.936 222.392,276.014 222.454,275.880 222.671 C 275.599 223.126,279.307 226.926,279.724 226.610 C 279.876 226.494,279.907 226.523,279.793 226.674 C 279.467 227.105,282.076 229.598,282.563 229.320 C 282.804 229.184,282.863 229.222,282.696 229.406 C 282.282 229.863,284.006 231.638,284.558 231.324 C 284.801 231.185,284.861 231.225,284.690 231.412 C 284.276 231.867,288.014 235.633,288.567 235.318 C 288.805 235.183,288.861 235.224,288.692 235.411 C 288.316 235.824,291.190 238.853,291.675 238.554 C 291.865 238.436,291.970 238.579,291.910 238.870 C 291.849 239.164,292.068 239.340,292.400 239.267 C 292.730 239.193,292.861 239.273,292.690 239.443 C 292.266 239.867,296.027 243.625,296.567 243.318 C 296.805 243.183,296.863 243.222,296.696 243.406 C 296.282 243.863,298.006 245.638,298.558 245.324 C 298.801 245.185,298.861 245.224,298.692 245.411 C 298.316 245.824,301.190 248.853,301.675 248.554 C 301.865 248.436,301.970 248.506,301.910 248.709 C 301.721 249.341,305.199 252.846,305.719 252.548 C 305.984 252.396,306.062 252.424,305.893 252.610 C 305.479 253.065,308.011 255.635,308.563 255.320 C 308.804 255.184,308.861 255.225,308.690 255.412 C 308.276 255.867,312.014 259.633,312.567 259.318 C 312.805 259.183,312.862 259.224,312.693 259.410 C 312.318 259.822,314.740 262.400,315.502 262.400 C 315.802 262.400,315.956 262.548,315.844 262.728 C 315.521 263.251,319.183 266.855,319.723 266.545 C 319.985 266.395,320.070 266.415,319.912 266.591 C 319.753 266.766,320.023 267.444,320.512 268.098 C 322.575 270.858,323.130 271.888,324.450 275.394 C 325.523 278.247,325.590 299.096,324.532 301.216 C 323.517 303.252,320.223 306.400,319.109 306.400 C 318.587 306.400,317.979 306.581,317.757 306.803 C 317.493 307.067,309.225 307.171,293.777 307.103 L 270.200 307.000 269.987 303.200 C 269.870 301.110,269.555 299.007,269.287 298.526 C 269.019 298.046,268.800 297.277,268.800 296.818 C 268.800 295.779,266.964 292.811,266.295 292.768 C 265.926 292.745,265.921 292.687,266.275 292.543 C 266.744 292.352,266.392 291.822,264.121 289.303 C 263.601 288.726,263.044 288.449,262.759 288.626 C 262.466 288.806,262.380 288.755,262.541 288.495 C 262.690 288.255,255.594 280.853,246.403 271.661 L 230.000 255.256 230.000 227.228 C 230.000 208.809,230.137 199.200,230.400 199.200 C 230.620 199.200,230.800 198.945,230.800 198.633 C 230.800 197.413,244.847 197.221,246.712 198.416 M154.700 238.729 C 154.638 245.478,154.588 239.840,154.588 226.200 C 154.588 212.560,154.638 207.038,154.700 213.929 C 154.761 220.820,154.761 231.980,154.700 238.729 M269.491 304.300 C 269.405 305.125,269.334 304.450,269.334 302.800 C 269.334 301.150,269.405 300.475,269.491 301.300 C 269.578 302.125,269.578 303.475,269.491 304.300 " stroke="none" fill="#0c33fb" fill-rule="evenodd"></path><path id="path2" d="M220.597 206.600 C 220.597 261.600,220.643 284.041,220.700 256.468 C 220.757 228.895,220.757 183.895,220.700 156.468 C 220.643 129.041,220.597 151.600,220.597 206.600 M141.600 198.400 C 141.600 198.646,143.600 198.800,146.800 198.800 C 150.000 198.800,152.000 198.646,152.000 198.400 C 152.000 198.154,150.000 198.000,146.800 198.000 C 143.600 198.000,141.600 198.154,141.600 198.400 M230.000 227.376 C 230.000 245.729,230.139 255.639,230.400 255.800 C 230.665 255.964,230.800 246.471,230.800 227.624 C 230.800 208.941,230.663 199.200,230.400 199.200 C 230.137 199.200,230.000 208.859,230.000 227.376 M154.588 226.200 C 154.588 239.840,154.638 245.478,154.700 238.729 C 154.761 231.980,154.761 220.820,154.700 213.929 C 154.638 207.038,154.588 212.560,154.588 226.200 M269.334 302.800 C 269.334 304.450,269.405 305.125,269.491 304.300 C 269.578 303.475,269.578 302.125,269.491 301.300 C 269.405 300.475,269.334 301.150,269.334 302.800 M44.943 399.000 C 45.273 399.330,45.640 399.600,45.759 399.600 C 45.878 399.600,45.871 399.330,45.745 399.000 C 45.618 398.670,45.251 398.400,44.929 398.400 C 44.421 398.400,44.422 398.480,44.943 399.000 " stroke="none" fill="#040cfc" fill-rule="evenodd"></path><path id="path3" d="M41.600 2.000 C 41.600 2.220,41.870 2.400,42.200 2.400 C 42.530 2.400,42.800 2.220,42.800 2.000 C 42.800 1.780,42.530 1.600,42.200 1.600 C 41.870 1.600,41.600 1.780,41.600 2.000 M357.000 2.000 C 356.864 2.220,357.134 2.400,357.600 2.400 C 358.066 2.400,358.336 2.220,358.200 2.000 C 358.064 1.780,357.794 1.600,357.600 1.600 C 357.406 1.600,357.136 1.780,357.000 2.000 M173.105 93.083 C 173.602 93.179,174.322 93.175,174.705 93.075 C 175.087 92.975,174.680 92.896,173.800 92.901 C 172.920 92.905,172.607 92.987,173.105 93.083 M258.500 93.076 C 258.885 93.176,259.515 93.176,259.900 93.076 C 260.285 92.975,259.970 92.893,259.200 92.893 C 258.430 92.893,258.115 92.975,258.500 93.076 M213.600 96.925 C 213.600 96.994,214.185 97.579,214.900 98.225 L 216.200 99.400 215.025 98.100 C 213.930 96.888,213.600 96.616,213.600 96.925 M264.800 213.000 C 265.546 213.770,266.247 214.400,266.357 214.400 C 266.467 214.400,265.946 213.770,265.200 213.000 C 264.454 212.230,263.753 211.600,263.643 211.600 C 263.533 211.600,264.054 212.230,264.800 213.000 M278.383 226.500 C 279.364 227.545,280.219 228.400,280.283 228.400 C 280.584 228.400,280.266 228.041,278.500 226.383 L 276.600 224.600 278.383 226.500 M301.000 249.200 C 301.859 250.080,302.652 250.800,302.762 250.800 C 302.872 250.800,302.259 250.080,301.400 249.200 C 300.541 248.320,299.748 247.600,299.638 247.600 C 299.528 247.600,300.141 248.320,301.000 249.200 M304.800 253.000 C 305.546 253.770,306.247 254.400,306.357 254.400 C 306.467 254.400,305.946 253.770,305.200 253.000 C 304.454 252.230,303.753 251.600,303.643 251.600 C 303.533 251.600,304.054 252.230,304.800 253.000 M126.300 253.500 C 130.975 253.564,138.625 253.564,143.300 253.500 C 147.975 253.436,144.150 253.383,134.800 253.383 C 125.450 253.383,121.625 253.436,126.300 253.500 M309.800 258.000 C 311.550 259.760,313.071 261.200,313.181 261.200 C 313.291 261.200,311.950 259.760,310.200 258.000 C 308.450 256.240,306.929 254.800,306.819 254.800 C 306.709 254.800,308.050 256.240,309.800 258.000 M314.800 263.000 C 315.546 263.770,316.247 264.400,316.357 264.400 C 316.467 264.400,315.946 263.770,315.200 263.000 C 314.454 262.230,313.753 261.600,313.643 261.600 C 313.533 261.600,314.054 262.230,314.800 263.000 M318.383 266.500 C 320.041 268.266,320.400 268.584,320.400 268.283 C 320.400 268.219,319.545 267.364,318.500 266.383 L 316.600 264.600 318.383 266.500 M174.800 297.000 C 175.995 298.210,177.063 299.200,177.173 299.200 C 177.283 299.200,176.395 298.210,175.200 297.000 C 174.005 295.790,172.937 294.800,172.827 294.800 C 172.717 294.800,173.605 295.790,174.800 297.000 M34.400 394.551 C 34.400 394.634,34.670 394.926,35.000 395.200 C 35.491 395.608,35.600 395.580,35.600 395.049 C 35.600 394.692,35.330 394.400,35.000 394.400 C 34.670 394.400,34.400 394.468,34.400 394.551 " stroke="none" fill="#6777fc" fill-rule="evenodd"></path><path id="path4" d="M42.447 2.255 C 41.969 2.795,41.991 2.860,42.614 2.739 C 43.010 2.663,43.409 2.375,43.500 2.100 C 43.730 1.410,43.116 1.500,42.447 2.255 M356.400 2.200 C 356.400 2.569,356.746 2.782,357.300 2.754 C 357.985 2.718,358.032 2.663,357.495 2.523 C 357.107 2.422,356.893 2.173,357.019 1.970 C 357.144 1.766,357.057 1.600,356.824 1.600 C 356.591 1.600,356.400 1.870,356.400 2.200 M382.533 16.975 C 382.533 17.300,382.672 17.479,382.842 17.374 C 383.012 17.269,383.328 17.500,383.545 17.888 C 383.762 18.276,384.043 18.491,384.168 18.365 C 384.294 18.239,383.978 17.743,383.465 17.261 C 382.774 16.611,382.533 16.538,382.533 16.975 M219.797 207.200 C 219.797 261.650,219.843 283.925,219.900 256.700 C 219.957 229.475,219.957 184.925,219.900 157.700 C 219.843 130.475,219.797 152.750,219.797 207.200 M230.991 151.600 C 230.991 170.630,231.040 178.415,231.100 168.900 C 231.160 159.385,231.160 143.815,231.100 134.300 C 231.040 124.785,230.991 132.570,230.991 151.600 M164.994 225.800 C 164.994 253.740,165.042 265.111,165.100 251.069 C 165.158 237.027,165.158 214.167,165.100 200.269 C 165.042 186.371,164.994 197.860,164.994 225.800 M143.900 199.096 C 145.275 199.174,147.525 199.174,148.900 199.096 C 150.275 199.018,149.150 198.954,146.400 198.954 C 143.650 198.954,142.525 199.018,143.900 199.096 M324.974 289.000 C 324.975 294.720,325.031 297.004,325.099 294.076 C 325.168 291.148,325.167 286.468,325.099 283.676 C 325.030 280.884,324.974 283.280,324.974 289.000 M282.500 307.100 C 288.825 307.162,299.175 307.162,305.500 307.100 C 311.825 307.038,306.650 306.987,294.000 306.987 C 281.350 306.987,276.175 307.038,282.500 307.100 M397.600 357.424 C 397.600 358.004,397.773 358.340,398.000 358.200 C 398.220 358.064,398.400 357.603,398.400 357.176 C 398.400 356.749,398.220 356.400,398.000 356.400 C 397.780 356.400,397.600 356.861,397.600 357.424 M30.626 392.758 C 30.504 392.955,30.674 393.219,31.002 393.346 C 31.365 393.485,31.600 393.344,31.600 392.987 C 31.600 392.340,30.975 392.193,30.626 392.758 M368.460 392.780 C 368.632 393.296,369.181 393.388,369.230 392.910 C 369.247 392.750,369.044 392.548,368.780 392.460 C 368.516 392.372,368.372 392.516,368.460 392.780 " stroke="none" fill="#5460fc" fill-rule="evenodd"></path><path id="path5" d="M4.918 34.400 C 4.662 35.008,4.645 35.456,4.874 35.542 C 5.464 35.764,5.679 35.350,5.502 34.334 L 5.339 33.400 4.918 34.400 M182.326 93.100 C 186.355 93.165,192.835 93.165,196.726 93.099 C 200.617 93.034,197.320 92.980,189.400 92.981 C 181.480 92.981,178.297 93.034,182.326 93.100 M276.300 93.100 C 285.155 93.160,299.645 93.160,308.500 93.100 C 317.355 93.040,310.110 92.991,292.400 92.991 C 274.690 92.991,267.445 93.040,276.300 93.100 M219.200 207.000 L 219.000 306.200 207.600 306.409 L 196.200 306.619 207.451 306.709 C 216.513 306.782,218.790 306.695,219.152 306.258 C 219.483 305.859,219.575 279.576,219.500 206.758 L 219.399 107.800 219.200 207.000 M235.100 198.297 C 236.695 198.373,239.305 198.373,240.900 198.297 C 242.495 198.221,241.190 198.159,238.000 198.159 C 234.810 198.159,233.505 198.221,235.100 198.297 M231.389 227.400 C 231.389 242.580,231.439 248.732,231.500 241.071 C 231.561 233.410,231.561 220.990,231.500 213.471 C 231.439 205.952,231.389 212.220,231.389 227.400 M153.787 225.400 C 153.787 238.160,153.838 243.438,153.900 237.129 C 153.962 230.819,153.962 220.379,153.900 213.929 C 153.838 207.478,153.787 212.640,153.787 225.400 M89.400 229.600 C 90.259 230.480,91.052 231.200,91.162 231.200 C 91.272 231.200,90.659 230.480,89.800 229.600 C 88.941 228.720,88.148 228.000,88.038 228.000 C 87.928 228.000,88.541 228.720,89.400 229.600 M94.800 234.925 C 94.800 234.994,95.385 235.579,96.100 236.225 L 97.400 237.400 96.225 236.100 C 95.130 234.888,94.800 234.616,94.800 234.925 M98.800 238.925 C 98.800 238.994,99.385 239.579,100.100 240.225 L 101.400 241.400 100.225 240.100 C 99.130 238.888,98.800 238.616,98.800 238.925 M102.000 242.125 C 102.000 242.194,102.585 242.779,103.300 243.425 L 104.600 244.600 103.425 243.300 C 102.330 242.088,102.000 241.816,102.000 242.125 M106.200 246.400 C 107.059 247.280,107.852 248.000,107.962 248.000 C 108.072 248.000,107.459 247.280,106.600 246.400 C 105.741 245.520,104.948 244.800,104.838 244.800 C 104.728 244.800,105.341 245.520,106.200 246.400 M270.514 303.800 C 270.517 304.900,270.595 305.303,270.687 304.695 C 270.779 304.086,270.777 303.186,270.682 302.695 C 270.587 302.203,270.511 302.700,270.514 303.800 M4.800 365.000 C 4.800 365.330,4.980 365.600,5.200 365.600 C 5.420 365.600,5.600 365.330,5.600 365.000 C 5.600 364.670,5.420 364.400,5.200 364.400 C 4.980 364.400,4.800 364.670,4.800 365.000 M364.400 395.000 C 364.400 395.330,364.580 395.600,364.800 395.600 C 365.020 395.600,365.200 395.330,365.200 395.000 C 365.200 394.670,365.020 394.400,364.800 394.400 C 364.580 394.400,364.400 394.670,364.400 395.000 " stroke="none" fill="#8c8cfc" fill-rule="evenodd"></path><path id="path6" d="M44.295 0.716 C 43.208 0.939,43.902 1.600,45.224 1.600 C 45.980 1.600,46.400 1.395,46.400 1.025 C 46.400 0.477,45.855 0.397,44.295 0.716 M353.879 0.654 C 353.297 1.237,353.642 1.600,354.776 1.600 C 355.882 1.600,356.922 0.955,355.882 0.914 C 355.617 0.904,355.121 0.778,354.779 0.635 C 354.438 0.492,354.033 0.501,353.879 0.654 M8.678 26.656 C 8.358 26.975,8.719 27.600,9.224 27.600 C 9.431 27.600,9.600 27.330,9.600 27.000 C 9.600 26.381,9.128 26.205,8.678 26.656 M394.400 34.000 C 394.400 34.220,394.670 34.400,395.000 34.400 C 395.330 34.400,395.600 34.220,395.600 34.000 C 395.600 33.780,395.330 33.600,395.000 33.600 C 394.670 33.600,394.400 33.780,394.400 34.000 M0.701 44.693 C 0.380 45.333,0.620 46.538,1.100 46.699 C 1.412 46.804,1.600 46.488,1.600 45.857 C 1.600 44.865,1.003 44.092,0.701 44.693 M398.400 45.633 C 398.400 46.608,399.335 46.470,399.529 45.467 C 399.606 45.072,399.402 44.800,399.029 44.800 C 398.658 44.800,398.400 45.142,398.400 45.633 M170.600 93.692 C 168.055 94.315,164.166 95.982,162.102 97.336 C 160.163 98.607,82.583 175.922,79.958 179.200 C 77.323 182.488,73.985 189.323,74.010 191.376 C 74.016 191.829,74.472 190.874,75.024 189.254 C 76.188 185.837,77.875 182.631,80.000 179.800 C 81.490 177.814,159.685 99.498,161.600 98.073 C 166.982 94.069,170.649 93.509,190.463 93.669 C 199.407 93.741,206.517 93.668,206.263 93.506 C 205.568 93.065,172.459 93.238,170.600 93.692 M257.338 93.506 C 257.084 93.668,272.294 93.800,291.138 93.800 C 310.128 93.800,325.757 93.958,326.200 94.154 L 327.000 94.508 326.200 93.867 C 325.344 93.181,258.400 92.830,257.338 93.506 M208.776 94.660 C 209.753 95.002,210.974 95.558,211.489 95.895 C 212.004 96.232,212.510 96.423,212.614 96.320 C 212.896 96.037,208.562 93.997,207.725 94.019 C 207.326 94.030,207.799 94.318,208.776 94.660 M253.400 95.065 C 251.414 96.329,232.560 114.999,231.773 116.480 C 230.995 117.946,230.905 185.145,231.680 185.920 C 231.944 186.184,232.799 186.376,233.580 186.347 L 235.000 186.295 233.600 186.047 L 232.200 185.800 232.097 151.000 L 231.994 116.200 242.097 106.167 C 249.881 98.437,252.700 95.889,254.379 95.067 C 255.577 94.480,256.207 94.011,255.779 94.024 C 255.350 94.036,254.280 94.505,253.400 95.065 M214.662 98.644 C 215.621 99.659,216.708 101.129,217.080 101.912 C 217.451 102.694,217.827 103.119,217.915 102.854 C 218.152 102.145,213.973 96.800,213.182 96.800 C 213.038 96.800,213.704 97.630,214.662 98.644 M282.800 140.971 C 258.710 165.042,239.450 184.403,240.000 183.994 C 241.156 183.135,327.099 97.199,326.799 97.202 C 326.690 97.204,306.890 116.899,282.800 140.971 M218.899 205.694 L 218.800 305.988 206.900 306.100 L 195.000 306.212 206.913 306.306 C 216.145 306.379,218.868 306.287,219.015 305.900 C 219.119 305.625,219.158 260.400,219.102 205.400 L 218.998 105.400 218.899 205.694 M160.291 174.366 C 157.092 177.328,140.001 194.601,139.375 195.504 C 137.603 198.062,139.831 199.600,145.316 199.602 C 150.644 199.605,152.611 200.044,152.950 201.306 C 153.464 203.225,153.213 250.552,152.682 251.600 L 152.177 252.600 134.588 252.806 L 117.000 253.013 134.484 253.106 L 151.969 253.200 152.784 252.325 C 153.587 251.463,153.600 251.056,153.600 226.305 L 153.600 201.162 152.542 200.181 C 151.529 199.243,151.253 199.200,146.204 199.200 C 140.343 199.200,139.600 198.905,139.600 196.576 C 139.600 194.949,161.228 173.200,162.846 173.200 C 165.362 173.200,165.197 169.655,165.230 224.431 C 165.246 251.804,165.403 275.010,165.580 276.000 C 165.756 276.990,165.922 254.729,165.950 226.531 L 166.000 175.261 164.964 174.031 C 163.557 172.358,162.368 172.443,160.291 174.366 M237.000 185.200 C 236.864 185.420,236.358 185.621,235.876 185.646 C 235.236 185.680,235.182 185.741,235.677 185.871 C 236.049 185.969,236.859 185.776,237.477 185.441 C 238.228 185.034,238.376 184.827,237.924 184.816 C 237.552 184.807,237.136 184.980,237.000 185.200 M73.400 194.000 C 73.246 194.910,73.211 195.744,73.321 195.854 C 73.431 195.964,73.646 195.310,73.800 194.400 C 73.954 193.490,73.989 192.656,73.879 192.546 C 73.769 192.436,73.554 193.090,73.400 194.000 M72.931 199.400 C 72.933 200.940,73.005 201.521,73.092 200.691 C 73.179 199.861,73.177 198.601,73.089 197.891 C 73.000 197.181,72.929 197.860,72.931 199.400 M231.821 198.767 C 231.696 198.968,231.575 211.883,231.551 227.467 L 231.508 255.800 234.837 259.283 C 236.668 261.199,238.243 262.691,238.335 262.598 C 238.428 262.505,237.039 260.976,235.249 259.201 L 231.995 255.972 232.097 227.486 L 232.200 199.000 239.600 199.008 C 243.670 199.012,246.460 198.898,245.800 198.755 C 243.921 198.347,232.074 198.357,231.821 198.767 M247.600 199.600 C 247.930 199.813,248.470 199.988,248.800 199.988 C 249.333 199.988,249.333 199.945,248.800 199.600 C 248.470 199.387,247.930 199.212,247.600 199.212 C 247.067 199.212,247.067 199.255,247.600 199.600 M249.600 200.137 C 249.600 200.213,250.455 200.708,251.500 201.237 C 252.601 201.795,255.462 204.231,258.300 207.026 C 260.995 209.681,263.200 211.737,263.200 211.595 C 263.200 210.903,253.177 201.608,251.618 200.855 C 249.794 199.973,249.600 199.904,249.600 200.137 M73.268 203.600 C 73.262 204.150,73.411 204.960,73.600 205.400 L 73.944 206.200 73.932 205.400 C 73.926 204.960,73.776 204.150,73.600 203.600 L 73.280 202.600 73.268 203.600 M74.010 207.250 C 74.002 207.799,74.451 209.306,75.416 211.957 C 75.528 212.264,75.689 212.444,75.774 212.357 C 75.860 212.271,75.500 210.940,74.975 209.400 C 74.450 207.860,74.016 206.892,74.010 207.250 M264.822 213.431 C 269.940 218.745,319.727 268.400,319.937 268.400 C 320.080 268.400,307.509 255.710,292.000 240.200 C 276.491 224.690,263.721 212.000,263.623 212.000 C 263.524 212.000,264.063 212.644,264.822 213.431 M76.000 213.047 C 76.000 213.648,78.664 217.951,80.185 219.808 C 81.548 221.471,107.941 247.955,109.659 249.384 C 110.176 249.814,103.733 243.244,95.340 234.783 C 81.864 221.199,77.248 216.046,77.187 214.519 C 77.168 214.036,76.000 212.587,76.000 213.047 M112.576 251.413 C 113.004 251.736,113.634 251.999,113.976 251.998 C 114.319 251.996,114.084 251.726,113.454 251.398 C 112.004 250.641,111.566 250.649,112.576 251.413 M242.007 266.278 C 242.017 266.693,254.400 279.066,254.400 278.661 C 254.400 278.493,251.610 275.566,248.200 272.156 C 244.790 268.746,242.003 266.101,242.007 266.278 M320.800 269.777 C 320.800 270.171,322.511 272.822,322.666 272.667 C 322.758 272.576,322.447 271.848,321.977 271.050 C 321.200 269.733,320.800 269.301,320.800 269.777 M322.802 273.454 C 322.798 274.195,323.967 276.659,323.984 275.946 C 323.993 275.586,323.731 274.776,323.402 274.146 C 323.074 273.516,322.804 273.204,322.802 273.454 M324.086 288.600 C 324.083 295.200,324.224 300.150,324.400 299.600 C 324.826 298.271,324.845 280.240,324.423 278.200 C 324.220 277.217,324.090 281.230,324.086 288.600 M166.177 279.600 C 166.507 282.386,168.618 288.715,169.067 288.266 C 169.194 288.139,168.651 286.611,167.623 284.200 C 167.435 283.760,166.996 282.230,166.646 280.800 C 166.297 279.370,166.086 278.830,166.177 279.600 M256.003 280.298 C 256.004 280.464,257.894 282.451,260.203 284.714 C 262.511 286.977,264.400 288.703,264.400 288.551 C 264.400 288.399,262.510 286.412,260.200 284.135 C 257.890 281.859,256.001 280.132,256.003 280.298 M266.464 291.400 C 267.219 292.500,268.084 293.895,268.386 294.499 C 268.688 295.104,269.012 295.521,269.107 295.426 C 269.408 295.126,267.137 291.279,266.093 290.320 C 265.279 289.574,265.350 289.778,266.464 291.400 M170.000 290.149 C 170.000 292.196,177.979 300.118,182.300 302.361 C 184.043 303.266,183.172 302.497,180.787 301.024 C 177.820 299.193,173.867 295.387,171.658 292.235 C 170.746 290.934,170.000 289.995,170.000 290.149 M269.212 296.400 C 269.212 296.730,269.387 297.270,269.600 297.600 C 269.945 298.133,269.988 298.133,269.988 297.600 C 269.988 297.270,269.813 296.730,269.600 296.400 C 269.255 295.867,269.212 295.867,269.212 296.400 M270.178 299.400 C 270.294 300.060,270.506 301.770,270.649 303.200 C 270.792 304.630,271.087 306.025,271.304 306.300 C 271.758 306.876,315.017 306.971,316.800 306.400 C 317.350 306.224,307.315 306.062,294.500 306.040 L 271.200 306.000 271.194 303.700 C 271.191 302.435,270.913 300.680,270.578 299.800 C 270.093 298.530,270.011 298.447,270.178 299.400 M323.600 301.100 C 323.600 301.754,320.763 304.613,319.400 305.334 C 318.740 305.683,318.453 305.975,318.762 305.984 C 320.021 306.020,324.501 301.568,323.856 300.922 C 323.715 300.782,323.600 300.862,323.600 301.100 M184.400 303.400 C 185.715 304.152,186.364 304.160,185.376 303.413 C 184.949 303.090,184.330 302.826,184.000 302.827 C 183.652 302.828,183.820 303.068,184.400 303.400 M189.800 305.380 C 190.680 305.715,191.940 305.970,192.600 305.948 C 193.691 305.912,193.655 305.874,192.200 305.535 C 188.943 304.776,188.059 304.719,189.800 305.380 M0.557 353.033 C 0.691 353.381,0.800 353.831,0.800 354.033 C 0.800 354.235,0.980 354.400,1.200 354.400 C 1.420 354.400,1.600 353.950,1.600 353.400 C 1.600 352.748,1.376 352.400,0.957 352.400 C 0.535 352.400,0.398 352.618,0.557 353.033 M398.400 354.533 C 398.400 355.353,398.598 355.867,398.914 355.867 C 399.230 355.867,399.429 355.353,399.429 354.533 C 399.429 353.714,399.230 353.200,398.914 353.200 C 398.598 353.200,398.400 353.714,398.400 354.533 M3.600 362.976 C 3.600 363.293,3.780 363.664,4.000 363.800 C 4.220 363.936,4.400 363.677,4.400 363.224 C 4.400 362.771,4.220 362.400,4.000 362.400 C 3.780 362.400,3.600 362.659,3.600 362.976 M390.400 373.000 C 390.400 373.330,390.670 373.600,391.000 373.600 C 391.330 373.600,391.600 373.330,391.600 373.000 C 391.600 372.670,391.330 372.400,391.000 372.400 C 390.670 372.400,390.400 372.670,390.400 373.000 M45.698 398.900 C 45.951 399.669,47.600 399.780,47.600 399.028 C 47.600 398.619,47.239 398.400,46.567 398.400 C 45.919 398.400,45.595 398.587,45.698 398.900 M352.400 399.000 C 352.400 399.646,352.766 399.741,353.767 399.357 C 354.741 398.984,354.517 398.400,353.400 398.400 C 352.778 398.400,352.400 398.627,352.400 399.000 " stroke="none" fill="#849cfc" fill-rule="evenodd"></path><path id="path7" d="M46.800 0.906 C 46.800 1.257,46.395 1.622,45.900 1.718 L 45.000 1.891 45.913 1.946 C 46.792 1.998,47.562 1.029,47.049 0.516 C 46.912 0.379,46.800 0.554,46.800 0.906 M20.171 15.200 C 20.171 15.640,20.313 16.000,20.486 16.000 C 20.659 16.000,20.800 15.640,20.800 15.200 C 20.800 14.760,20.659 14.400,20.486 14.400 C 20.313 14.400,20.171 14.760,20.171 15.200 M386.400 22.200 C 386.400 22.530,386.664 22.800,386.987 22.800 C 387.345 22.800,387.485 22.565,387.345 22.200 C 387.218 21.870,386.954 21.600,386.757 21.600 C 386.561 21.600,386.400 21.870,386.400 22.200 M9.600 26.567 C 9.600 27.098,9.375 27.624,9.100 27.735 C 8.739 27.881,8.733 27.946,9.076 27.968 C 9.634 28.005,9.985 27.516,10.200 26.402 C 10.285 25.961,10.184 25.600,9.977 25.600 C 9.770 25.600,9.600 26.035,9.600 26.567 M2.400 40.400 C 2.400 40.620,2.670 40.800,3.000 40.800 C 3.330 40.800,3.600 40.620,3.600 40.400 C 3.600 40.180,3.330 40.000,3.000 40.000 C 2.670 40.000,2.400 40.180,2.400 40.400 M2.400 42.567 C 2.400 42.878,2.175 43.224,1.900 43.335 C 1.601 43.456,1.682 43.550,2.100 43.568 C 2.544 43.588,2.800 43.307,2.800 42.800 C 2.800 42.360,2.710 42.000,2.600 42.000 C 2.490 42.000,2.400 42.255,2.400 42.567 M214.000 96.925 C 214.000 96.994,214.585 97.579,215.300 98.225 L 216.600 99.400 215.425 98.100 C 214.330 96.888,214.000 96.616,214.000 96.925 M321.200 103.400 C 320.228 104.390,319.523 105.200,319.633 105.200 C 319.743 105.200,320.628 104.390,321.600 103.400 C 322.572 102.410,323.277 101.600,323.167 101.600 C 323.057 101.600,322.172 102.410,321.200 103.400 M219.693 107.200 C 219.693 107.970,219.775 108.285,219.876 107.900 C 219.976 107.515,219.976 106.885,219.876 106.500 C 219.775 106.115,219.693 106.430,219.693 107.200 M309.192 115.500 L 305.400 119.400 309.300 115.608 C 311.445 113.522,313.200 111.767,313.200 111.708 C 313.200 111.418,312.714 111.878,309.192 115.500 M244.189 180.500 L 241.400 183.400 244.300 180.611 C 245.895 179.077,247.200 177.772,247.200 177.711 C 247.200 177.417,246.780 177.806,244.189 180.500 M232.705 187.083 C 233.202 187.179,233.922 187.175,234.305 187.075 C 234.687 186.975,234.280 186.896,233.400 186.901 C 232.520 186.905,232.207 186.987,232.705 187.083 M72.544 199.600 C 72.544 201.690,72.612 202.545,72.694 201.500 C 72.776 200.455,72.776 198.745,72.694 197.700 C 72.612 196.655,72.544 197.510,72.544 199.600 M234.719 197.898 C 236.544 197.972,239.424 197.972,241.119 197.897 C 242.814 197.822,241.320 197.761,237.800 197.762 C 234.280 197.762,232.894 197.824,234.719 197.898 M230.990 226.600 C 230.990 242.440,231.039 248.862,231.100 240.871 C 231.160 232.879,231.160 219.919,231.100 212.071 C 231.039 204.222,230.990 210.760,230.990 226.600 M151.600 199.082 C 151.930 199.203,152.650 199.684,153.200 200.151 L 154.200 201.000 153.230 199.900 C 152.697 199.295,151.977 198.814,151.630 198.832 C 151.091 198.859,151.086 198.895,151.600 199.082 M279.800 227.600 C 293.439 241.240,304.688 252.400,304.798 252.400 C 304.908 252.400,293.839 241.240,280.200 227.600 C 266.561 213.960,255.312 202.800,255.202 202.800 C 255.092 202.800,266.161 213.960,279.800 227.600 M310.800 258.600 C 313.984 261.790,316.680 264.400,316.790 264.400 C 316.900 264.400,314.384 261.790,311.200 258.600 C 308.016 255.410,305.320 252.800,305.210 252.800 C 305.100 252.800,307.616 255.410,310.800 258.600 M134.800 253.600 L 117.400 253.813 134.676 253.906 C 145.865 253.967,152.040 253.859,152.200 253.600 C 152.336 253.380,152.392 253.242,152.324 253.294 C 152.256 253.345,144.370 253.483,134.800 253.600 M324.658 277.200 C 324.975 278.925,325.202 279.251,325.194 277.967 C 325.191 277.435,325.011 276.730,324.794 276.400 C 324.518 275.978,324.477 276.215,324.658 277.200 M164.806 277.033 C 164.809 277.455,164.995 278.070,165.218 278.400 C 165.515 278.838,165.552 278.676,165.356 277.800 C 165.027 276.329,164.798 276.010,164.806 277.033 M174.800 297.400 C 175.995 298.610,177.063 299.600,177.173 299.600 C 177.283 299.600,176.395 298.610,175.200 297.400 C 174.005 296.190,172.937 295.200,172.827 295.200 C 172.717 295.200,173.605 296.190,174.800 297.400 M270.093 303.600 C 270.093 304.370,270.175 304.685,270.276 304.300 C 270.376 303.915,270.376 303.285,270.276 302.900 C 270.175 302.515,270.093 302.830,270.093 303.600 M219.336 306.424 C 219.069 306.691,214.676 306.793,206.700 306.717 C 199.976 306.653,194.683 306.732,194.937 306.894 C 195.702 307.380,219.513 307.264,219.816 306.773 C 220.183 306.180,219.835 305.925,219.336 306.424 M393.226 366.969 C 392.839 367.435,392.902 367.498,393.577 367.322 C 394.030 367.204,394.400 366.948,394.400 366.753 C 394.400 366.214,393.754 366.332,393.226 366.969 M6.267 367.933 C 6.367 368.315,6.798 368.629,7.224 368.629 C 8.199 368.629,8.197 368.621,7.042 367.864 C 6.156 367.284,6.098 367.289,6.267 367.933 M389.990 373.026 C 389.505 374.303,389.505 374.400,390.000 374.400 C 390.220 374.400,390.400 373.963,390.400 373.429 C 390.400 372.841,390.676 372.387,391.100 372.276 C 391.758 372.104,391.758 372.090,391.090 372.046 C 390.671 372.019,390.220 372.420,389.990 373.026 M11.600 375.800 C 11.600 376.130,11.892 376.400,12.249 376.400 C 12.780 376.400,12.808 376.291,12.400 375.800 C 12.126 375.470,11.834 375.200,11.751 375.200 C 11.668 375.200,11.600 375.470,11.600 375.800 M386.393 378.006 C 385.675 378.629,385.567 378.927,385.929 379.289 C 386.290 379.650,386.400 379.635,386.400 379.224 C 386.400 378.929,386.715 378.458,387.099 378.177 C 387.484 377.896,387.693 377.560,387.564 377.430 C 387.434 377.301,386.907 377.560,386.393 378.006 M384.400 379.600 C 384.400 379.820,384.670 380.000,385.000 380.000 C 385.330 380.000,385.600 379.820,385.600 379.600 C 385.600 379.380,385.330 379.200,385.000 379.200 C 384.670 379.200,384.400 379.380,384.400 379.600 M14.600 380.000 C 14.464 380.220,14.633 380.400,14.976 380.400 C 15.319 380.400,15.600 380.670,15.600 381.000 C 15.600 381.330,15.780 381.600,16.000 381.600 C 16.582 381.600,16.490 380.832,15.829 380.171 C 15.152 379.495,14.931 379.464,14.600 380.000 M382.400 381.800 C 382.400 382.130,382.692 382.400,383.049 382.400 C 383.580 382.400,383.608 382.291,383.200 381.800 C 382.926 381.470,382.634 381.200,382.551 381.200 C 382.468 381.200,382.400 381.470,382.400 381.800 M18.400 384.000 C 18.400 384.220,18.599 384.400,18.842 384.400 C 19.086 384.400,19.639 384.850,20.071 385.400 C 20.889 386.440,21.600 386.708,21.600 385.976 C 21.600 385.743,21.419 385.665,21.197 385.802 C 20.976 385.939,20.671 385.724,20.520 385.325 C 19.998 383.949,18.400 382.950,18.400 384.000 M379.200 385.000 C 379.200 385.330,379.020 385.600,378.800 385.600 C 378.580 385.600,378.400 385.780,378.400 386.000 C 378.400 386.220,378.670 386.400,379.000 386.400 C 379.330 386.400,379.555 386.175,379.500 385.900 C 379.445 385.625,379.619 385.443,379.886 385.495 C 380.166 385.550,380.275 385.339,380.143 384.995 C 379.846 384.223,379.200 384.226,379.200 385.000 M23.600 387.951 C 23.600 388.198,23.767 388.400,23.971 388.400 C 24.175 388.400,24.424 388.715,24.524 389.100 C 24.679 389.691,24.714 389.698,24.754 389.149 C 24.779 388.791,24.530 388.274,24.200 388.000 C 23.785 387.656,23.600 387.641,23.600 387.951 M47.200 398.277 C 47.750 398.389,48.349 398.688,48.530 398.940 C 48.751 399.248,48.807 399.201,48.700 398.800 C 48.609 398.462,48.029 398.172,47.369 398.137 C 46.362 398.082,46.339 398.101,47.200 398.277 M351.700 398.276 C 352.085 398.376,352.715 398.376,353.100 398.276 C 353.485 398.175,353.170 398.093,352.400 398.093 C 351.630 398.093,351.315 398.175,351.700 398.276 " stroke="none" fill="#3f5afc" fill-rule="evenodd"></path><path id="path8" d="M50.000 0.400 C 50.000 0.620,50.450 0.800,51.000 0.800 C 51.550 0.800,52.000 0.620,52.000 0.400 C 52.000 0.180,51.550 0.000,51.000 0.000 C 50.450 0.000,50.000 0.180,50.000 0.400 M348.800 0.400 C 348.800 0.919,349.879 0.919,350.200 0.400 C 350.336 0.180,350.077 -0.000,349.624 -0.000 C 349.171 -0.000,348.800 0.180,348.800 0.400 M43.671 1.868 C 43.742 2.234,44.025 2.609,44.300 2.700 C 45.035 2.945,44.910 1.728,44.171 1.444 C 43.732 1.276,43.581 1.404,43.671 1.868 M358.400 2.200 C 358.400 2.530,358.561 2.800,358.757 2.800 C 358.954 2.800,359.218 2.530,359.345 2.200 C 359.485 1.835,359.345 1.600,358.987 1.600 C 358.664 1.600,358.400 1.870,358.400 2.200 M38.800 3.200 C 39.301 4.136,39.826 4.230,40.130 3.439 C 40.401 2.733,40.076 2.400,39.119 2.400 C 38.496 2.400,38.443 2.533,38.800 3.200 M360.000 3.233 C 360.000 4.208,360.935 4.070,361.129 3.067 C 361.206 2.672,361.002 2.400,360.629 2.400 C 360.258 2.400,360.000 2.742,360.000 3.233 M36.500 4.100 C 36.752 4.857,38.000 4.964,38.000 4.229 C 38.000 3.858,37.658 3.600,37.167 3.600 C 36.678 3.600,36.402 3.807,36.500 4.100 M34.800 5.200 C 34.800 5.644,35.067 6.000,35.400 6.000 C 35.733 6.000,36.000 5.644,36.000 5.200 C 36.000 4.756,35.733 4.400,35.400 4.400 C 35.067 4.400,34.800 4.756,34.800 5.200 M364.267 4.667 C 363.779 5.154,363.991 6.000,364.600 6.000 C 364.933 6.000,365.200 5.644,365.200 5.200 C 365.200 4.403,364.774 4.160,364.267 4.667 M31.600 5.957 C 31.600 6.153,31.150 6.426,30.600 6.564 C 30.050 6.702,29.600 6.992,29.600 7.208 C 29.600 7.809,31.583 7.674,32.229 7.029 C 32.972 6.285,32.958 5.600,32.200 5.600 C 31.870 5.600,31.600 5.760,31.600 5.957 M366.400 6.200 C 366.400 6.573,366.778 6.800,367.400 6.800 C 368.022 6.800,368.400 6.573,368.400 6.200 C 368.400 5.827,368.022 5.600,367.400 5.600 C 366.778 5.600,366.400 5.827,366.400 6.200 M26.800 9.000 C 26.392 9.491,26.420 9.600,26.951 9.600 C 27.308 9.600,27.600 9.330,27.600 9.000 C 27.600 8.670,27.532 8.400,27.449 8.400 C 27.366 8.400,27.074 8.670,26.800 9.000 M372.400 9.154 C 372.400 9.729,372.585 9.904,373.017 9.738 C 373.700 9.476,373.616 8.739,372.875 8.492 C 372.611 8.404,372.400 8.698,372.400 9.154 M23.261 11.404 C 22.404 12.308,22.383 12.418,23.023 12.664 C 23.785 12.957,25.374 11.405,24.974 10.758 C 24.630 10.201,24.275 10.334,23.261 11.404 M374.984 10.825 C 374.626 11.405,375.952 12.800,376.862 12.800 C 377.268 12.800,377.600 12.530,377.600 12.200 C 377.600 11.870,377.349 11.600,377.043 11.600 C 376.736 11.600,376.382 11.330,376.255 11.000 C 375.987 10.301,375.361 10.215,374.984 10.825 M19.800 14.000 C 19.664 14.220,19.823 14.400,20.153 14.400 C 20.483 14.400,20.864 14.220,21.000 14.000 C 21.136 13.780,20.977 13.600,20.647 13.600 C 20.317 13.600,19.936 13.780,19.800 14.000 M379.349 14.989 C 379.017 15.854,379.200 15.968,380.517 15.715 C 381.796 15.469,381.763 14.663,380.467 14.472 C 379.946 14.395,379.497 14.603,379.349 14.989 M17.672 16.469 C 17.861 17.749,18.800 17.886,18.800 16.633 C 18.800 15.961,18.581 15.600,18.172 15.600 C 17.755 15.600,17.587 15.892,17.672 16.469 M15.600 18.172 C 15.600 18.581,15.961 18.800,16.633 18.800 C 17.886 18.800,17.749 17.861,16.469 17.672 C 15.892 17.587,15.600 17.755,15.600 18.172 M384.400 18.882 C 384.400 19.241,384.291 19.819,384.157 20.167 C 383.997 20.586,384.137 20.800,384.570 20.800 C 385.523 20.800,385.816 19.644,385.055 18.883 C 384.450 18.278,384.400 18.278,384.400 18.882 M11.762 22.955 C 11.501 23.635,11.851 24.400,12.424 24.400 C 12.928 24.400,12.906 22.913,12.397 22.598 C 12.176 22.461,11.890 22.622,11.762 22.955 M387.200 23.586 C 387.200 24.580,388.696 25.464,389.321 24.839 C 389.634 24.526,389.515 24.180,388.895 23.602 C 387.804 22.586,387.200 22.581,387.200 23.586 M390.262 26.983 C 390.096 27.415,390.271 27.600,390.846 27.600 C 391.302 27.600,391.596 27.389,391.508 27.125 C 391.261 26.384,390.524 26.300,390.262 26.983 M6.643 30.233 C 6.259 31.234,6.354 31.600,7.000 31.600 C 7.373 31.600,7.600 31.222,7.600 30.600 C 7.600 29.483,7.016 29.259,6.643 30.233 M393.200 32.600 C 393.200 33.222,393.427 33.600,393.800 33.600 C 394.173 33.600,394.400 33.222,394.400 32.600 C 394.400 31.978,394.173 31.600,393.800 31.600 C 393.427 31.600,393.200 31.978,393.200 32.600 M394.267 35.067 C 393.760 35.574,394.003 36.000,394.800 36.000 C 395.244 36.000,395.600 35.733,395.600 35.400 C 395.600 34.791,394.754 34.579,394.267 35.067 M3.873 36.261 C 3.365 36.769,3.596 38.000,4.200 38.000 C 4.530 38.000,4.797 37.775,4.794 37.500 C 4.785 36.755,4.185 35.948,3.873 36.261 M2.667 38.667 C 2.179 39.154,2.391 40.000,3.000 40.000 C 3.333 40.000,3.600 39.644,3.600 39.200 C 3.600 38.403,3.174 38.160,2.667 38.667 M396.278 39.056 C 395.904 39.429,396.355 40.000,397.024 40.000 C 397.341 40.000,397.600 39.730,397.600 39.400 C 397.600 38.798,396.756 38.578,396.278 39.056 M1.600 44.167 C 1.600 44.515,1.885 44.800,2.233 44.800 C 2.940 44.800,2.817 43.939,2.075 43.692 C 1.814 43.605,1.600 43.818,1.600 44.167 M397.467 43.867 C 396.902 44.432,397.247 44.745,398.400 44.712 C 399.697 44.675,399.986 44.234,398.967 43.843 C 398.154 43.531,397.797 43.536,397.467 43.867 M398.267 47.067 C 397.760 47.574,398.003 48.000,398.800 48.000 C 399.244 48.000,399.600 47.733,399.600 47.400 C 399.600 46.791,398.754 46.579,398.267 47.067 M0.400 48.000 C 0.400 48.547,0.667 48.800,1.243 48.800 C 1.847 48.800,2.017 48.621,1.843 48.167 C 1.709 47.819,1.600 47.459,1.600 47.367 C 1.600 47.275,1.330 47.200,1.000 47.200 C 0.667 47.200,0.400 47.556,0.400 48.000 M399.467 49.867 C 399.048 50.285,399.155 52.000,399.600 52.000 C 399.820 52.000,400.000 51.460,400.000 50.800 C 400.000 49.557,399.919 49.415,399.467 49.867 M0.000 51.800 C 0.000 52.350,0.180 52.800,0.400 52.800 C 0.620 52.800,0.800 52.350,0.800 51.800 C 0.800 51.250,0.620 50.800,0.400 50.800 C 0.180 50.800,0.000 51.250,0.000 51.800 M0.000 347.800 C 0.000 348.350,0.180 348.800,0.400 348.800 C 0.620 348.800,0.800 348.350,0.800 347.800 C 0.800 347.250,0.620 346.800,0.400 346.800 C 0.180 346.800,0.000 347.250,0.000 347.800 M399.200 348.600 C 399.200 348.930,399.380 349.200,399.600 349.200 C 399.820 349.200,400.000 348.930,400.000 348.600 C 400.000 348.270,399.820 348.000,399.600 348.000 C 399.380 348.000,399.200 348.270,399.200 348.600 M398.157 351.833 C 398.291 352.181,398.400 352.541,398.400 352.633 C 398.400 352.725,398.670 352.800,399.000 352.800 C 399.333 352.800,399.600 352.444,399.600 352.000 C 399.600 351.453,399.333 351.200,398.757 351.200 C 398.153 351.200,397.983 351.379,398.157 351.833 M1.600 355.233 C 1.600 356.208,2.535 356.070,2.729 355.067 C 2.806 354.672,2.602 354.400,2.229 354.400 C 1.858 354.400,1.600 354.742,1.600 355.233 M397.300 355.700 C 397.391 355.975,397.766 356.258,398.132 356.329 C 398.596 356.419,398.724 356.268,398.556 355.829 C 398.272 355.090,397.055 354.965,397.300 355.700 M396.400 360.700 C 396.400 361.124,396.676 361.467,397.016 361.467 C 397.734 361.467,397.638 360.346,396.900 360.100 C 396.616 360.005,396.400 360.265,396.400 360.700 M3.600 361.800 C 3.600 362.130,3.870 362.400,4.200 362.400 C 4.530 362.400,4.800 362.130,4.800 361.800 C 4.800 361.470,4.530 361.200,4.200 361.200 C 3.870 361.200,3.600 361.470,3.600 361.800 M395.400 362.400 C 395.108 362.872,395.487 363.600,396.024 363.600 C 396.231 363.600,396.400 363.240,396.400 362.800 C 396.400 361.956,395.818 361.724,395.400 362.400 M4.469 363.464 C 4.638 364.339,5.800 364.463,5.800 363.605 C 5.800 363.278,5.469 362.947,5.064 362.869 C 4.529 362.766,4.366 362.929,4.469 363.464 M394.278 364.256 C 393.904 364.629,394.355 365.200,395.024 365.200 C 395.341 365.200,395.600 364.930,395.600 364.600 C 395.600 363.998,394.756 363.778,394.278 364.256 M5.051 366.083 C 5.325 366.527,6.400 366.480,6.400 366.025 C 6.400 365.819,6.052 365.676,5.628 365.708 C 5.203 365.740,4.944 365.909,5.051 366.083 M392.400 369.449 C 392.400 370.336,392.493 370.421,393.000 370.000 C 393.330 369.726,393.600 369.254,393.600 368.951 C 393.600 368.648,393.330 368.400,393.000 368.400 C 392.619 368.400,392.400 368.783,392.400 369.449 M7.600 370.200 C 7.600 370.750,7.780 371.200,8.000 371.200 C 8.220 371.200,8.400 371.483,8.400 371.829 C 8.400 372.202,8.672 372.406,9.067 372.329 C 10.044 372.140,10.159 371.335,9.242 371.095 C 8.667 370.945,8.512 370.658,8.673 370.044 C 8.830 369.442,8.708 369.200,8.247 369.200 C 7.824 369.200,7.600 369.546,7.600 370.200 M9.200 373.600 C 10.131 374.531,10.800 374.634,10.800 373.847 C 10.800 373.542,10.395 373.185,9.900 373.052 C 8.460 372.666,8.351 372.751,9.200 373.600 M12.073 377.400 C 12.562 378.474,14.000 378.783,14.000 377.814 C 14.000 377.234,12.841 376.400,12.035 376.400 C 11.755 376.400,11.767 376.729,12.073 377.400 M383.393 380.411 C 383.249 380.644,383.356 381.106,383.631 381.438 C 384.047 381.939,383.986 382.079,383.266 382.267 C 382.790 382.391,382.400 382.749,382.400 383.062 C 382.400 383.419,382.065 383.587,381.500 383.515 C 380.494 383.386,379.908 384.133,380.870 384.318 C 381.686 384.475,384.400 382.040,384.400 381.150 C 384.400 380.297,383.756 379.825,383.393 380.411 M21.600 386.772 C 21.600 387.241,21.860 387.600,22.200 387.600 C 22.530 387.600,22.800 387.780,22.800 388.000 C 22.800 388.220,22.992 388.400,23.227 388.400 C 23.461 388.400,23.596 387.905,23.527 387.300 C 23.366 385.904,21.600 385.420,21.600 386.772 M377.200 386.800 C 377.200 387.244,377.467 387.600,377.800 387.600 C 378.133 387.600,378.400 387.244,378.400 386.800 C 378.400 386.356,378.133 386.000,377.800 386.000 C 377.467 386.000,377.200 386.356,377.200 386.800 M25.600 389.800 C 25.600 390.133,25.956 390.400,26.400 390.400 C 26.844 390.400,27.200 390.133,27.200 389.800 C 27.200 389.467,26.844 389.200,26.400 389.200 C 25.956 389.200,25.600 389.467,25.600 389.800 M373.200 389.800 C 373.200 390.130,373.470 390.400,373.800 390.400 C 374.130 390.400,374.400 390.130,374.400 389.800 C 374.400 389.470,374.130 389.200,373.800 389.200 C 373.470 389.200,373.200 389.470,373.200 389.800 M27.600 390.757 C 27.600 391.602,28.636 392.189,29.023 391.563 C 29.399 390.955,28.904 390.000,28.213 390.000 C 27.876 390.000,27.600 390.341,27.600 390.757 M371.095 390.758 C 370.945 391.333,370.658 391.488,370.044 391.327 C 369.442 391.170,369.200 391.292,369.200 391.753 C 369.200 392.109,369.462 392.400,369.781 392.400 C 370.878 392.400,372.431 391.457,372.316 390.862 C 372.137 389.943,371.326 389.874,371.095 390.758 M29.467 391.467 C 28.960 391.974,29.203 392.400,30.000 392.400 C 30.444 392.400,30.800 392.133,30.800 391.800 C 30.800 391.191,29.954 390.979,29.467 391.467 M32.667 393.467 C 32.160 393.974,32.403 394.400,33.200 394.400 C 33.644 394.400,34.000 394.133,34.000 393.800 C 34.000 393.191,33.154 392.979,32.667 393.467 M365.600 394.376 C 365.600 394.829,365.780 395.200,366.000 395.200 C 366.220 395.200,366.400 394.941,366.400 394.624 C 366.400 394.307,366.220 393.936,366.000 393.800 C 365.780 393.664,365.600 393.923,365.600 394.376 M35.867 394.267 C 35.379 394.754,35.591 395.600,36.200 395.600 C 36.530 395.600,36.800 395.780,36.800 396.000 C 36.800 396.220,37.250 396.400,37.800 396.400 C 38.422 396.400,38.800 396.173,38.800 395.800 C 38.800 395.470,38.459 395.200,38.043 395.200 C 37.626 395.200,37.182 394.930,37.055 394.600 C 36.812 393.965,36.309 393.824,35.867 394.267 M363.103 394.231 C 362.697 394.636,363.239 395.600,363.872 395.600 C 364.205 395.600,364.403 395.311,364.329 394.933 C 364.191 394.217,363.507 393.826,363.103 394.231 M40.100 396.265 C 39.186 396.634,39.558 397.600,40.614 397.600 C 41.504 397.600,41.576 397.502,41.200 396.800 C 40.965 396.360,40.733 396.014,40.686 396.032 C 40.639 396.049,40.375 396.154,40.100 396.265 M44.275 397.458 C 43.753 397.980,44.002 398.400,44.833 398.400 C 45.299 398.400,45.597 398.190,45.508 397.925 C 45.313 397.340,44.646 397.088,44.275 397.458 M354.749 397.267 C 354.324 398.375,354.584 399.092,355.257 398.671 C 356.050 398.176,356.058 397.553,355.275 397.292 C 355.014 397.205,354.777 397.193,354.749 397.267 M51.400 399.600 C 51.250 399.842,51.804 400.000,52.800 400.000 C 53.796 400.000,54.350 399.842,54.200 399.600 C 54.064 399.380,53.434 399.200,52.800 399.200 C 52.166 399.200,51.536 399.380,51.400 399.600 M346.600 399.600 C 346.464 399.820,346.723 400.000,347.176 400.000 C 347.629 400.000,348.000 399.820,348.000 399.600 C 348.000 399.380,347.741 399.200,347.424 399.200 C 347.107 399.200,346.736 399.380,346.600 399.600 " stroke="none" fill="#0414b1" fill-rule="evenodd"></path></g></svg>