<?xml version="1.0" encoding="UTF-8" standalone="no"?>
<svg
   xmlns:dc="http://purl.org/dc/elements/1.1/"
   xmlns:cc="http://creativecommons.org/ns#"
   xmlns:rdf="http://www.w3.org/1999/02/22-rdf-syntax-ns#"
   xmlns:svg="http://www.w3.org/2000/svg"
   xmlns="http://www.w3.org/2000/svg"
   viewBox="0 0 849.84003 886.54669"
   height="113.385px"
   width="147.337px"
   xml:space="preserve"
   id="svg2"
   version="1.1"><metadata
     id="metadata8"><rdf:RDF><cc:Work
         rdf:about=""><dc:format>image/svg+xml</dc:format><dc:type
           rdf:resource="http://purl.org/dc/dcmitype/StillImage" /></cc:Work></rdf:RDF></metadata><defs
     id="defs6" /><g
     transform="matrix(1.3333333,0,0,-1.3333333,0,886.54667)"
     id="g10"><g
       transform="scale(0.1)"
       id="g12"><path
         id="path14"
         style="fill:#100f0d;fill-opacity:1;fill-rule:nonzero;stroke:none"
         d="m 605.098,911.891 c -188.157,0 -308.493,-142.371 -308.493,-327.121 0,-183.059 120.336,-327.129 308.493,-327.129 186.445,0 306.777,144.07 306.777,327.129 0,184.75 -120.332,327.121 -306.777,327.121 z m 0,257.639 c 345.769,0 603.382,-240.69 603.382,-584.76 C 1208.48,240.691 950.867,0.0117188 605.098,0.0117188 259.324,0.0117188 0,240.691 0,584.77 c 0,344.07 259.324,584.76 605.098,584.76" /><path
         id="path16"
         style="fill:#100f0d;fill-opacity:1;fill-rule:nonzero;stroke:none"
         d="m 1652.85,398.32 c 81.37,-81.351 206.78,-149.148 361.03,-149.148 99.99,0 161.02,42.367 161.02,96.609 0,64.399 -72.88,89.828 -193.25,115.258 -186.44,37.293 -447.45,84.742 -447.45,352.539 0,189.842 161.02,354.252 450.85,354.252 181.36,0 339.01,-54.24 459.34,-157.63 L 2285.06,801.719 c -94.91,77.972 -218.64,116.961 -318.64,116.961 -96.62,0 -133.9,-38.989 -133.9,-88.141 0,-59.32 69.49,-79.668 194.9,-103.398 186.45,-38.981 444.08,-93.219 444.08,-349.172 0,-227.11 -167.79,-377.9572812 -471.19,-377.9572812 -228.81,0 -388.14,71.1874812 -501.7,179.6602812 l 154.24,218.648" /><path
         id="path18"
         style="fill:#100f0d;fill-opacity:1;fill-rule:nonzero;stroke:none"
         d="M 3845.06,783.07 3558.6,20.3516 H 3429.78 L 3145.03,783.07 V 20.3516 H 2853.5 V 1150.88 h 405.09 l 235.61,-640.689 237.3,640.689 h 405.08 V 20.3516 H 3845.06 V 783.07" /><path
         id="path20"
         style="fill:#100f0d;fill-opacity:1;fill-rule:nonzero;stroke:none"
         d="m 4583.67,1150.88 h 291.51 V 20.3516 H 4583.67 V 1150.88" /><path
         id="path22"
         style="fill:#100f0d;fill-opacity:1;fill-rule:nonzero;stroke:none"
         d="M 5783.98,400.012 5538.2,20.3516 h -345.77 l 394.93,579.6604 -369.51,550.868 h 344.09 l 222.04,-354.239 218.64,354.239 h 345.77 L 5980.59,601.711 6373.81,20.3516 H 6029.73 L 5783.98,400.012" /><path
         id="path24"
         style="fill:#100f0d;fill-opacity:1;fill-rule:nonzero;stroke:none"
         d="m 5220.74,5220.03 c -53.41,0 -96.68,-43.29 -96.68,-96.69 V 3424.83 c 0,-53.4 43.27,-96.7 96.68,-96.7 53.4,0 96.68,43.3 96.68,96.7 v 1698.51 c 0,53.4 -43.28,96.69 -96.68,96.69" /><path
         id="path26"
         style="fill:#100f0d;fill-opacity:1;fill-rule:nonzero;stroke:none"
         d="m 1090.29,5220.03 c -53.41,0 -96.677,-43.29 -96.677,-96.69 V 3424.83 c 0,-53.4 43.267,-96.7 96.677,-96.7 53.41,0 96.68,43.3 96.68,96.7 v 1698.51 c 0,53.4 -43.27,96.69 -96.68,96.69" /><path
         id="path28"
         style="fill:#100f0d;fill-opacity:1;fill-rule:nonzero;stroke:none"
         d="m 1926.14,4678.13 c -7.61,22.54 -16.45,49.04 -25.89,77.55 -72.19,218.06 -108.84,446.31 -108.84,676.01 v 602.69 c 0,53.39 -43.27,96.69 -96.68,96.69 -53.41,0 -96.67,-43.3 -96.67,-96.69 l -0.01,-602.69 c 0,-229.7 -36.65,-457.95 -108.84,-676.01 -9.44,-28.51 -18.27,-55.01 -25.89,-77.55 -46.52,-134.68 -73.04,-269.37 -73.26,-404.04 -1.71,-134.69 21.98,-269.37 65.7,-404.05 15.48,-48.88 38.47,-125.18 61.47,-202.55 53.53,-179.98 80.82,-366.75 80.82,-554.51 l 0.01,-590.59 c 0,-53.4 43.26,-96.69 96.67,-96.69 53.41,0 96.68,43.29 96.68,96.69 v 590.59 c 0,187.76 27.3,374.53 80.82,554.51 23.01,77.37 46,153.67 61.48,202.55 43.71,134.68 67.4,269.36 65.69,404.05 -0.22,134.67 -26.74,269.36 -73.26,404.04" /><path
         id="path30"
         style="fill:#100f0d;fill-opacity:1;fill-rule:nonzero;stroke:none"
         d="m 4847.7,4678.13 c -7.61,22.54 -16.45,49.04 -25.89,77.55 -72.19,218.06 -108.84,446.31 -108.84,676.01 v 602.69 c 0,53.39 -43.27,96.69 -96.68,96.69 -53.41,0 -96.68,-43.3 -96.68,-96.69 v -602.69 c 0,-229.7 -36.65,-457.95 -108.84,-676.01 -9.44,-28.51 -18.28,-55.01 -25.88,-77.55 -46.53,-134.68 -73.05,-269.37 -73.27,-404.04 -1.7,-134.69 21.99,-269.37 65.7,-404.05 15.48,-48.88 38.46,-125.18 61.47,-202.55 53.53,-179.98 80.82,-366.75 80.82,-554.51 v -590.59 c 0,-53.4 43.27,-96.69 96.68,-96.69 53.41,0 96.68,43.29 96.68,96.69 v 590.59 c 0,187.76 27.3,374.53 80.82,554.51 23.01,77.37 46,153.67 61.48,202.55 43.71,134.68 67.4,269.36 65.69,404.05 -0.21,134.67 -26.74,269.36 -73.26,404.04" /><path
         id="path32"
         style="fill:#100f0d;fill-opacity:1;fill-rule:nonzero;stroke:none"
         d="m 2452.5,3815.55 v 459.2 h -0.01 v 443.07 c 4.35,109.06 57.71,214.28 125.93,304.9 124.76,165.75 123.2,390.67 -1.66,556.34 -67.34,89.36 -119.81,197.53 -124.26,318.81 v 451.67 0 62.57 c 0,52.36 -39.23,99.29 -91.52,102 -55.76,2.9 -101.84,-41.45 -101.84,-96.56 v -100.75 0 -402.75 c -0.04,-127.92 -54.76,-241.64 -125.11,-334.99 -124.86,-165.67 -126.42,-390.59 -1.66,-556.34 71.17,-94.54 126.77,-204.92 126.77,-319.02 v -429.62 h 0.01 v -444.19 h -0.01 c 0,-114.1 -55.6,-224.48 -126.77,-319.03 -124.76,-165.74 -123.2,-390.66 1.66,-556.33 70.35,-93.34 125.07,-207.07 125.11,-334.99 v -393.27 0 -89.55 c 0,-52.36 39.23,-99.28 91.52,-102 55.76,-2.89 101.84,41.46 101.84,96.56 v 127.74 c 0,-0.01 0,0 0,-0.01 v 376.71 c 4.45,121.28 56.92,229.45 124.26,318.81 124.86,165.67 126.42,390.59 1.66,556.33 -68.17,90.57 -121.5,195.7 -125.92,304.69" /><path
         id="path34"
         style="fill:#100f0d;fill-opacity:1;fill-rule:nonzero;stroke:none"
         d="m 4052.31,3815.55 v 459.2 h -0.01 v 443.07 c 4.35,109.06 57.7,214.28 125.93,304.9 124.76,165.75 123.2,390.67 -1.66,556.34 -67.35,89.36 -119.82,197.53 -124.26,318.81 v 424.68 0 89.56 c 0,52.36 -39.23,99.29 -91.53,102 -55.75,2.9 -101.83,-41.45 -101.83,-96.56 v -127.73 c 0,0 0,0 -0.01,0 v -375.77 c -0.03,-127.92 -54.75,-241.64 -125.11,-334.99 -124.85,-165.67 -126.41,-390.59 -1.66,-556.34 71.17,-94.54 126.77,-204.92 126.77,-319.02 v -429.62 h 0.02 v -444.19 h -0.02 c 0,-114.1 -55.6,-224.48 -126.77,-319.03 -124.75,-165.74 -123.19,-390.66 1.66,-556.33 70.36,-93.34 125.08,-207.07 125.11,-334.99 v -393.27 h 0.01 v -89.55 c 0,-52.36 39.23,-99.28 91.52,-102 55.75,-2.89 101.83,41.46 101.83,96.56 v 127.74 c 0.01,-0.01 0.01,0 0.01,-0.01 v 376.71 c 4.44,121.28 56.91,229.45 124.26,318.81 124.86,165.67 126.42,390.59 1.66,556.33 -68.18,90.57 -121.51,195.7 -125.92,304.69" /><path
         id="path36"
         style="fill:#100f0d;fill-opacity:1;fill-rule:nonzero;stroke:none"
         d="m 3408.52,3056.94 c -28.12,34.02 -61.3,68.04 -90.43,102.05 -28.76,34.02 -49.86,68.04 -59.26,102.05 -0.66,2.26 -1.33,4.97 -1.96,7.85 -3.26,14.74 -4.68,29.68 -4.68,44.63 v 1308.42 h -0.01 v 402.2 c 0,0.02 0.01,0.04 0.01,0.05 v 216.58 c 0,14.98 1.42,29.96 4.68,44.73 0.63,2.89 1.3,5.61 1.97,7.87 9.39,34.02 30.49,68.03 59.25,102.05 29.13,34.01 62.31,68.03 90.43,102.05 27.99,34.01 46.14,68.03 52.54,102.05 1.77,9.3 2.56,18.6 2.65,27.9 -0.09,9.3 -0.88,18.61 -2.65,27.9 -6.4,34.02 -24.56,68.04 -52.54,102.06 -28.12,34.01 -61.3,68.03 -90.43,102.05 -28.76,34.01 -49.86,68.03 -59.26,102.05 -0.66,2.25 -1.33,4.96 -1.96,7.85 -3.26,14.73 -4.68,29.67 -4.68,44.62 v 288.37 87.69 67.45 0 89.56 c 0,52.36 -39.23,99.28 -91.52,102 -55.76,2.89 -101.83,-41.45 -101.83,-96.56 v -127.73 c -0.01,0 -0.01,0 -0.01,0 v -34.72 -87.69 -242.48 0 -45.77 c 0,-14.98 -1.41,-29.95 -4.67,-44.73 -0.64,-2.89 -1.31,-5.61 -1.98,-7.86 -9.38,-34.02 -30.49,-68.04 -59.25,-102.05 -29.13,-34.02 -62.32,-68.04 -90.43,-102.05 -27.98,-34.02 -46.14,-68.04 -52.54,-102.06 -1.77,-9.29 -2.55,-18.6 -2.65,-27.9 0.09,-9.3 0.88,-18.6 2.65,-27.9 6.4,-34.02 24.56,-68.04 52.54,-102.05 28.12,-34.02 61.3,-68.04 90.43,-102.05 28.76,-34.02 49.87,-68.03 59.26,-102.05 0.66,-2.26 1.33,-4.96 1.97,-7.85 3.26,-14.74 4.67,-29.68 4.67,-44.63 v -619.46 h 0.01 v -1227.4 c 0,4.98 0,12.42 -0.01,14.95 v -95.34 c 0,-14.98 -1.41,-29.96 -4.67,-44.73 -0.64,-2.89 -1.31,-5.6 -1.98,-7.87 -9.38,-34.01 -30.49,-68.03 -59.25,-102.05 -29.13,-34.01 -62.32,-68.03 -90.43,-102.05 -27.98,-34.01 -46.14,-68.03 -52.54,-102.04 -1.77,-9.31 -2.55,-18.61 -2.65,-27.91 0.09,-9.3 0.88,-18.6 2.65,-27.9 6.4,-34.02 24.56,-68.03 52.54,-102.05 28.12,-34.02 61.3,-68.04 90.43,-102.05 28.76,-34.02 49.87,-68.03 59.26,-102.06 0.66,-2.25 1.33,-4.96 1.97,-7.85 3.26,-14.73 4.67,-29.67 4.67,-44.62 v -355 -58.45 -35.64 0 -89.55 c 0,-52.36 39.23,-99.29 91.52,-102 55.76,-2.9 101.84,41.44 101.84,96.55 v 127.74 0 2.9 58.45 309.12 0 45.76 c 0,14.99 1.42,29.96 4.68,44.73 0.63,2.89 1.3,5.61 1.97,7.86 9.39,34.03 30.49,68.04 59.25,102.06 29.13,34.01 62.31,68.03 90.43,102.05 27.99,34.02 46.14,68.03 52.54,102.05 1.77,9.3 2.56,18.6 2.65,27.9 -0.09,9.3 -0.88,18.6 -2.65,27.91 -6.4,34.01 -24.56,68.03 -52.54,102.04" /></g></g></svg>