<svg height="113.385px"
   width="147.337px" viewBox="0 0 801 533" fill="none" xmlns="http://www.w3.org/2000/svg">
<path fill-rule="evenodd" clip-rule="evenodd" d="M759.899 71.8965C737.751 71.8965 719.797 90.4248 719.797 113.281C719.797 136.138 737.751 154.666 759.899 154.666C782.048 154.666 800.001 136.138 800.001 113.281C800.001 90.4248 782.048 71.8965 759.899 71.8965Z" fill="#FF00CD"/>
<path fill-rule="evenodd" clip-rule="evenodd" d="M639.223 0C621.487 0 607.109 14.8377 607.109 33.1415C607.109 51.4453 621.487 66.2825 639.223 66.2825C656.96 66.2825 671.337 51.4453 671.337 33.1415C671.337 14.8377 656.96 0 639.223 0Z" fill="#FF31D7"/>
<path fill-rule="evenodd" clip-rule="evenodd" d="M489.047 4.29492C477.418 4.29492 467.992 14.0226 467.992 26.0232C467.992 38.0237 477.418 47.7515 489.047 47.7515C500.676 47.7515 510.102 38.0238 510.102 26.0232C510.102 14.0227 500.676 4.29492 489.047 4.29492Z" fill="#FF79E5"/>
<path fill-rule="evenodd" clip-rule="evenodd" d="M368.559 40.0781C358.939 40.0781 351.141 48.1255 351.141 58.0534C351.141 67.9809 358.939 76.0282 368.559 76.0282C378.179 76.0282 385.977 67.9808 385.977 58.0534C385.977 48.1255 378.179 40.0781 368.559 40.0781Z" fill="#FFB0F0"/>
<path d="M359.816 182.948C367.149 182.948 373.298 185.623 378.262 190.975C383.448 196.403 386.039 202.824 386.039 210.24V413.822C386.039 421.467 383.448 427.811 378.262 432.933C373.298 438.284 367.149 440.961 359.816 440.961H359.372C352.112 440.961 345.889 438.284 340.703 432.933C335.517 427.811 332.852 421.466 332.852 413.822V210.24C332.852 202.824 335.517 196.403 340.703 190.975C345.889 185.623 352.112 182.948 359.372 182.948H359.816Z" fill="#484F6E"/>
<path d="M562.626 385.61C582.478 385.61 599.442 378.423 613.443 363.898C627.444 349.45 634.481 331.943 634.481 311.532C634.481 290.891 627.444 273.385 613.443 258.86C599.591 244.565 582.627 237.378 562.626 237.378C542.699 237.378 525.661 244.565 511.66 258.86C497.808 273.385 490.844 290.892 490.844 311.532C490.844 331.943 497.808 349.45 511.66 363.898C525.661 378.423 542.699 385.61 562.626 385.61ZM463.88 533C456.843 533 450.694 530.324 445.435 524.973C440.249 519.545 437.656 513.2 437.656 505.937V311.533C437.805 275.831 450.101 245.482 474.547 220.56C498.845 195.486 528.253 182.948 562.625 182.948C597.072 182.948 626.555 195.562 651 220.789C675.446 246.017 687.669 276.443 687.669 311.914C687.669 347.462 675.446 377.889 651 403.116C626.555 428.343 597.072 440.957 562.625 440.957C531.142 440.957 507.141 433.465 490.844 418.558V505.937C490.844 513.199 488.252 519.545 482.992 524.973C477.806 530.324 471.658 532.999 464.546 532.999H463.88L463.88 533Z" fill="#484F6E"/>
<path d="M759.519 182.948C766.853 182.948 773.001 185.623 777.965 190.975C783.151 196.403 785.743 202.824 785.743 210.24V413.822C785.743 421.467 783.151 427.811 777.965 432.933C773.001 438.284 766.853 440.961 759.519 440.961H759.075C751.815 440.961 745.592 438.284 740.406 432.933C735.221 427.811 732.555 421.466 732.555 413.822V210.24C732.555 202.824 735.221 196.403 740.406 190.975C745.592 185.623 751.815 182.948 759.075 182.948H759.519Z" fill="#484F6E"/>
<path fill-rule="evenodd" clip-rule="evenodd" d="M38.4539 103.9H267.045C282.393 103.9 294.907 119.615 295.27 134.594C295.439 141.612 293.028 148.699 287.997 154.158L77.9076 387.06H259.059C273.12 387.06 284.623 398.931 284.623 413.441C284.623 427.951 273.12 439.823 259.059 439.823H30.4679C13.9936 439.823 0.374848 419.745 0.00838521 404.509C-0.16153 397.492 2.25048 390.404 7.28056 384.945L213.202 156.664H38.4529C24.3917 156.664 12.8887 144.792 12.8887 130.282C12.8887 115.772 24.3916 103.901 38.4529 103.901L38.4539 103.9Z" fill="#484F6E"/>
</svg>
