<?xml version="1.0" encoding="utf-8"?>
<!-- Generator: Adobe Illustrator 25.3.1, SVG Export Plug-In . SVG Version: 6.00 Build 0)  -->
<svg version="1.1" xmlns="http://www.w3.org/2000/svg" xmlns:xlink="http://www.w3.org/1999/xlink" x="0px" y="0px"
	 viewBox="0 0 512 512" style="enable-background:new 0 0 512 512;" xml:space="preserve">
<style type="text/css">
	.st0{display:none;}
	.st1{display:inline;}
</style>
<g id="Layer_1" class="st0">
	<g transform="translate(0.000000,512.000000) scale(0.100000,-0.100000)" class="st1">
		<path d="M2299.9,4992.7c-492-61-947-283-1295-630c-370-370-598-865-640-1387l-7-87l-58-35c-116-72-207-201-236-335
			c-20-95-20-698,1-794c40-192,205-359,392-398c179-37,334,29,411,176l27,50v570v570l-27,50c-28,54-96,123-145,149
			c-17,8-51,20-77,27l-47,12l6,46c41,315,87,475,206,713c279,557,811,948,1435,1054c128,21,378,29,509,15c602-65,1121-381,1447-881
			c157-240,263-522,298-790c23-178,26-156-27-169c-25-7-59-19-76-27c-49-26-117-95-145-149l-27-50v-570v-570l27-50
			c28-54,96-123,145-149c17-8,51-20,76-27l47-11v-152c0-168-12-235-58-320c-39-72-127-158-200-195c-101-51-163-61-387-61h-200
			l-29,56c-36,68-113,137-186,166c-52,21-71,22-315,22c-250,0-262-1-320-23c-84-34-174-124-204-206c-33-86-27-216,13-293
			c36-71,99-132,172-168l59-29h280h280l57,28c66,32,136,99,169,162l23,43l240,5c270,5,308,11,441,76c145,72,261,187,331,331
			c61,123,67,156,72,387l4,211l57,36c119,73,208,199,237,335c20,94,20,698,0,792c-29,134-120,263-235,334l-58,36l-12,122
			c-45,463-214,864-519,1227c-302,361-759,631-1225,725C2775.9,5008.7,2519.9,5019.7,2299.9,4992.7z M628.9,2661.7l31-26v-513v-512
			l-26-27c-57-56-192-22-272,69c-68,78-72,102-72,470c0,367,4,392,71,469C442.9,2684.7,563.9,2716.7,628.9,2661.7z M4676.9,2659.7
			c57-30,120-105,138-165c12-40,15-116,15-372c0-368-4-392-72-470c-80-91-215-125-272-69l-26,27v512v512l28,28c25,25,32,27,87,22
			C4607.9,2682.7,4653.9,2670.7,4676.9,2659.7z M3415.9,553.7c28-28,34-42,34-75c0-53-22-97-60-116c-42-21-447-22-489-1
			c-41,22-61,59-61,112c0,39,5,51,34,80l34,34h237h237L3415.9,553.7z"/>
		<path d="M1714.9,3837.7c-200-27-361-167-422-365c-17-55-18-106-18-655c0-588,0-596,22-666c60-189,220-326,416-355l77-11v-142
			c0-168,14-228,66-286c73-80,190-106,284-62c31,14,122,96,285,256l240,236h345c190,0,374,5,410,10c78,12,188,65,252,120
			s124,148,151,234c22,70,22,78,22,666c0,549-1,600-18,655c-51,166-173,293-336,347l-66,23l-825,1
			C2145.9,3844.7,1747.9,3841.7,1714.9,3837.7z M3439.9,3581.7c67-31,106-68,137-132l28-57v-575c0-562,0-576-21-620
			c-30-65-69-107-128-138l-51-27l-421-5l-421-5l-258-252c-141-139-261-253-266-253s-9,95-9,210c0,291-2,294-200,302
			c-92,4-123,9-156,26c-66,34-101,69-131,130l-28,57v570c0,443,3,578,13,607c32,89,112,159,203,177c24,5,409,8,854,8
			C3383.9,3602.7,3395.9,3602.7,3439.9,3581.7z"/>
		<path d="M1927.9,2967.7c-72-22-128-96-128-170c0-81,65-158,147-175c66-13,155,32,188,96c19,36,19,122,0,158c-20,39-69,78-113,91
			C1979.9,2978.7,1965.9,2978.7,1927.9,2967.7z"/>
		<path d="M2501.9,2963.7c-49-17-98-70-112-121c-35-125,90-252,211-216c97,29,154,126,129,216c-20,73-98,133-170,133
			C2545.9,2975.7,2519.9,2970.7,2501.9,2963.7z"/>
		<path d="M3086.9,2963.7c-45-16-83-49-103-88c-18-35-18-121,1-157c33-64,122-109,188-96c80,17,147,98,147,176
			C3318.9,2915.7,3194.9,3003.7,3086.9,2963.7z"/>
	</g>
</g>
<g id="Layer_2" class="st0">
	<g transform="translate(0.000000,512.000000) scale(0.100000,-0.100000)" class="st1">
		<path d="M2757.8,4904.8c-78-26-149-79-187-141l-31-49h-606c-588,0-607-1-651-21c-60-27-88-54-116-114l-24-50v-1071v-1071l-81-7
			c-195-16-371-76-524-179c-501-335-638-1000-313-1509c103-160,250-289,433-378c198-97,386-133,586-111c270,29,494,137,678,326
			l83,85l1222,2l1223,3l49,30c30,19,60,49,79,79l30,49l3,781l3,781l176,115c125,82,187,129,214,163c155,194,27,487-221,505
			c-59,4-103-3-152-23c-16-7-18,36-20,722l-3,730l-30,49c-19,30-49,60-79,79l-49,30l-617,5l-617,5l-38,50c-51,66-69,81-143,117
			C2951.8,4926.8,2844.8,4933.8,2757.8,4904.8z M3005.8,4771.8c95-56,127-130,127-293c0-105,1-114,22-128c19-14,64-16,285-16h263
			v-150v-150h-830h-830v150v150h268c216,0,272,3,288,14c17,13,20,31,24,143s8,135,30,177c28,55,79,101,136,122
			C2847.8,4812.8,2950.8,4803.8,3005.8,4771.8z M2502.8,4524.8v-70h-270c-328,0-310,7-310-129v-90l-142-3c-129-3-146-5-174-25
			c-67-48-64,5-64-993c0-855-1-902-17-895c-38,14-169,47-212,54l-46,6l-3,1060c-2,797,1,1067,10,1089c6,15,25,37,42,47
			c29,18,61,19,609,19h577V4524.8z M4432.8,4579.8c63-32,60,0,58-821l-3-747l-135-88c-74-48-138-88-142-89c-5,0-8,289-8,643
			c0,709,2,683-63,731c-25,19-46,21-173,24l-144,3v88c0,140,20,131-301,131h-269v70v70h575
			C4322.8,4594.8,4407.8,4592.8,4432.8,4579.8z M1922.8,4034.8c0-134-111-120,954-120h915l15,22c11,16,16,46,16,101v78l128-3l127-3
			l3-681l2-681l-92-60c-394-256-1047-689-1064-706c-30-30-254-459-254-486c0-11,9-30,21-42c20-20,27-21,188-15c91,4,215,9,274,12
			l108,6l252,166c139,91,323,211,410,268l157,103v-139v-140h-151c-183,0-218-9-279-70s-70-96-70-279v-151h-675h-675v99
			c0,352-190,696-492,894l-78,50v922c0,507,3,925,7,928c3,4,62,7,130,7h123V4034.8z M4841.8,2984.8c76-38,118-116,107-198
			c-6-42-40-112-54-112c-4,0-53,71-110,157c-74,114-99,159-90,165C4718.8,3011.8,4802.8,3004.8,4841.8,2984.8z M4616.8,2869.8l36-55
			l-142-94c-79-51-421-276-762-499c-340-224-621-407-625-407c-11,0-72,100-67,109c3,5,277,187,608,404c332,218,671,441,753,495
			c83,55,153,101,156,101C4576.8,2924.8,4596.8,2899.8,4616.8,2869.8z M4756.8,2658.8c21-31,36-57,34-59c-20-17-1507-989-1519-992
			c-11-3-26,12-47,45c-18,27-32,51-32,54s199,136,443,296c243,160,586,385,762,501s320,211,321,211S4736.8,2689.8,4756.8,2658.8z
			 M1082.8,2229.8c0-39,28-75,60-75s60,36,60,76v36l57-7c176-22,355-100,507-219c18-15,18-16-8-46c-31-38-33-63-6-90s52-25,90,6
			c17,15,32,25,34,23c132-166,212-345,232-518l7-61h-37c-40,0-76-28-76-60s36-60,76-60h37l-7-60c-10-88-43-205-81-287
			c-32-68-127-217-147-229c-5-4-19,3-31,14c-35,32-61,35-90,11c-34-26-34-49,0-90l27-32l-29-24c-59-47-137-95-212-130
			c-85-39-245-83-304-83c-36,0-38,1-41,37c-4,49-44,81-79,63c-32-17-39-29-39-67c0-32-2-33-39-33c-107,0-320,78-450,165
			c-96,63-99,68-67,106s33,53,1,85c-29,29-54,26-93-10l-24-21l-25,30c-108,129-193,328-209,490l-7,65h35c47,0,71,20,71,60
			s-24,60-71,60h-35l6,58c9,81,41,197,77,278c30,67,131,227,151,239c5,4,23-5,40-19c44-37,74-34,97,11c14,25,7,49-21,80
			c-11,13-19,24-16,26c2,2,24,19,49,39c51,41,169,106,250,138c58,24,207,58,253,59C1079.8,2264.8,1082.8,2261.8,1082.8,2229.8z
			 M4492.8,1539.8c0-620-2-720-15-745c-33-64,40-60-1234-60h-1160l24,43c34,61,65,141,90,232l22,80l724,5c398,3,726,6,729,8
			c25,12,506,505,516,529s14,84,14,237v204l138,90c75,50,140,91,145,91C4489.8,2254.8,4492.8,1932.8,4492.8,1539.8z M3052.8,1694.8
			c56-84,77-122,67-125c-7-3-74-4-148-3l-136,3l65,123c36,67,66,122,68,122S3008.8,1760.8,3052.8,1694.8z M3857.8,1444.8
			c-171-171-160-171-153-4c2,75,7,96,23,114c30,34,51,39,170,39l110,1L3857.8,1444.8z"/>
		<path d="M1772.8,3964.8c-42-42-15-130,40-130c35,0,60,32,60,77c0,37-29,73-60,73C1801.8,3984.8,1783.8,3975.8,1772.8,3964.8z"/>
		<path d="M1769.8,3736.8c-15-17-17-64-17-468c0-496,0-494,60-494s60-2,60,496c0,424-1,452-18,467
			C1830.8,3759.8,1789.8,3758.8,1769.8,3736.8z"/>
		<path d="M1947.8,3470.8c-11-8-18-26-18-46c0-56,14-60,228-60c173,0,194,2,208,18c22,24,21,65-1,85c-16,15-46,17-208,17
			C2011.8,3484.8,1961.8,3481.8,1947.8,3470.8z"/>
		<path d="M2492.8,3464.8c-11-11-20-29-20-40s9-29,20-40c19-19,33-20,523-20c475,0,505,1,520,18c22,24,21,65-1,85
			c-17,15-67,17-520,17C2525.8,3484.8,2511.8,3483.8,2492.8,3464.8z"/>
		<path d="M3659.8,3466.8c-22-24-21-65,1-85c27-24,123-23,145,1s21,65-1,85C3777.8,3491.8,3681.8,3490.8,3659.8,3466.8z"/>
		<path d="M1947.8,3000.8c-11-8-18-26-18-46c0-62-14-60,543-60c478,0,508,1,523,18c22,24,21,65-1,85c-17,15-68,17-523,17
			C2061.8,3014.8,1962.8,3011.8,1947.8,3000.8z"/>
		<path d="M3092.8,2994.8c-11-11-20-29-20-40s9-29,20-40c18-18,33-20,163-20c161,0,187,8,187,60s-26,60-187,60
			C3125.8,3014.8,3110.8,3012.8,3092.8,2994.8z"/>
		<path d="M3542.8,2994.8c-11-11-20-29-20-40s9-29,20-40c18-18,33-20,133-20c125,0,147,9,147,62c0,48-25,58-148,58
			C3575.8,3014.8,3560.8,3012.8,3542.8,2994.8z"/>
		<path d="M1947.8,2500.8c-11-8-18-26-18-46c0-62-24-60,653-60c585,0,618,1,633,18c22,24,21,65-1,85c-17,15-75,17-633,17
			C2078.8,2514.8,1962.8,2512.8,1947.8,2500.8z"/>
		<path d="M2122.8,2034.8c-11-11-20-29-20-40s9-29,20-40c18-18,33-20,193-20c156,0,176,2,190,18c22,24,21,65-1,85
			c-16,14-45,17-190,17C2155.8,2054.8,2140.8,2052.8,2122.8,2034.8z"/>
		<path d="M993.8,2074.8c-305-64-544-290-622-586c-29-110-29-279,0-389c75-284,273-486,558-571c75-22,107-26,213-26s138,4,213,26
			c267,80,456,261,543,521c38,117,45,305,15,425c-71,282-268,492-546,580C1288.8,2079.8,1073.8,2091.8,993.8,2074.8z M1304.8,1945.8
			c233-60,403-222,484-461c15-43,19-84,19-195c0-126-3-147-27-213c-39-107-83-177-168-262c-127-128-285-194-465-194
			c-125,0-185,14-304,71c-175,84-308,249-357,443c-34,133-18,303,41,437C656.8,1861.8,994.8,2024.8,1304.8,1945.8z"/>
		<path d="M1099.8,1756.8c-10-10-17-32-17-49c0-24-5-32-25-37c-34-9-93-62-114-105c-26-52-32-96-20-149c22-102,95-165,208-180
			c68-10,96-29,109-77c19-65-31-135-96-135c-57,0-112,59-112,119c0,27-43,55-70,46c-87-28-40-196,72-255c42-22,48-29,48-57
			c0-37,29-73,60-73s60,36,60,74c0,26,5,36,21,41c33,11,98,75,120,118c62,120-13,277-146,307c-114,26-129,33-148,72
			c-16,32-17,43-7,73c15,47,53,75,101,75c52,0,87-32,103-95c14-58,46-77,91-57c22,10,25,18,25,59c0,82-69,182-137,199
			c-18,5-23,13-23,39C1202.8,1766.8,1136.8,1797.8,1099.8,1756.8z"/>
	</g>
</g>
<g id="Layer_3">
	<g transform="translate(0.000000,512.000000) scale(0.100000,-0.100000)">
		<path d="M1153.5,5018.9c-21-5-61-20-88-34c-411-206-645-503-740-938c-20-91-23-130-22-357c0-218,3-274,22-385
			c186-1084,970-2356,1792-2910c464-313,916-384,1344-213c187,76,342,179,406,273c66,96,90,260,54,371c-22,67-379,685-428,740
			c-86,99-192,147-326,147c-107-1-147-14-308-107c-162-93-183-100-262-99c-124,2-174,38-342,249c-313,394-577,863-742,1317
			c-95,261-55,357,209,507c147,84,215,145,257,232c58,117,63,258,13,365c-14,32-103,192-198,357c-183,318-237,391-324,439
			C1375.5,5023.9,1252.5,5041.9,1153.5,5018.9z M1380.5,4860.9c24-12,60-38,80-58c40-39,390-638,414-706c20-56,12-159-15-213
			c-37-73-71-103-220-190c-169-100-229-155-275-252c-30-63-32-74-32-177c1-119,6-138,100-376c51-129,218-470,295-604
			c190-331,494-741,619-835c73-55,150-82,241-83c109-2,161,15,325,108c167,95,225,113,306,96c67-15,117-42,161-88
			c34-36,344-560,394-668c49-105,24-244-59-328c-43-43-204-135-309-176c-146-59-236-75-408-75c-166-1-214,7-370,56
			c-470,149-987,617-1445,1308c-361,545-619,1162-716,1715c-30,167-38,492-16,631c52,326,186,565,422,754c84,66,220,148,290,173
			C1226.5,4895.9,1319.5,4890.9,1380.5,4860.9z"/>
		<path d="M3342.5,4603.9c-95-15-200-40-275-66c-323-114-581-340-738-646c-100-193-143-378-143-605c1-350,123-652,366-906
			c194-202,435-333,712-387c116-23,345-24,468-1c544,99,982,540,1070,1077c19,122,19,332,0,446c-63,359-275,682-580,879
			c-143,94-282,152-451,190C3703.5,4600.9,3406.5,4612.9,3342.5,4603.9z M3688.5,4455.9c472-77,835-412,962-890c19-70,22-107,21-276
			c0-180-2-203-27-295c-32-117-125-313-191-400c-406-535-1140-640-1669-237c-398,303-561,849-395,1320c63,179,147,312,282,447
			c175,175,388,286,630,330C3397.5,4472.9,3583.5,4472.9,3688.5,4455.9z"/>
		<path d="M3370.5,4338.9c-223-29-431-129-595-287c-146-141-243-305-295-500c-23-84-26-118-27-257c-1-137,3-173,23-249
			c127-484,537-806,1025-806c288,0,537,103,742,306c364,359,416,926,123,1349c-65,95-205,229-303,290
			C3853.5,4314.9,3607.5,4369.9,3370.5,4338.9z M3720.5,4180.9c278-72,514-272,622-529c56-134,70-210,69-367c-1-164-20-250-85-384
			c-117-246-330-422-603-498c-88-25-356-24-446,1c-322,89-558,320-657,643c-24,79-26,103-26,243c0,183,17,262,88,405
			c134,271,400,464,696,505C3467.5,4211.9,3632.5,4202.9,3720.5,4180.9z"/>
		<path d="M3456.5,4100.9c-19-16-23-28-23-76s4-60,23-76c30-25,66-24,91,1c30,30,29,133-2,154
			C3515.5,4124.9,3484.5,4123.9,3456.5,4100.9z"/>
		<path d="M2923.5,3878.9c-49-38-20-118,54-149c28-11,34-11,58,7c19,14,28,31,30,55c3,30-3,40-38,71
			C2981.5,3904.9,2960.5,3907.9,2923.5,3878.9z"/>
		<path d="M3977.5,3862.9c-35-31-41-41-38-71c2-24,11-41,30-55c24-18,30-18,58-7c74,31,103,111,54,149
			C4044.5,3907.9,4023.5,3904.9,3977.5,3862.9z"/>
		<path d="M3456.5,3770.9c-23-19-24-24-27-197c-3-158-6-181-23-206c-41-57-33-124,21-173c17-15,37-20,84-21c55-1,70-6,148-53
			c47-28,97-51,110-51c31,0,68,39,68,71s-26,55-124,110c-57,32-82,52-92,74c-7,17-22,41-33,54c-20,22-21,36-21,198
			c0,160-2,175-20,193C3522.5,3794.9,3486.5,3795.9,3456.5,3770.9z"/>
		<path d="M2697.5,3339.9c-11-11-20-33-20-49c0-76,139-100,175-30c16,29,12,53-13,82C2817.5,3367.9,2724.5,3366.9,2697.5,3339.9z"/>
		<path d="M4157.5,3332.9c-15-19-19-35-15-53c10-39,29-52,82-57c60-6,103,22,103,68s-31,69-94,69
			C4186.5,3359.9,4176.5,3355.9,4157.5,3332.9z"/>
		<path d="M2936.5,2820.9c-44-44-50-80-19-111s76-26,116,14s45,85,14,116S2980.5,2864.9,2936.5,2820.9z"/>
		<path d="M3959.5,2843.9c-35-24-30-78,12-120c40-40,85-45,116-14s25,67-19,111C4026.5,2862.9,3996.5,2869.9,3959.5,2843.9z"/>
		<path d="M3451.5,2628.9c-28-31-26-111,3-140c26-26,67-28,93-4c28,25,28,124,2,148S3474.5,2653.9,3451.5,2628.9z"/>
	</g>
</g>
</svg>
