<svg id="Layer_1" data-name="Layer 1" xmlns="http://www.w3.org/2000/svg" xmlns:xlink="http://www.w3.org/1999/xlink" viewBox="0 0 612 612"><defs><style>.cls-1{fill-rule:evenodd;fill:url(#linear-gradient);}</style><linearGradient id="linear-gradient" x1="440.84" y1="509.49" x2="205.99" y2="102.72" gradientTransform="matrix(1, 0, 0, -1, 0, 612)" gradientUnits="userSpaceOnUse"><stop offset="0" stop-color="#30439b"/><stop offset="0.5" stop-color="#53c6d5"/><stop offset="1" stop-color="#f3722b"/></linearGradient></defs><g id="Layer_9" data-name="Layer 9"><path class="cls-1" d="M540.4,272.5c-7.6-6.1-15.8-10.7-25.2-15.1.3-18.4,2-38.6-1.7-55.4-14.7-68.1-67.2-117.2-150-116.6-4.5.2-9,.5-13.4.7-9.1,1.5-17.8,2.5-25.9,5-29,9-52.9,25.6-69.8,46.8-5.8,7.2-14.2,15.2-17.5,24.5-2.8,1-10-1.5-13.7-2.2-10-1.8-24.2-1.3-33.4.7-38.8,8.5-61.1,30.7-74.4,64.8-3.4,8.8-6.5,20.1-6.5,31.7-37,8.4-77.2,47.7-64.3,98.4a71.67,71.67,0,0,0,7,18.5c17.7,30.3,43.1,40.1,91.2,40.1H187c6.1,0,14.8,1,18.7-1.4,7.4-4.5,4.8-16.5-3.1-18.5-11.1-.1-22.2-.2-33.4-.2-34.4,0-64.2,2.4-84.5-12-16.9-11.9-29.1-40.1-17.8-66.7,9.5-22.3,30.4-40.6,61.9-40.6V257.5c1.6-9.5,2.5-18.3,5.5-26.2,11.8-30.2,44.5-60.7,91.2-50.4a138.23,138.23,0,0,1,20.9,6.5c1.4-3,2.9-6.1,4.3-9.1,3.3-5.4,6.6-10.9,9.8-16.3,14.4-20.5,33.8-37.4,58.3-47.8,8.3-3.5,17.5-5.5,27.4-7.4,19-3.8,42.1-.1,57.4,4.1,47.2,13,76.9,41.3,89,89,2.8,10.9,5.7,33.6,3.4,47.5-1,8-1.9,16-2.9,24,4.9,1.5,9.8,3,14.6,4.6a71.11,71.11,0,0,1,34.8,30.7c20,34.2-3.3,71.8-30.2,82.3-5.5,2.2-11,2.2-18,3.4H482.1c-14.6.2-29.1.5-43.7.7-7.1.1-14.2.2-21.4.2-8.7,1.6-12.4,13.7-4.3,18.7,4.1,2.5,12.4,1.2,18.7,1.2,15-.2,30.1-.5,45.1-.7,8.7-.2,17.4-.3,26.2-.5,24.2-4.3,41-15.9,52.8-32.6a79.16,79.16,0,0,0,11-22.6C577.5,322,559.4,287.6,540.4,272.5Zm.5,117.4a94.22,94.22,0,0,1-25.4,14.6c-5.5,2.1-11.4,2.8-18,3.8-3.6.1-7.2.2-10.8.2H472.3c-11.1.2-22.2.3-33.4.5-11.6,0-23.4,3.5-26.9-5.8,3.4-9,16.8-6.5,28.6-6.5,14.5-.2,29-.5,43.4-.7h12.2c7.1-1.1,12.5-1.2,18-3.4,24.7-9.7,48.3-40.5,36.7-77.5-6.7-21.4-29.1-43.1-53.3-46.8.8-7.9,1.6-15.8,2.4-23.8V233.9c0-13-1-24.7-3.6-35-10.2-40.8-34.4-71.2-70.3-85.9-10.4-4.3-22-6.8-33.8-9.4-56-12.3-103,15.7-125.8,44.2-6.5,8.2-19.7,22.8-22.1,34.1a119.27,119.27,0,0,0-21.6-5.8c-18.3-3.4-37.6,1.2-49.7,6.5-31.2,13.6-48.9,42.6-48.2,88.3-6.8,1.9-14,1.7-20.2,3.6C88,279.9,75.2,292,66.9,305.9a64.21,64.21,0,0,0-7,17.8C51.6,357.3,72.7,383,93.5,392c22.3,9.7,60.7,6,92.2,6,8,0,20.8-1.8,20.4,6.5a6.49,6.49,0,0,1-2.4,4.6c-3.8,2.5-12.5,1.4-18.5,1.4H141.3c-43.9,0-69.9-10.8-85.9-38.2-3.1-5.3-5.3-12-7-18.5-12-47.2,27-85.1,62.4-92.6,2.9-3.8,2.3-10.9,3.6-16.6a148.45,148.45,0,0,1,8.9-27.8c10.8-24.4,32-41.8,59-49.9,6.6-2,13.6-2.4,21.1-3.6,13.3-2.1,23.1,3.3,34.6,3.4,5.2-3.9,9.8-14.2,13.9-19.7a150.89,150.89,0,0,1,32.9-31.9c13.6-9.6,29.3-16.8,47.5-21.8,5.8-1,11.7-2.1,17.5-3.1,2.8-.2,5.6-.5,8.4-.7,88.2-.1,136,44.4,151.9,117.1,3.6,16.4,1.4,35,1.2,52.8,5,3.8,11.6,6.2,17,9.6,12.6,7.9,21.3,18.7,28.8,31.7,3.1,5.3,5,11.9,6.7,18.2C571.6,346.7,555.6,378.1,540.9,389.9ZM454,242.5c2.4,3.7,9.7,6.1,14.4,2.6,10.5-7.7.3-44.7-3.1-53-12.9-31.3-37.9-48.4-71.8-58.8-9.1-2.8-19.8-5.8-31.4-5.5-1.4.6-2.7,1.1-4.1,1.7-4.4,3.1-5.7,12-1,15.8,4.5,3.6,24.9,5,31.9,7.2,21.9,6.8,41,17.9,52.1,35.5,5.4,8.6,8.6,18.3,10.8,30.2C453.1,225.1,450.7,237.4,454,242.5Zm-22.8-72.2c-13.5-10.9-28.2-18.3-47.8-23.5-9.4-2.5-22.4-.1-25.7-9.1,2.1-3.7,2.4-4,6.2-6l9.6,1.2c6.9,1.6,13.8,3.2,20.6,4.8,31.6,9.8,56.2,27.5,67.7,57.6a98.93,98.93,0,0,1,6.7,31.2c.2,5.3.6,12.5-2.2,14.9-3.8,3.3-8.7.3-9.8-3.4-1.8-5.8,0-17-1.2-23.3C451.7,195.7,443.8,180.4,431.2,170.3Zm-37.7,82.3c-8.3-10.9-25.5-8.4-44.2-8.4H239.5c-9.1,4-14,4-18,13.4-3.7,8.6-1.7,25.1-1.7,36.5v185c0,17.7-1.8,35,8.2,42.7,7,5.5,18.7,4.8,31.4,4.8H364.8c8,0,16.5.5,21.6-2.4,16-9.2,11.8-32.8,11.8-57.1V313.8C398.1,295.7,401.4,262.9,393.5,252.6Zm-9.1,267.8c-5.7,3.3-16.1,2.4-25,2.4H260.8c-12.7,0-24,.6-31-4.8-8.3-6.5-6.2-24.9-6.2-39.6v-186c0-12.2-1.6-28,3.1-35.8,3.4-5.7,8.1-5.8,14.6-8.6H349.1c15.3,0,33.8-2.2,40.6,6.5,7.6,9.8,4.6,40.2,4.6,57.6V460.2C394.3,482.3,398.8,512.1,384.4,520.4ZM382,275.6c0-5.8,1-12.6-2.6-14.9-2-1.3-7.6-.5-10.6-.5H239.7c-1.2,1-2.4,2.1-3.6,3.1V507.1c1,1,1.9,2.1,2.9,3.1H346c7.4,0,32.7,1.6,35.3-2.2,1.8-2.6.7-10.2.7-14.2Zm-4.5,230.7q-68.25.15-136.6.2c-2.3-3.5-1-13.2-1-18.5V265.3c.6-.4,1.1-.8,1.7-1.2H365.9c3.8,0,9.1-.5,11.8.7,1.2,5.2.5,12.9.5,19V491.6C378.2,494.9,379.4,504.6,377.5,506.3Zm-131.6-211c2.2,1.5,32.1,2.1,36,.7a6.42,6.42,0,0,0,3.6-3.8,5.65,5.65,0,0,0-3.6-6.7c-11-.1-22.1-.2-33.1-.2C245.1,286.9,240.6,291.6,245.9,295.3Zm2.4-5.5c.8-.2,1.6-.5,2.4-.7,8,0,24.7-1.7,30.5,1l.2.7c-1.3,2-29.4,2.8-32.6,1-.2-.2-.5-.3-.7-.5A8.87,8.87,0,0,0,248.3,289.8Zm85,5.7c1.8,1,32.3,1.4,35.5.5a6.1,6.1,0,0,0,3.6-3.6,5.82,5.82,0,0,0-2.9-6.7c-4.3-1.9-27.2-.6-33.8-.5C331.6,287.1,327.6,292.2,333.3,295.5Zm1.9-5.7c.8-.2,1.6-.5,2.4-.7,5.9,0,26.6-1.2,30,.7.2.2.5.3.7.5a7.84,7.84,0,0,0-.2,1.4c-4.5,1.1-28.6,2.1-32.4,0-.7-.5-.6-.4-.7-1.4C335.1,290.1,335.1,289.9,335.2,289.8Zm-41.7,6c2.5,1.2,27,1.2,29.5,0a5.88,5.88,0,0,0,2.6-3.8c.6-2.9-1.2-5.6-2.9-6.2-9.4-.1-18.9-.2-28.3-.2C291.4,287.3,288.6,293.5,293.5,295.8Zm2.8-6.5c8.2.1,16.3.2,24.5.2.2.4.5.8.7,1.2-.2.4-.3.8-.5,1.2-6.5,1-20,2-25.9-.2a7.84,7.84,0,0,1-.2-1.4C295.4,289.9,295.9,289.6,296.3,289.3ZM281.9,315a6.16,6.16,0,0,0,3.6-3.8,5.75,5.75,0,0,0-3.1-6.5c-11.6-.1-23.2-.2-34.8-.2-3,1.9-6,6.9-1.7,9.8C248.1,315.8,278,316.3,281.9,315Zm-32.4-6.7c5.5,0,27.8-1.2,31,.5.7.4.6.3,1,1a1.85,1.85,0,0,0-.2.7c-3.7,2-29.3,1.8-33.1,0C248.3,308.7,248.5,309,249.5,308.3Zm44.9,6.7c3.5.1,7,.2,10.6.2,9.1,0,32.9,2.5,34.6-4.3,1.5-6.2-5.1-6.5-10.3-6.5H295.2C291.1,306.8,288.1,312.7,294.4,315Zm.7-5.8a17.38,17.38,0,0,0,1.9-1c12.1,0,26.4-1.4,37.7.5.2.4.3.8.5,1.2a1.85,1.85,0,0,0-.2.7c-5,1.4-35.8,1.7-39.8-.2v-1.2Zm-48.9,25.2c2,1.3,6.9.7,10.1.7,8.4,0,27.6,2.3,29.3-4.1a5.52,5.52,0,0,0-3.4-6.5c-11.4-.1-22.7-.2-34.1-.2C244.6,326.2,241.5,331.3,246.2,334.4Zm3.8-6.2c5.3,0,28.2-1,30.7.7.5.3.4.3.7.7a1.85,1.85,0,0,0-.2.7c-3.7,2.1-27.6,1.7-32.6.5l-.5-.5a1.85,1.85,0,0,1-.2-.7C248.6,329.1,249.3,328.7,250,328.2Zm43.7,6.7c9.4.1,18.7.2,28.1.2a6.16,6.16,0,0,0,3.6-3.1c4-11.1-21.5-7.9-30.2-7.7C291.3,326.2,287.9,332.5,293.7,334.9Zm1.4-5.5c.5-.8,1.1-.7,1.9-1.2,5.1-.1,23-1.1,24.5,1.7a9.29,9.29,0,0,0-.5,1c-3.4.9-22.6,1.6-25.4,0-.5-.3-.1,0-.5-.5Zm74.7-4.6c-3.5-1.8-28.7-.6-34.8-.5-2.6,1.3-6,4.1-3.6,7.9a5.48,5.48,0,0,0,3.4,2.9c11.5-.1,23-.2,34.6-.2a5.85,5.85,0,0,0,3.1-3.6A6,6,0,0,0,369.8,324.8Zm-1.9,6c-5.7,1.3-26.7,1.4-32.4,0-.2-.5-.3-1-.5-1.4.6-.4,1.3-.8,1.9-1.2,8.4,0,24.6-1.8,31.2.7a5,5,0,0,1,.2,1.2C368.2,330.3,368,330.6,367.9,330.8Zm-49.5,20.4c1.8-6.9-5.2-6.7-10.8-6.7H272.3c-3.5,2.1-6.4,8-1,10.3,3.6.1,7.2.2,10.8.2C290.9,355.1,316.8,357.4,318.4,351.2Zm-45.1-.5c-.7-.4-.6-.3-1-1a6.69,6.69,0,0,1,1.9-1.4h27.6c3.3,0,9.1-.8,11.5.5.7.4.6.3,1,1a9.29,9.29,0,0,0-.5,1c-8.3,2-20.3.5-29.5.5C281.1,351.2,275.6,352,273.3,350.7Zm88.6-6.2H327.8c-3.5,2.2-6.2,8.1-.7,10.3,3.5.1,7,.2,10.6.2,8.5,0,33.2,2.3,34.8-3.8C374.2,344.4,367.4,344.5,361.9,344.5Zm6,6.2c-7.9,1.9-19.5.5-28.3.5-3.1,0-8.4.7-10.6-.5-.7-.4-.6-.3-1-1a9.29,9.29,0,0,0,.5-1c.4-.2.8-.3,1.2-.5,6.5,0,34.1-1.4,37.7.5.7.4.6.3,1,1A9.25,9.25,0,0,0,367.9,350.7Zm-121.2,24c1.7.9,32.7,1.1,35.3.2a5.92,5.92,0,0,0,3.6-3.8,5.75,5.75,0,0,0-3.1-6.5c-11.6-.1-23.2-.2-34.8-.2C244.3,366.5,241.7,372.2,246.7,374.7Zm2.8-6.4c5.5,0,27.8-1.2,31,.5.7.4.6.3,1,1a1.85,1.85,0,0,0-.2.7c-4.6,2.4-26.6,1.5-32.6.5C247.9,369.4,248.3,369.1,249.5,368.3Zm43.5,6.2c2.2,1.4,24.5,1.6,28.6.7,1.5-.3,2.3-1.4,3.4-2.2.5-1.9,1.1-4.2,0-6-2-4.2-23.1-2.8-30.2-2.6C291.7,366.2,288.4,371.7,293,374.5Zm3.6-6.2c5.2,0,20.5-1.4,24,.5,1.1.7.9,1,.5,2.2-6.4,1.5-19.3,1.5-25.7,0l-.5-.5C295.1,368.6,295.4,368.9,296.6,368.3Zm72.7-3.6c-11.6-.1-23.2-.2-34.8-.2-2,1.4-4.5,2.7-3.6,6.2,1.7,7,15.4,4.6,23.8,4.6,4.8-.1,9.6-.2,14.4-.2a6,6,0,0,0,3.4-3.6A5.89,5.89,0,0,0,369.3,364.7Zm-1.2,6c-3.8,1.1-29.4,2-32.4,0-.5-.3-.1,0-.5-.5v-1c.4-.5.8-.6,1.2-1,7.3,0,26.7-1.4,31.7.7v1.8Zm-85.9,13.9c-11.4-.1-22.7-.2-34.1-.2-3.5,1.8-6.6,7-1.9,10.1,2,1.3,6.9.7,10.1.7,8.4,0,27.6,2.3,29.3-4.1A5.56,5.56,0,0,0,282.2,384.6Zm-1,5.7c-3.7,2.1-27.6,1.7-32.6.5l-.5-.5a1.85,1.85,0,0,1-.2-.7,16.44,16.44,0,0,1,2.2-1.4c5.3,0,28.2-1,30.7.7.5.3.4.3.7.7A4.88,4.88,0,0,1,281.2,390.3Zm12.3,4.4c2.2,1.1,6.9.5,9.8.5,8.1,0,28.2,2.2,29.8-3.8a6,6,0,0,0-2.6-6.5c-3.5-1.8-29.3-.6-35.5-.5C291.7,386.3,288.3,392,293.5,394.7Zm3.3-6.5c8.5,0,25.2-1.8,31.9.7v1.2c-1.2,1.8-5.4,1.2-8.4,1.2-7.7,0-17.9,1.3-24.7-.5l-.7-1A4.94,4.94,0,0,1,296.8,388.2Zm45.4-3.9c-3,1.9-6.2,7.6-1.4,10.3,2,1.1,24.7,1.3,28.1.5,1-.7,2.1-1.4,3.1-2.2.4-1.5.9-4.5,0-6C369.9,382.8,349.2,384.2,342.2,384.3Zm25.9,6.5c-6.6,1.6-17.9.9-25,.2a8.65,8.65,0,0,1-.7-1,1.85,1.85,0,0,0,.2-.7c.5-.8.7-.7,1.4-1.2,5.1,0,20.1-1.4,23.5.5C368.7,389.3,368.5,389.7,368.1,390.8Zm-85.4,13.9c-4.1-1.9-27.6-.6-34.1-.5-3.8,1.8-7.5,7.3-2.2,10.3,2,1.2,7,.5,9.8.5,8.1,0,27.7,2.2,29.3-3.8A5.82,5.82,0,0,0,282.7,404.7Zm-1.7,6c-3.2.8-29.9,1.2-32.2,0-.7-.5-.6-.4-.7-1.4.1-.2.2-.3.2-.5.7-.2,1.4-.5,2.2-.7,9.8,0,21.3-.9,30.2.5.2.4.5.8.7,1.2C281.3,410.1,281.1,410.4,281,410.7Zm48-6.2H294.9c-3.4,2.1-6.5,8-1,10.3,3.6.1,7.2.2,10.8.2,9,0,33.3,2.6,34.8-4.3C340.9,404.5,334.3,404.5,329,404.5Zm6,6.2c-8,2-19.6.5-28.6.5-3.1,0-8.4.7-10.6-.5-.2-.2-.5-.3-.7-.5v-1a15.05,15.05,0,0,0,1.7-1c10.7,0,28.7-1.7,37.9.5.2.4.3.8.5,1.2A4.54,4.54,0,0,1,335,410.7Z"/></g></svg>