<svg id="Layer_1" data-name="Layer 1" xmlns="http://www.w3.org/2000/svg" xmlns:xlink="http://www.w3.org/1999/xlink" viewBox="0 0 612 612"><defs><style>.cls-1{fill-rule:evenodd;fill:url(#linear-gradient);}</style><linearGradient id="linear-gradient" x1="440.44" y1="503.43" x2="219.21" y2="120.25" gradientTransform="matrix(1, 0, 0, -1, 0, 612)" gradientUnits="userSpaceOnUse"><stop offset="0" stop-color="#30439b"/><stop offset="0.5" stop-color="#53c6d5"/><stop offset="1" stop-color="#f3722b"/></linearGradient></defs><g id="CloudOps"><path class="cls-1" d="M568,326c-7-31.8-26.7-50.3-53.3-62.6.3-18.4,2-38.6-1.7-55.4C498.3,139.9,445.8,90.8,363,91.4c-4.5.2-9,.5-13.4.7-9.1,1.5-17.8,2.5-25.9,5-29,9-52.9,25.6-69.8,46.8-5.8,7.2-14.2,15.2-17.5,24.5-2.8,1-10-1.5-13.7-2.2-10-1.8-24.2-1.3-33.4.7-38.8,8.5-61.1,30.7-74.4,64.8-3.4,8.8-6.5,20.1-6.5,31.7-32.5,7.4-54.3,28.9-63.6,59.5-2.9,9.7-3.5,24.6-1.2,35.3,7.8,36,30.2,53.1,66.5,60.7a106.06,106.06,0,0,0,34.3.7c4.9-.2,9.8-.5,14.6-.7,8.3-2.9,8.5-15.7.5-19-7.8-3.2-25.7,2-35.3.5-21.8-3.5-37.8-6.2-49-20.2a59.36,59.36,0,0,1-9.8-16.8c-16-44,22.4-82.6,62.9-82.6V263.3c1.6-9.5,2.5-18.3,5.5-26.2,11.8-30.2,44.5-60.7,91.2-50.4a138.23,138.23,0,0,1,20.9,6.5c1.4-3,2.9-6.1,4.3-9.1,3.3-5.4,6.6-10.9,9.8-16.3,14.4-20.5,33.8-37.4,58.3-47.8,8.3-3.5,17.5-5.5,27.4-7.4,19-3.8,42.1-.1,57.4,4.1,47.2,13,76.9,41.3,89,89,2.8,10.9,5.7,33.6,3.4,47.5-1,8-1.9,16-2.9,24,8.2,3.1,16.5,4.8,23.5,8.9,17.5,10.4,39.6,35.4,31.9,66.5a66.09,66.09,0,0,1-6,15.1c-3.7,7-8.8,13.8-14.9,18.5A64,64,0,0,1,500,398l-34.3,1.2c-4.1.7-8.8-.6-12,.7-7.8,3.2-7.8,15.5,0,18.7,4.6,1.9,30.3.5,36.5-.5,8.6-1.3,15.1-.3,22.1-2.4C543.4,406.3,578,371.4,568,326Zm-30.4,72.2c-15,11.4-32,16.3-58.8,16.6-7.4.1-20.2,2.5-25-1-.7-1.4-1.4-2.7-2.2-4.1,1-8.4,7.8-5.4,16.1-6.7l34.3-1.2a63.16,63.16,0,0,0,20.4-7.2c19.3-11.4,40.1-42.3,27.6-74.9-8-20.8-28.2-41.6-52.8-45.4.8-7.9,1.6-15.8,2.4-23.8V239.9c0-13-1-24.7-3.6-35-10.2-40.8-34.4-71.2-70.3-85.9-10.4-4.3-22-6.8-33.8-9.4-56-12.3-103,15.7-125.8,44.2-6.5,8.2-19.7,22.8-22.1,34.1a119.27,119.27,0,0,0-21.6-5.8c-18.3-3.4-37.6,1.2-49.7,6.5-31.2,13.6-48.9,42.6-48.2,88.3-5,.7-9.9,1.4-14.9,2.2a70.14,70.14,0,0,0-23,10.3,71.26,71.26,0,0,0-26.2,36.2c-7.8,25.6,3.4,51.6,17.3,62.6,13.6,10.9,23.4,12.5,44.6,15.8,9.6,1.5,27.6-3.6,35.3-.5a6,6,0,0,1-.5,11.3c-4.9.2-9.8.5-14.6.7a96.53,96.53,0,0,1-31.9-1c-34.1-7-54.4-23.3-62.6-56.2-2.6-10.2-2.2-24.1.7-33.8,9-29.7,29.8-50.8,61.7-57.6,2.9-3.8,2.3-10.9,3.6-16.6a148.45,148.45,0,0,1,8.9-27.8c10.8-24.4,32-41.8,59-49.9,6.6-2,13.6-2.4,21.1-3.6,13.3-2.1,23.1,3.3,34.6,3.4,5.2-3.9,9.8-14.2,13.9-19.7a150.89,150.89,0,0,1,32.9-31.9C298,111.2,313.7,104,331.9,99c5.8-1,11.7-2.1,17.5-3.1,2.8-.2,5.6-.5,8.4-.7,88.2-.1,136,44.4,151.9,117.1,3.6,16.4,1.4,35,1.2,52.8,4.4,3.4,10.2,5.4,15.1,8.4a82.75,82.75,0,0,1,24.5,22.6c6.1,8.6,10.5,18.8,13.4,30.5C571.3,356,553,386.6,537.6,398.2Zm-84-149.7c2.4,3.7,9.7,6.1,14.4,2.6,10.5-7.7.3-44.7-3.1-53-12.9-31.3-37.9-48.4-71.8-58.8-9.1-2.8-19.8-5.8-31.4-5.5-1.4.6-2.7,1.1-4.1,1.7-4.4,3.1-5.7,12-1,15.8,4.5,3.6,24.9,5,31.9,7.2,21.9,6.8,41,17.9,52.1,35.5,5.4,8.6,8.6,18.3,10.8,30.2C452.6,231,450.2,243.3,453.6,248.5Zm-22.8-72.3c-13.5-10.9-28.2-18.3-47.8-23.5-9.4-2.5-22.4-.1-25.7-9.1,2.1-3.7,2.4-4,6.2-6l9.6,1.2c6.9,1.6,13.8,3.2,20.6,4.8,31.6,9.8,56.2,27.5,67.7,57.6a98.93,98.93,0,0,1,6.7,31.2c.2,5.3.6,12.5-2.2,14.9-3.8,3.3-8.7.3-9.8-3.4-1.8-5.8,0-17-1.2-23.3C451.3,201.6,443.3,186.3,430.8,176.2ZM435.1,362c-3.6-5.5-25.6-6.6-34.8-6.7-1.7-3.9-3.4-7.8-5-11.8,4.2-6.4,18.5-19.8,19.2-27.4.7-6.8-10.9-14.8-14.6-18.5-4.5-4.4-15.2-17.3-20.9-19a11,11,0,0,0-7.7,1l-22.1,18.5c-4.2-1.5-8.3-3-12.5-4.6-.2-9.4-1.9-31.2-7.7-34.8-4.4-2.7-15.6-1.3-22.1-1.2-7.1,2.7-19.9-1.7-26.6,1.2-9.6,4-5.5,24.9-8.4,35.8l-12,4.8c-1.4-1.2-2.7-2.4-4.1-3.6-4.4-3.4-17.9-16.8-25-15.4-5.3,1.1-9.3,6.7-12.2,10.3l-18.5,18.5c-2.2,2.4-5.9,5.6-4.8,11,.9,4.1,16.3,22.6,19.7,25.4-1.5,3.9-3,7.8-4.6,11.8-1.6,1.6-6.2,1-8.9,1.4-8.2,1.5-21.3.6-25.4,6.2-2.9,4-2.4,18.1-1.4,24.5,1.2,8-1.9,18.5,1,25,3.2,7.1,25.4,8,35.8,8.2l4.8,12c-3.8,4-17.9,20.6-19,25.7-1.2,5.5,2.5,8.3,4.8,10.6,7.8,7.7,15.5,15.4,23.3,23,2.7,2.2,5.7,6.7,11.5,5.5,9.4-2,16.4-14.8,24.7-18.7,1.8-2.1,9.8,2.7,13.2,3.6.1,8.8,2.1,31.3,7.4,34.6,5.1,3.2,21.3,1.2,29,1.2,6.7,0,17,1.1,21.4-1.7,5.5-3.5,6.6-25.6,6.7-34.8,4-1.7,8-3.4,12-5,5.9,4.3,19.1,17.5,25.7,19,5.6,1.2,8.8-2.5,11-4.8,7.4-7.8,14.9-15.5,22.3-23.3,2.8-2.8,7.2-6,5.8-12-1.6-6.8-15.3-19.2-19.7-25.4,1.5-3.9,3-7.8,4.6-11.8,10.3-3,29.6.2,34.8-7.9,2.8-4.3,1.2-13.8,1.2-20.4C437,384.2,438.2,366.7,435.1,362Zm-4.3,49.7c-3,2.1-25.9,4.4-31.4,4.6-3.2,4.1-6.9,10.7-6.7,17.8,5.7,8,16.3,16.2,19.7,25.7-3.2,8.7-12.1,13.2-17.5,19.9-3.8,4.1-7.7,8.2-11.5,12.2-1.4.6-2.7,1.3-4.1,1.9-5.7-2-22.1-14.5-25.7-19-7.4,0-10,3.6-15.8,4.8-4.8,6.4-1.7,31.2-7,35-4.5,3.2-27.9,1.9-35.8,1.9-4.8,0-9.8.4-11.8-2.4s-4.5-26.2-4.6-31.7c-4-3.1-11.1-6.9-17.8-6.7-5.2,3.9-19.5,18.6-25,19.7-3.9.8-7-4.1-8.9-5.8-6.8-6.6-13.6-13.3-20.4-19.9-1.8-1.7-6.1-4.4-5.3-8.4,1.5-7.2,15.1-17.5,18.5-24.7,2.2-5.7-3.7-11.2-4.6-15.8-6.8-5.1-30.6-1.1-35-7-3.3-4.4-1.9-27.5-1.9-35.5,0-4.4-.4-9.4,1.9-11.5,3.6-3.2,25.5-4.5,32.2-5,3.2-4.1,6.7-10.7,6.5-17.8-4-5.6-18.2-19.1-19.4-24.7-1.1-4.9,11-13.7,13.4-16.8,3.1-3.9,14.2-17,19-18,3.2-.7,5.4,2.4,7,3.6,6.4,5,12.8,10.1,19.2,15.1,7.5,0,10.1-3.3,15.8-4.8,5-6.7,1.9-30.6,6.7-34.8,5.5-4.8,20.8.7,28.3-2.2,5.9-.1,15.7-1.2,19,1.7,2.7,2.3,5,26.6,5,32.4,4.1,3.2,10.8,6.7,18,6.5,5-3.8,19.5-18.4,24.7-19.4,4.4-.8,7.8,4.7,9.8,6.7,6.6,6.6,21.7,18,25,26.4-2.7,7.6-9.3,13.6-13.9,19.7-1.8,2.4-6.5,5-5,10.3,1.6,3.8,3.2,7.5,4.8,11.3,6.5,4.9,31.2,1.7,35,7,4,5.5.7,30.1,2.2,39.4C433.9,406.7,432.5,410.4,430.8,411.7Zm-41.1-42.5c-2.8-1.9-3.2-7.9-4.6-11.3-2.5-5-5-10.1-7.4-15.1-.6-6.9,17.5-17.6,17.5-28.1l-17-17c-11.3.1-17.3,14.5-26.4,17.8-3.9,1.4-8.9-3.3-11.8-4.6-5.3-1.8-10.6-3.7-15.8-5.5-2.9-2.3-4.8-24.2-5-30-3.6-2.7-11.8-2-18.2-1.9-3.1.1-6.2.2-9.4.2-5.3,7.1-.8,24.7-5.8,31.7-2,2.8-8.9,3.4-12.2,4.8-4.4,2.2-8.8,4.5-13.2,6.7-3.6.8-5.9-2.8-7.7-4.1-5.7-4.5-11.4-9-17-13.4h-3.8c-5.7,5.8-11.4,11.5-17,17.3V321c3.6,4.8,17,17.8,18,22.8.8,4-3.8,8.8-5,11.8-1.7,5-3.4,9.9-5,14.9-2.3,3.1-24.1,5.2-30.2,5.3-3.9,5.1-1.8,19.3-1.7,27.6,7.1,5.3,24.7.8,31.7,5.8,2.8,2,3.4,8.9,4.8,12.2,2.3,4.6,4.6,9.3,7,13.9-.1,3.8-14.5,21.3-17.5,23.8v4.3c5.7,5.6,11.4,11.2,17,16.8h4.3c5.5-4.1,16.5-15.9,22.3-17.8,3.7-1.1,8.5,3.3,11.3,4.6,5.4,1.9,10.9,3.8,16.3,5.8,2.8,2.8,4.5,24.1,4.6,30,4.7,3.6,19.8,2,27.6,1.4,5.3-7.1.9-23.8,5.5-31.2,1.9-3,8.8-3.6,12.2-5,4.6-2.3,9.3-4.6,13.9-7,3.1-.5,5.5,2.8,7.2,4.1,5.7,4.5,11.4,9,17,13.4h4.1l17-17V457c-3.6-4.9-16.9-17.6-18-22.6-.9-4.2,4-9.4,5.3-12.5l4.8-14.4c2.2-3,24.4-5.1,30.2-5.3,3.9-5.1,1.8-19.3,1.7-27.6C414.1,369.5,396.7,374,389.7,369.2Zm-2.4,34.3c-3.6,2.8-4,9.6-5.8,14.2-2.2,4.6-4.3,9.3-6.5,13.9-1.3,6.1,14.8,24.4,18.2,27.1v.5c-5,5.1-10.1,10.2-15.1,15.4-5.8-4.3-16.3-15.1-22.6-17.3-6.5-2.3-12,3.2-16.3,5.3-5,1.8-9.9,3.7-14.9,5.5-5.1,3.7-6,23.4-6.2,32.2-7.3.2-14.6.3-21.8.5-.1-7.1-1.4-25.8-4.6-30-2.8-3.9-9.3-4.1-14.2-6s-9.5-5.8-15.1-6.7c-5.4-.9-23.4,14.8-26.2,18.2h-.5c-5.1-4.9-10.2-9.8-15.4-14.6v-.5c4.2-5.9,15.3-16.4,17.3-22.8,2.1-6.8-3.7-11.8-5.5-16.1-2.1-4.8-3.1-13.3-7-16.3-4.5-3.5-23-4.3-30.7-4.6-.1-7.3-.2-14.6-.2-21.8,7.1-.1,25.8-1.7,30-4.8,3.7-2.8,3.9-9,5.8-13.7,2.2-4.8,4.5-9.6,6.7-14.4,1.3-6.1-14.8-24.7-18.2-27.4v-.5c3.4-3.6,6.7-7.2,10.1-10.8,1.7-1.6,3.4-3.2,5-4.8,2.6,3.3,21.8,19,27.6,17.8,4.7-2.3,9.4-4.6,14.2-7,4.9-2,11.5-2.6,14.2-6.7,2.9-4.5,3.8-22.8,3.8-29.8,7.3-.1,14.6-.2,21.8-.2.3,7.5,1.9,27.9,6,31.2s11.8,4.1,16.8,6.2c3.9,1.7,8.7,6.7,14.9,4.8,8.4-2.5,14.8-13.7,22.6-17.5.9-.4,14.1,12.3,15.8,14.6-4,6.1-16,17.2-17.5,23.8s3.8,10.9,5.5,14.9c2.2,5,3.3,13.8,7.4,17s23.2,4.3,30.5,4.3c.1,7.3.2,14.6.2,21.8C410.2,398.8,391.8,400.1,387.3,403.5Zm-85.2-84c-2.8.3-5.6.6-8.4,1-4.7,1.4-9.4,2.7-14.2,4.1-18.5,7.6-31.8,22-39.1,40.8C225,405,251.5,441,278.1,452.5c7.4,3.2,19.3,7.9,31,6,4.8-.7,9.6-1.4,14.4-2.2,22-6.5,38.1-20.4,46.6-40.3,6.8-16,6.6-37.4,0-53.3C359.7,337.6,338,318.9,302.1,319.5Zm64.1,94.6c-10.5,24.6-28.5,35.7-59,40.6-9,1.4-21.2-3.5-27.1-6-25-10.8-50.2-44.3-35.8-81.4,7.4-18.9,20.2-32.2,39.1-39.6l13.7-3.6c2.3-.2,4.6-.5,7-.7C349,323.2,385.8,368,366.2,414.1Zm-65.5-80c-5.1,2-10.8,1.5-15.4,3.4a56.28,56.28,0,0,0-31.4,32.4c-3.8,9.8-3.7,26.5-.5,36.7,6.5,20.6,30.8,42.8,62.2,36.7,30.1-5.8,57.3-39,41-76.8C347.9,346.4,330.2,333.7,300.7,334.1Zm52.1,75.4c-7.6,17.6-22,26.9-43.9,30.5-8.5,1.4-17.1-1.8-22.6-4.1-19.6-8.2-38.5-32.5-29.3-61.9a51.31,51.31,0,0,1,30.2-32.6c4.6-1.9,10.2-1.4,15.4-3.4C339.5,337.8,369.1,371.6,352.8,409.5Zm-45.6-33.6c-2.2-3-16.8-18-20.4-17-.4.2-.8.3-1.2.5-5.5,5.6-11,11.2-16.6,16.8,1.9,1.8,3.8,3.7,5.8,5.5,3.1-3,6.2-6.1,9.4-9.1v30.7h8.2V372.6c3.1,3,6.2,6.1,9.4,9.1,1.8-1.8,3.7-3.5,5.5-5.3v-.5Zm-16.8-7.2c-1.7,2.2-2.2,7.2-2.3,12.8,0,2.5,0,5,.1,7.5.1,4,.3,7.7.3,10.5h-.2c0-3.5-.1-7-.1-10.5-.1-2.5-.1-5-.1-7.5,0-3.6-.1-7.2-.1-10.9-1.7-1.4-2.3-2-5.8-1.9l5.8-5.8h.5c1.8,1.9,3.7,3.8,5.5,5.8Zm35.7,37.7V375.7H318v30.5c-3.1-3-6.2-6.1-9.4-9.1-1.8,2-3.7,4-5.5,6l16.8,16.8a4.93,4.93,0,0,0,3.6.2c.4-.2.8-.3,1.2-.5,5.5-5.6,11-11.2,16.6-16.8l-5.8-5.8ZM322,416l-6-6h3.8c3.5-4.7,2-22.2,1.9-30.5,1.5,1.7.5,24.5.5,28.8,1.7,1.4,2.3,2,5.8,1.9C326,412.1,324,414.1,322,416Z"/></g></svg>