<svg id="Layer_1" data-name="Layer 1" xmlns="http://www.w3.org/2000/svg" xmlns:xlink="http://www.w3.org/1999/xlink" viewBox="0 0 1855.31 819.03"><defs><style>.cls-1{fill:url(#linear-gradient);}.cls-2{fill:url(#linear-gradient-2);}.cls-3{fill:url(#linear-gradient-3);}.cls-4{fill:url(#linear-gradient-4);}</style><linearGradient id="linear-gradient" x1="1832.55" y1="1028.51" x2="1468.1" y2="664.05" gradientUnits="userSpaceOnUse"><stop offset="0" stop-color="#ff3800"/><stop offset="0.51" stop-color="#f7931e"/><stop offset="1" stop-color="#d34200"/></linearGradient><linearGradient id="linear-gradient-2" x1="13.78" y1="1073.33" x2="482.9" y2="802.48" xlink:href="#linear-gradient"/><linearGradient id="linear-gradient-3" x1="535.72" y1="679.68" x2="1411.98" y2="679.68" gradientUnits="userSpaceOnUse"><stop offset="0" stop-color="#00aeaa"/><stop offset="0.57" stop-color="#000baa"/><stop offset="1" stop-color="#00c4aa"/></linearGradient><linearGradient id="linear-gradient-4" x1="901.5" y1="1002.37" x2="1233.16" y2="810.89" xlink:href="#linear-gradient"/></defs><path class="cls-1" d="M1613.52,1174.27,1384.67,772.12a23.69,23.69,0,0,1,18.12-35.27h0a23.7,23.7,0,0,1,23,11.76l128.5,223.56c37.89,67.22,79.49,134.5,98.66,170.44h0c15.81-32.36,57.74-103.68,94.4-169.67L1874.27,746A19.81,19.81,0,0,1,1890,735.91l1.49-.12a28.06,28.06,0,0,1,18.92,5.16,17.91,17.91,0,0,1,7.91,15,28.16,28.16,0,0,1-3.81,14.56l-228.34,403.34A20,20,0,0,1,1669,1184l-37.93.35A20,20,0,0,1,1613.52,1174.27Z" transform="translate(-63 -365.32)"/><path class="cls-2" d="M63,758.73A34.73,34.73,0,0,1,97.73,724h161.2c162.15,0,274.47,88.06,274.47,226.06C533.4,1087.4,423.61,1184,258.09,1184H97.73A34.73,34.73,0,0,1,63,1149.27Zm46,358.78A33.48,33.48,0,0,0,142.49,1151H251.62c156.13,0,232.93-85.37,232.93-199,0-101.13-69.21-195-232.93-195H142.49A33.48,33.48,0,0,0,109,790.49Z" transform="translate(-63 -365.32)"/><path class="cls-3" d="M1222.91,553.33a20.49,20.49,0,0,1,35.26,0l108,185.88,5,9a23.69,23.69,0,0,1,20.55-29.17h0A23.67,23.67,0,0,1,1412,727L1257.09,469.55c-9.55-11.43-25.35-11.43-35.26,0l-28,37.56c-10.81,12.36-18.61,11.13-28.67.22a10,10,0,0,1-1.22-1.66l-75.11-130.1a20.49,20.49,0,0,0-35.49,0L911.63,621l-24.71,42.8-3.26,5.65-53.93,93.41a20.5,20.5,0,0,1-35.49,0L716.52,628.22a20.49,20.49,0,0,0-35.49,0L535.72,879.9h0a193.11,193.11,0,0,1,10,62.3c0,.79,0,1.58,0,2.37L680,712a20.49,20.49,0,0,1,35.49,0l65.9,114.14a20.49,20.49,0,0,1,0,20.49L714,963.31A20.49,20.49,0,0,0,731.74,994h0a20.49,20.49,0,0,0,17.74-10.24L882.6,753.22l28-48.45L935.29,662l117-202.61a20.49,20.49,0,0,1,35.49,0l169.66,293.87,21.85,37.84a20.49,20.49,0,0,0,35.38.19l1.07-1.8a20.51,20.51,0,0,0,.11-20.68l-57.35-99.33L1213,590.62a20.48,20.48,0,0,1,.11-20.68Z" transform="translate(-63 -365.32)"/><path class="cls-4" d="M982.18,1142.11c.67.53,4.34,1.8,7.93,3.22,34.92,15.64,75.25,18.7,115.25,8.49,20.68-5.28,44.61-16.6,64.79-31.12h.19a19.24,19.24,0,0,0,2.77-2.17,170.82,170.82,0,0,0,64.63-101.75c8.42-44.54-2.21-89.89-29.91-127.68a182.89,182.89,0,0,0-76.77-60.31,9.3,9.3,0,0,1-3.69-14.34c20-25.21,39.68-50.3,58-76.58a10.11,10.11,0,0,0-8.26-15.92c-59.21,0-125.21-.69-184.42-.41-7,0-73.66,0-86.42,0a3.48,3.48,0,0,0-3.1,1.86l-6.38,12a3.33,3.33,0,0,0-.52.71l-9.61,17.81a3.47,3.47,0,0,0,3.08,5.11h228.48a8.86,8.86,0,0,1,6.89,14.56c-11.93,14.12-28.38,33.61-29.39,34.9-7.92,10.08-14.06,17.36-18.66,23L1067.47,845l0,.13c41.23,7.74,87.12,32.82,111.07,65.12,23.83,32.12,33,70.57,25.78,108.27-4.4,23-15.73,42.55-30.94,60.07-21.22,23.06-48.77,40.19-79.56,48-25,6.33-48.94,4.71-72.31-1.19" transform="translate(-63 -365.32)"/></svg>