<svg id="Layer_1" data-name="Layer 1" xmlns="http://www.w3.org/2000/svg" xmlns:xlink="http://www.w3.org/1999/xlink" viewBox="0 0 876.26 628.72"><defs><style>.cls-1{fill:url(#linear-gradient);}</style><linearGradient id="linear-gradient" x1="535.72" y1="679.68" x2="1411.98" y2="679.68" gradientUnits="userSpaceOnUse"><stop offset="0" stop-color="#00aeaa"/><stop offset="0.57" stop-color="#000baa"/><stop offset="1" stop-color="#00c4aa"/></linearGradient></defs><path class="cls-1" d="M1222.91,553.33a20.49,20.49,0,0,1,35.26,0l108,185.88,5,9a23.69,23.69,0,0,1,20.55-29.17h0A23.67,23.67,0,0,1,1412,727L1257.09,469.55c-9.55-11.43-25.35-11.43-35.26,0l-28,37.56c-10.81,12.36-18.61,11.13-28.67.22a10,10,0,0,1-1.22-1.66l-75.11-130.1a20.49,20.49,0,0,0-35.49,0L911.63,621l-24.71,42.8-3.26,5.65-53.93,93.41a20.5,20.5,0,0,1-35.49,0L716.52,628.22a20.49,20.49,0,0,0-35.49,0L535.72,879.9h0a193.11,193.11,0,0,1,10,62.3c0,.79,0,1.58,0,2.37L680,712a20.49,20.49,0,0,1,35.49,0l65.9,114.14a20.49,20.49,0,0,1,0,20.49L714,963.31A20.49,20.49,0,0,0,731.74,994h0a20.49,20.49,0,0,0,17.74-10.24L882.6,753.22l28-48.45L935.29,662l117-202.61a20.49,20.49,0,0,1,35.49,0l169.66,293.87,21.85,37.84a20.49,20.49,0,0,0,35.38.19l1.07-1.8a20.51,20.51,0,0,0,.11-20.68l-57.35-99.33L1213,590.62a20.48,20.48,0,0,1,.11-20.68Z" transform="translate(-535.72 -365.32)"/></svg>