<svg id="Layer_1" data-name="Layer 1" xmlns="http://www.w3.org/2000/svg" xmlns:xlink="http://www.w3.org/1999/xlink" viewBox="0 0 612 612"><defs><style>.cls-1{fill-rule:evenodd;fill:url(#linear-gradient);}</style><linearGradient id="linear-gradient" x1="404.57" y1="484.77" x2="200.72" y2="131.7" gradientTransform="matrix(1, 0, 0, -1, 0, 612)" gradientUnits="userSpaceOnUse"><stop offset="0" stop-color="#30439b"/><stop offset="0.5" stop-color="#53c6d5"/><stop offset="1" stop-color="#f3722b"/></linearGradient></defs><g id="DevOps"><path class="cls-1" d="M389.2,357.6c-2-4.8-2.9-10.5-7.9-12.2-6.4-2.3-10.4,4.9-12.7,7.9-1.8,2.1-3.5,4.2-5.3,6.2-.2.1-.3.2-.5.2-4.2-5.8-8.3-11.5-12.5-17.3-8.8-13-17.6-25.9-26.4-38.9-26.2-39.9-49.9-77.9-91-103-14.1-8.6-29.4-14.4-47.3-19.7-5.2-1.5-10.8-3.5-17.3-3.4-1.8.8-3.5,1.6-5.3,2.4-4.9,3.9-4.2,13.1.5,16.6,5,3.8,18.8,4.7,25.4,7,16,5.4,30.6,12.4,43.2,21.4,33.7,23.9,55.7,61,78,96.2q19.2,27.45,38.4,55c-3.3,3.8-6.6,7.7-9.8,11.5-1.6,3.5-.3,8.8,2.2,10.3,12.9,3.4,25.8,6.7,38.6,10.1,5.9,1.6,23.5,7.8,27.4,2.9,3.6-4.7-3.3-18-5-22.3C397.7,378.3,393.5,368,389.2,357.6Zm14.4,50.2a4.18,4.18,0,0,1-2.4,1.4c-19.3-5-38.6-9.9-57.8-14.9a24.43,24.43,0,0,0-1-2.4c-.9-3.6,8.2-10.6,9.8-13.9,2-5.1-3.9-9.4-5.8-12-7-9.9-13.9-19.8-20.9-29.8-28.6-42.9-54-91.9-97.9-119.5a162.3,162.3,0,0,0-37.4-17.3c-5.7-1.8-20.9-3.4-24.7-6.7-4.9-4.4.4-9,3.6-11,5.3.1,10.2,1.8,14.6,3.1,19.3,5.7,35.3,12.2,50.4,21.6,37.9,23.7,61.6,60.6,85.4,98.4,12.8,20.3,27.3,39.7,41.3,58.8h3.8c5.4-4.1,7.7-11.6,14.4-14.4,4.5,2.2,5.3,8,7.2,12.7,4.4,10.7,8.8,21.4,13.2,32.2C400.5,396.5,404.8,405.9,403.6,407.8ZM577.9,257.1c-17.4-42.4-62.2-79.4-122.9-78.2-3,.2-6.1.3-9.1.5l-16.1,2.4c-18.2,4.6-33.2,11-47,19.7-3.3,2.1-7.4,4-9.8,7-6.3-1.9-14.9-19.3-24.2-13-3.4,2.3-4,10.3-5.3,14.6-3.8,12.8-7.5,25.6-11.3,38.4-1.5,4.7-3.8,11.8.7,14.9,5,3.4,24.4-6,29.3-7.9,9.5-3.5,19-7,28.6-10.6,4.1-1.6,9.8-3.9,8.2-10.1-1.4-5.3-7.3-7.6-10.3-11.5H388c3.5-4.1,9.8-6.3,14.6-9.1,18.9-11.1,51.5-18.6,79.9-11.3,37.7,9.6,62.9,30.3,76.3,64.3,3.6,9,8.8,28.6,6.5,42.7-1.4,8.6-1.8,16.5-4.1,24-11.1,36.1-34.8,59.5-68.9,72.7-10.8,4.2-22.3,4.3-35.8,6.5-10.4,1.7-19.6-3.7-24.5,4.3a11.14,11.14,0,0,0-1,7.9c1,3.2,2.4,5.5,5,7,4.8,2.7,24.5,2.4,31.4,1.2,9.6-1.7,18.6-2.8,27.1-5.5,40-12.7,68.3-40.2,83.3-78C588.8,323,588.8,283.7,577.9,257.1Zm-2.2,86.1c-13.9,39.7-39.8,64.4-78.5,79.4-11.4,4.4-23.7,5.1-37.7,7.4-9.8,1.6-30.1-.3-23.5-10.8,3-4.8,14-2.3,21.1-2.4,13.9-.3,26.7-2.4,37.2-6.5,39.9-15.5,65.4-44.1,74.2-91,3-16.1.3-36.4-3.6-48.7-11.4-36.4-38.2-58.8-74.9-70.1-15.9-4.9-41.4-6.4-59.3-1.9-18.8,4.7-33.2,12.5-46.6,22.3v3.8c3.2,4.1,7.6,6.5,10.6,11-.6,5.4-8.8,6-13.2,7.7l-32.4,12c-3.8,1.5-9.6,5.2-13.9,4.1l-1.2-2.4q8.25-29,16.6-57.8c.7-.4,1.4-.8,2.2-1.2,9.7,1.4,10.5,14,21.8,13.9a156.7,156.7,0,0,1,54-25.9c6.4-1,12.8-2.1,19.2-3.1,3-.2,6.1-.3,9.1-.5,4.1.2,8.2.5,12.2.7,7.4,1.3,14.6,2.1,21.4,4.1,32,9.6,57.1,25.8,73.2,51.4a130.41,130.41,0,0,1,14.9,34.1C584.8,295,582.5,323.8,575.7,343.2Zm-297.3-2.8c-3.4,2-5.3,6.3-7.7,9.4-5.1,5.8-10.2,11.7-15.4,17.5-24.4,24.4-77.1,58.1-129.6,42C90.3,398.4,63.1,372.9,52,337.8c-12-38.2.6-73.4,18-96,3.1-4,6.7-9.2,11-11.8,3.3,4.4,4,12.6,10.3,13.9,6.5,1.3,9.5-5.9,11.8-9.1,7.7-10.4,15.4-20.8,23-31.2,2.1-2.9,8-7.4,6.7-13-1.4-6-9.3-5-16.8-5H68.6c-10.3,7.2,0,16.5,2.6,24.7-4.6,4.5-9.3,9-13.9,13.4-10.4,13-19.8,26.8-25.4,44.6-2.2,7.1-3.4,14.6-4.8,22.6-3.2,17.8.7,38.4,4.8,51.8,12.7,41.3,42.2,70.4,81.8,84.7,16.9,6.1,44.1,9,65,4.3,42.1-9.4,75.9-29.5,98.9-58.1,5-6.2,11.4-11.9,15.4-19C298.1,345.7,287.5,335.1,278.4,340.4Zm-12.8,40c-21.8,21.8-48.2,37.2-83,46.1-13,3.3-31.9,5.2-46.8,2.2-49.2-10.1-80.9-38.1-97.7-80.6-6.2-15.7-10.9-40.9-6.2-61.9,2-9,4.1-17.6,7.4-25.2,8.6-19.4,19.9-36.4,35.8-48.5-.1-9.2-5.6-12.4-7.2-19.7.4-.9.8-1.8,1.2-2.6.5-.2,1-.5,1.4-.7H112c5.9,0,13.4-.9,16.6,1.9.3,4.4-5.4,9.2-7.7,12.2-5.7,7.7-11.4,15.4-17,23-3.2,4.5-6,10.8-11.3,13.2-4.3-1.9-6.7-10-9.4-13.7H78.9c-11.3,10.8-21.2,22.8-27.8,38.4-3.2,7.6-5,16.1-6.7,25.2-3.1,16.3,0,36.6,3.8,49,11,35.2,36.4,59.5,69.6,72.5,8.4,3.3,17.6,3.8,27.8,5.5,12.1,2,30.2-1.2,38.9-3.6,32.7-9,55.3-24.8,75.8-45.6,3.9-4,18.8-23.4,22.3-24.2,4.6-1.1,6,3.4,7.4,5.8C289.5,356.8,270.9,375.1,265.6,380.4Z"/></g></svg>