<svg xmlns="http://www.w3.org/2000/svg" xmlns:xlink="http://www.w3.org/1999/xlink" viewBox="0 0 540 480"><defs><style>.cls-1{fill:url(#linear-gradient);}.cls-2{fill:url(#linear-gradient-2);}.cls-3{fill:#d9e1ee;}.cls-4{fill:#3857cc;}.cls-5{fill:none;}.cls-6{fill:url(#linear-gradient-3);}.cls-7{fill:url(#linear-gradient-4);}.cls-8{fill:url(#linear-gradient-5);}.cls-9{fill:#b4c5e2;}.cls-10{isolation:isolate;}.cls-11{fill:url(#linear-gradient-6);}.cls-100,.cls-118,.cls-12,.cls-136{mix-blend-mode:screen;}.cls-13{fill:url(#linear-gradient-7);}.cls-14{fill:url(#linear-gradient-8);}.cls-15{fill:url(#linear-gradient-9);}.cls-16{fill:url(#linear-gradient-10);}.cls-17{fill:url(#linear-gradient-11);}.cls-18{fill:url(#linear-gradient-12);}.cls-19{fill:url(#linear-gradient-13);}.cls-20{fill:url(#linear-gradient-14);}.cls-21{fill:url(#linear-gradient-15);}.cls-22{fill:url(#linear-gradient-16);}.cls-23{fill:url(#linear-gradient-17);}.cls-24{fill:url(#linear-gradient-18);}.cls-25{fill:url(#linear-gradient-19);}.cls-26{fill:url(#linear-gradient-20);}.cls-27{fill:url(#linear-gradient-21);}.cls-28{fill:url(#linear-gradient-22);}.cls-29{fill:url(#linear-gradient-23);}.cls-30{fill:url(#linear-gradient-24);}.cls-31{fill:url(#linear-gradient-25);}.cls-32{fill:url(#linear-gradient-26);}.cls-33{fill:url(#linear-gradient-27);}.cls-34{fill:url(#linear-gradient-28);}.cls-35{clip-path:url(#clip-path);}.cls-36{fill:url(#linear-gradient-30);}.cls-37{fill:url(#linear-gradient-31);}.cls-38{fill:url(#linear-gradient-32);}.cls-39{fill:#0eb5e3;}.cls-40{clip-path:url(#clip-path-2);}.cls-41{fill:url(#linear-gradient-34);}.cls-42{fill:url(#linear-gradient-35);}.cls-43{fill:url(#linear-gradient-36);}.cls-44{fill:url(#linear-gradient-37);}.cls-45{fill:url(#linear-gradient-38);}.cls-46{clip-path:url(#clip-path-3);}.cls-47{fill:url(#linear-gradient-40);}.cls-48{fill:url(#linear-gradient-41);}.cls-49{fill:url(#linear-gradient-42);}.cls-50{clip-path:url(#clip-path-4);}.cls-51{fill:url(#linear-gradient-44);}.cls-52{fill:url(#linear-gradient-45);}.cls-53{fill:url(#linear-gradient-46);}.cls-54{fill:url(#linear-gradient-47);}.cls-55{fill:url(#linear-gradient-48);}.cls-56{clip-path:url(#clip-path-5);}.cls-57{fill:url(#linear-gradient-50);}.cls-58{fill:url(#linear-gradient-51);}.cls-59{fill:#e08910;}.cls-60{fill:#f2a92e;}.cls-61{fill:#9cb5cc;}.cls-62{fill:#d7e7f7;}.cls-63{fill:#f8f9fc;}.cls-64{fill:#ffca00;}.cls-65{fill:url(#linear-gradient-52);}.cls-66{fill:url(#linear-gradient-53);}.cls-67{fill:url(#linear-gradient-54);}.cls-68{fill:url(#linear-gradient-55);}.cls-69{fill:#15c5f3;}.cls-70{fill:url(#linear-gradient-56);}.cls-71{fill:url(#linear-gradient-57);}.cls-72{fill:url(#linear-gradient-58);}.cls-73{fill:url(#linear-gradient-59);}.cls-74{fill:#96aac9;}.cls-75{fill:#19f7fb;}.cls-76{fill:url(#linear-gradient-60);}.cls-77{fill:url(#linear-gradient-61);}.cls-78{fill:url(#linear-gradient-62);}.cls-79{fill:url(#linear-gradient-63);}.cls-80{fill:url(#linear-gradient-64);}.cls-81{fill:url(#linear-gradient-65);}.cls-82{fill:url(#linear-gradient-66);}.cls-83{fill:url(#linear-gradient-67);}.cls-84{fill:url(#linear-gradient-68);}.cls-85{fill:url(#linear-gradient-69);}.cls-86{fill:url(#linear-gradient-70);}.cls-87{fill:#d4d0c8;}.cls-88{fill:url(#linear-gradient-71);}.cls-89{fill:url(#linear-gradient-72);}.cls-90{fill:url(#linear-gradient-73);}.cls-91{fill:#303030;}.cls-92{fill:#5c697c;}.cls-93{fill:#f2f2f2;}.cls-94{fill:#b3b3b3;}.cls-95{fill:#7c93b8;}.cls-96{fill:#1b1823;}.cls-97{fill:url(#linear-gradient-74);}.cls-145,.cls-98{fill:#30273b;}.cls-99{fill:#404040;}.cls-100{fill:#b6ccdf;}.cls-100,.cls-142{opacity:0.2;}.cls-101{fill:#4a4e57;}.cls-102{fill:#393c41;}.cls-103{fill:#1b2029;}.cls-104{clip-path:url(#clip-path-6);}.cls-105{clip-path:url(#clip-path-7);}.cls-106{clip-path:url(#clip-path-8);}.cls-107{clip-path:url(#clip-path-9);}.cls-108{fill:#e8edf5;}.cls-109,.cls-119{fill:#f1f5fa;}.cls-110{clip-path:url(#clip-path-10);}.cls-111{fill:#aabad6;}.cls-112{clip-path:url(#clip-path-11);}.cls-113{fill:#c3cee1;}.cls-114{clip-path:url(#clip-path-12);}.cls-115{clip-path:url(#clip-path-13);}.cls-116{fill:#4767db;}.cls-117{fill:#2744ac;}.cls-118{fill:#51cfe3;}.cls-118,.cls-145{opacity:0.5;}.cls-119,.cls-136{opacity:0.3;}.cls-120{fill:#fff;}.cls-121{fill:#ffc89f;}.cls-122,.cls-136{fill:#2b0d04;}.cls-123{fill:#ffdfcd;}.cls-124{fill:#171d23;}.cls-125{fill:#021c30;}.cls-126{fill:#5338b8;}.cls-127{fill:#e9d3c8;}.cls-128{fill:#154902;}.cls-129{fill:#283033;}.cls-130{fill:#83cff2;}.cls-131{fill:#ffd6bf;}.cls-132{fill:#eeeff0;}.cls-133{fill:#f4f5f6;}.cls-134{fill:#0b0c0d;}.cls-135{fill:#ad7e6c;}.cls-137{fill:#393244;}.cls-138{fill:#e6e6e6;}.cls-139{fill:#521894;}.cls-140{fill:#997efa;}.cls-141{fill:#ffc6a6;}.cls-142{fill:#191c22;mix-blend-mode:multiply;}.cls-143{fill:#ccc;}.cls-144{fill:#f5c2a6;}.cls-146{fill:#c8d3e5;}.cls-147{fill:#171716;}.cls-148{fill:#1b5fb8;}.cls-149{fill:#1d68ca;}.cls-150{fill:#bd825a;}.cls-151{fill:#fcfdfd;}.cls-152{fill:#292b34;}.cls-153{clip-path:url(#clip-path-14);}.cls-154{fill:#22232c;}.cls-155{clip-path:url(#clip-path-15);}.cls-156{fill:#1d2027;}.cls-157{fill:#1e2129;}.cls-158{fill:#23262f;}.cls-159{fill:#0b0b0b;}.cls-160{fill:#451d2e;}.cls-161{fill:#381523;}</style><linearGradient id="linear-gradient" x1="154.17" y1="227.7" x2="166.98" y2="227.7" gradientUnits="userSpaceOnUse"><stop offset="0.01" stop-color="#e4e9f2"/><stop offset="1" stop-color="#b4c2da"/></linearGradient><linearGradient id="linear-gradient-2" x1="154.73" y1="206.23" x2="166.37" y2="206.23" gradientUnits="userSpaceOnUse"><stop offset="0" stop-color="#21deff"/><stop offset="1" stop-color="#0ab4ef"/></linearGradient><linearGradient id="linear-gradient-3" x1="154.17" y1="191.02" x2="166.98" y2="191.02" xlink:href="#linear-gradient"/><linearGradient id="linear-gradient-4" x1="154.73" y1="169.54" x2="166.37" y2="169.54" xlink:href="#linear-gradient-2"/><linearGradient id="linear-gradient-5" x1="154.17" y1="155.03" x2="166.98" y2="155.03" xlink:href="#linear-gradient"/><linearGradient id="linear-gradient-6" x1="60.21" y1="286.18" x2="480.34" y2="286.18" xlink:href="#linear-gradient-2"/><linearGradient id="linear-gradient-7" x1="221.75" y1="412.62" x2="365.85" y2="412.62" xlink:href="#linear-gradient-2"/><linearGradient id="linear-gradient-8" x1="67.46" y1="421.19" x2="170.4" y2="421.19" xlink:href="#linear-gradient-2"/><linearGradient id="linear-gradient-9" x1="42.49" y1="386.32" x2="145.43" y2="386.32" xlink:href="#linear-gradient-2"/><linearGradient id="linear-gradient-10" x1="17.45" y1="267.71" x2="96.34" y2="267.71" xlink:href="#linear-gradient-2"/><linearGradient id="linear-gradient-11" x1="159.76" y1="406.82" x2="171.89" y2="406.82" xlink:href="#linear-gradient-2"/><linearGradient id="linear-gradient-12" x1="147.08" y1="425.61" x2="187.98" y2="425.61" xlink:href="#linear-gradient-2"/><linearGradient id="linear-gradient-13" x1="-11139.35" y1="383.73" x2="-11007.99" y2="383.73" gradientTransform="matrix(-1, 0, 0, 1, -10810.06, -25.56)" xlink:href="#linear-gradient-2"/><linearGradient id="linear-gradient-14" x1="92.09" y1="220.89" x2="223.45" y2="220.89" xlink:href="#linear-gradient-2"/><linearGradient id="linear-gradient-15" x1="359.82" y1="367.08" x2="502.61" y2="367.08" xlink:href="#linear-gradient-2"/><linearGradient id="linear-gradient-16" x1="29.44" y1="357.51" x2="104.11" y2="357.51" xlink:href="#linear-gradient-2"/><linearGradient id="linear-gradient-17" x1="387.56" y1="373.48" x2="531.66" y2="373.48" xlink:href="#linear-gradient-2"/><linearGradient id="linear-gradient-18" x1="6.8" y1="340.47" x2="85.69" y2="340.47" xlink:href="#linear-gradient-2"/><linearGradient id="linear-gradient-19" x1="448.56" y1="334.57" x2="527.45" y2="334.57" xlink:href="#linear-gradient-2"/><linearGradient id="linear-gradient-20" x1="393.38" y1="199.51" x2="472.27" y2="199.51" xlink:href="#linear-gradient-2"/><linearGradient id="linear-gradient-21" x1="422.48" y1="381.72" x2="434.61" y2="381.72" xlink:href="#linear-gradient-2"/><linearGradient id="linear-gradient-22" x1="284.48" y1="397.06" x2="296.62" y2="397.06" xlink:href="#linear-gradient-2"/><linearGradient id="linear-gradient-23" x1="466.21" y1="211.75" x2="478.34" y2="211.75" xlink:href="#linear-gradient-2"/><linearGradient id="linear-gradient-24" x1="78.42" y1="354.95" x2="90.56" y2="354.95" xlink:href="#linear-gradient-2"/><linearGradient id="linear-gradient-25" x1="454.09" y1="238.06" x2="521.92" y2="238.06" xlink:href="#linear-gradient-2"/><linearGradient id="linear-gradient-26" x1="96.34" y1="193.22" x2="99.04" y2="193.22" xlink:href="#linear-gradient"/><linearGradient id="linear-gradient-27" x1="162.46" y1="191.28" x2="211.9" y2="217.92" xlink:href="#linear-gradient"/><linearGradient id="linear-gradient-28" x1="96.34" y1="209.15" x2="154.22" y2="209.15" gradientUnits="userSpaceOnUse"><stop offset="0" stop-color="#aabad6"/><stop offset="1" stop-color="#96aac9"/></linearGradient><clipPath id="clip-path"><path class="cls-1" d="M167,224.36l0,5.16a14.13,14.13,0,0,1-12.76,0l.05-5.15A14.1,14.1,0,0,0,167,224.36Z"/></clipPath><linearGradient id="linear-gradient-30" x1="152.72" y1="216.1" x2="165.34" y2="233.51" xlink:href="#linear-gradient"/><linearGradient id="linear-gradient-31" x1="118.05" y1="174.66" x2="407.79" y2="271.48" xlink:href="#linear-gradient"/><linearGradient id="linear-gradient-32" x1="187.81" y1="187.3" x2="311.07" y2="244.16" gradientUnits="userSpaceOnUse"><stop offset="0" stop-color="#21deff"/><stop offset="0.29" stop-color="#1ad2fa"/><stop offset="1" stop-color="#0ab4ef"/></linearGradient><clipPath id="clip-path-2"><path class="cls-2" d="M166.37,191l-.06,29.07a12.81,12.81,0,0,1-11.58,0l.06-29.08A12.84,12.84,0,0,0,166.37,191Z"/></clipPath><linearGradient id="linear-gradient-34" x1="152.57" y1="196.88" x2="179.57" y2="226.16" xlink:href="#linear-gradient-2"/><linearGradient id="linear-gradient-35" x1="102.32" y1="158.74" x2="218.48" y2="158.74" xlink:href="#linear-gradient-2"/><linearGradient id="linear-gradient-36" x1="96.34" y1="156.54" x2="99.04" y2="156.54" xlink:href="#linear-gradient"/><linearGradient id="linear-gradient-37" x1="162.46" y1="154.59" x2="211.9" y2="181.24" xlink:href="#linear-gradient"/><linearGradient id="linear-gradient-38" x1="96.34" y1="172.47" x2="154.22" y2="172.47" xlink:href="#linear-gradient-28"/><clipPath id="clip-path-3"><path class="cls-6" d="M167,187.68l0,5.16a14.13,14.13,0,0,1-12.76,0l.05-5.16A14.13,14.13,0,0,0,167,187.68Z"/></clipPath><linearGradient id="linear-gradient-40" x1="152.72" y1="179.42" x2="165.34" y2="196.83" xlink:href="#linear-gradient"/><linearGradient id="linear-gradient-41" x1="118.05" y1="137.97" x2="407.79" y2="234.8" xlink:href="#linear-gradient"/><linearGradient id="linear-gradient-42" x1="187.8" y1="150.62" x2="311.07" y2="207.47" xlink:href="#linear-gradient-32"/><clipPath id="clip-path-4"><path class="cls-7" d="M166.37,154.31l-.06,29.08a12.84,12.84,0,0,1-11.58,0l.06-29.07A12.81,12.81,0,0,0,166.37,154.31Z"/></clipPath><linearGradient id="linear-gradient-44" x1="152.57" y1="160.2" x2="179.57" y2="189.48" xlink:href="#linear-gradient-2"/><linearGradient id="linear-gradient-45" x1="102.32" y1="122.06" x2="218.48" y2="122.06" xlink:href="#linear-gradient-2"/><linearGradient id="linear-gradient-46" x1="96.34" y1="120.55" x2="99.04" y2="120.55" xlink:href="#linear-gradient"/><linearGradient id="linear-gradient-47" x1="162.46" y1="118.6" x2="211.9" y2="145.24" xlink:href="#linear-gradient"/><linearGradient id="linear-gradient-48" x1="96.34" y1="136.48" x2="154.22" y2="136.48" xlink:href="#linear-gradient-28"/><clipPath id="clip-path-5"><path class="cls-8" d="M167,151.69l0,5.15a14.07,14.07,0,0,1-12.76,0l.05-5.15A14.13,14.13,0,0,0,167,151.69Z"/></clipPath><linearGradient id="linear-gradient-50" x1="152.72" y1="143.42" x2="165.34" y2="160.84" xlink:href="#linear-gradient"/><linearGradient id="linear-gradient-51" x1="118.05" y1="101.98" x2="407.79" y2="198.8" gradientUnits="userSpaceOnUse"><stop offset="0.01" stop-color="#fcfdff"/><stop offset="1" stop-color="#cedaed"/></linearGradient><linearGradient id="linear-gradient-52" x1="359.03" y1="265.93" x2="444.3" y2="265.93" gradientUnits="userSpaceOnUse"><stop offset="0.01" stop-color="#d9e1ee"/><stop offset="1" stop-color="#aabad6"/></linearGradient><linearGradient id="linear-gradient-53" x1="297.08" y1="323.77" x2="297.08" y2="138.98" xlink:href="#linear-gradient-28"/><linearGradient id="linear-gradient-54" x1="317.25" y1="181.73" x2="793.14" y2="238.32" xlink:href="#linear-gradient"/><linearGradient id="linear-gradient-55" x1="375.87" y1="204" x2="438.68" y2="229.5" xlink:href="#linear-gradient-2"/><linearGradient id="linear-gradient-56" x1="359.03" y1="195.12" x2="444.3" y2="195.12" xlink:href="#linear-gradient-52"/><linearGradient id="linear-gradient-57" x1="297.08" y1="225.82" x2="297.08" y2="113.8" xlink:href="#linear-gradient-28"/><linearGradient id="linear-gradient-58" x1="296.81" y1="124.96" x2="296.81" y2="214.18" xlink:href="#linear-gradient-28"/><linearGradient id="linear-gradient-59" x1="317.25" y1="143.02" x2="793.14" y2="199.62" xlink:href="#linear-gradient"/><linearGradient id="linear-gradient-60" x1="375.87" y1="166.15" x2="438.68" y2="191.65" xlink:href="#linear-gradient-2"/><linearGradient id="linear-gradient-61" x1="359.03" y1="157.27" x2="444.3" y2="157.27" xlink:href="#linear-gradient-52"/><linearGradient id="linear-gradient-62" x1="297.08" y1="187.97" x2="297.08" y2="75.94" xlink:href="#linear-gradient-28"/><linearGradient id="linear-gradient-63" x1="296.81" y1="87.1" x2="296.81" y2="176.32" xlink:href="#linear-gradient-28"/><linearGradient id="linear-gradient-64" x1="317.25" y1="105.17" x2="793.14" y2="161.76" xlink:href="#linear-gradient"/><linearGradient id="linear-gradient-65" x1="375.87" y1="127.69" x2="438.68" y2="153.18" xlink:href="#linear-gradient-2"/><linearGradient id="linear-gradient-66" x1="359.03" y1="118.8" x2="444.3" y2="118.8" xlink:href="#linear-gradient-52"/><linearGradient id="linear-gradient-67" x1="297.08" y1="149.51" x2="297.08" y2="37.48" xlink:href="#linear-gradient-28"/><linearGradient id="linear-gradient-68" x1="296.81" y1="48.64" x2="296.81" y2="137.86" xlink:href="#linear-gradient-28"/><linearGradient id="linear-gradient-69" x1="317.25" y1="66.71" x2="793.14" y2="123.3" xlink:href="#linear-gradient"/><linearGradient id="linear-gradient-70" x1="-6514.91" y1="222.73" x2="-6322.25" y2="325.58" gradientTransform="matrix(-1, 0, 0, 1, -6244.97, 0)" gradientUnits="userSpaceOnUse"><stop offset="0.01" stop-color="#e4e9f2"/><stop offset="0.27" stop-color="#dfe5ef"/><stop offset="0.6" stop-color="#d0d9e8"/><stop offset="0.95" stop-color="#b8c5dc"/><stop offset="1" stop-color="#b4c2da"/></linearGradient><linearGradient id="linear-gradient-71" x1="-6536.2" y1="323.3" x2="-6325.2" y2="323.3" gradientTransform="matrix(-1, 0, 0, 1, -6244.97, 0)" xlink:href="#linear-gradient-28"/><linearGradient id="linear-gradient-72" x1="-6536.2" y1="316.15" x2="-6325.2" y2="316.15" xlink:href="#linear-gradient-70"/><linearGradient id="linear-gradient-73" x1="-6545.25" y1="241.34" x2="-6415.91" y2="241.34" gradientTransform="matrix(-1, 0, 0, 1, -6244.97, 0)" xlink:href="#linear-gradient-28"/><linearGradient id="linear-gradient-74" x1="-6503.57" y1="234.46" x2="-6415.42" y2="268.64" gradientTransform="matrix(-1, 0, 0, 1, -6244.97, 0)" xlink:href="#linear-gradient-2"/><clipPath id="clip-path-6"><path class="cls-9" d="M325.09,100.72l9.06-5.27c-5.06,3-8.2,9.2-8.23,18.09-.05,17.9,12.54,39.69,28.11,48.68L345,167.49c-15.57-9-28.16-30.78-28.11-48.68C316.89,109.92,320,103.66,325.09,100.72Z"/></clipPath><clipPath id="clip-path-7"><path class="cls-9" d="M374.1,164.19,365,169.46c-5.13,3-12.23,2.56-20.07-2l9.06-5.27C361.87,166.75,369,167.17,374.1,164.19Z"/></clipPath><clipPath id="clip-path-8"><path class="cls-3" d="M316.64,86.17l9.06-5.26c7.29-4.24,17.4-3.65,28.55,2.79L345.19,89C334,82.53,323.93,81.93,316.64,86.17Z"/></clipPath><clipPath id="clip-path-9"><path class="cls-3" d="M382.55,178.74,373.49,184c7.21-4.19,11.68-13.09,11.71-25.75.07-25.47-17.84-56.49-40-69.29l9.06-5.27c22.17,12.8,40.09,43.83,40,69.3C394.23,165.65,389.76,174.56,382.55,178.74Z"/></clipPath><clipPath id="clip-path-10"><path class="cls-3" d="M395.86,154.23l16.52,9.6c-1.11-.64-2.66-.55-4.36.43l-16.52-9.6C393.2,153.68,394.75,153.59,395.86,154.23Z"/></clipPath><clipPath id="clip-path-11"><path class="cls-3" d="M403.7,178.77l-16.52-9.6c-1.1-.64-1.78-2-1.79-3.93a13.47,13.47,0,0,1,6.11-10.58l16.52,9.6a13.44,13.44,0,0,0-6.11,10.58C401.92,176.77,402.6,178.13,403.7,178.77Z"/></clipPath><clipPath id="clip-path-12"><path class="cls-4" d="M418.13,158.08l64.66,37.58c-2.2-1.28-5.26-1.1-8.63.85l-64.67-37.58C412.86,157,415.92,156.8,418.13,158.08Z"/></clipPath><clipPath id="clip-path-13"><path class="cls-4" d="M465.61,225.23l-64.67-37.58c-2.18-1.26-3.53-4-3.54-7.78,0-7.7,5.39-17.07,12.09-20.94l64.67,37.58c-6.7,3.87-12.11,13.24-12.09,20.94C462.08,221.28,463.43,224,465.61,225.23Z"/></clipPath><clipPath id="clip-path-14"><path class="cls-5" d="M110.14,188.08v-.17a.17.17,0,0,1-.1.13v.17A.17.17,0,0,0,110.14,188.08Z"/></clipPath><clipPath id="clip-path-15"><path class="cls-5" d="M108.93,188.24v.17c0,.05,0,.09.09.13a.51.51,0,0,0,.45,0v-.17a.51.51,0,0,1-.45,0C109,188.33,108.93,188.29,108.93,188.24Z"/></clipPath></defs><g class="cls-10"><g id="Layer_1" data-name="Layer 1"><path class="cls-11" d="M207.64,401.74a28.45,28.45,0,0,1-14.37-3.88l-125-73a16.24,16.24,0,0,1,0-28.07L285.54,170.61l105.21,61.83,81.14,46.85a17.95,17.95,0,0,1-.47,30.73L354.31,378.24a41.11,41.11,0,0,1-41.91-.31l-13.92-8.38a26.61,26.61,0,0,0-27-.24l-49.58,28.62A28.48,28.48,0,0,1,207.64,401.74Zm77.89-228.86L69.28,298.48a14.29,14.29,0,0,0,0,24.68l125,73a26.6,26.6,0,0,0,26.65.07l49.58-28.63a28.57,28.57,0,0,1,29,.26l13.92,8.38a39.15,39.15,0,0,0,39.91.29l117.12-68.22a16,16,0,0,0,.44-27.35l-81.12-46.83Z"/><g class="cls-12"><path class="cls-13" d="M281.39,428.76a22.36,22.36,0,0,1-11-2.62L221.75,398l.9-1.56,48.67,28.11c5.55,3.2,14.58,3.2,20.14,0l35.3-20.39c6-3.49,15.89-3.49,21.93,0l17.16,9.91-.9,1.56-17.16-9.91c-5.55-3.2-14.58-3.2-20.13,0l-35.3,20.38A22.41,22.41,0,0,1,281.39,428.76Z"/><path class="cls-14" d="M147.08,417.52c-6,2-13.78,1.46-18.89-1.49-5.65-3.27-14.85-3.27-20.49,0l-39.34,22.7-.9-1.55,39.34-22.71c6.14-3.55,16.14-3.55,22.29,0,5.65,3.26,14.84,3.26,20.48,0l10.73-6.2,8-4.63a6.69,6.69,0,0,1,1.78.71l.29.18-8.55,4.93L150.47,416a18.29,18.29,0,0,1-3.39,1.49Z"/><path class="cls-15" d="M122.11,382.65c-6,2-13.78,1.46-18.89-1.49-5.66-3.27-14.85-3.27-20.5,0L43.39,403.87l-.9-1.56L81.82,379.6c6.15-3.55,16.15-3.55,22.29,0,5.65,3.27,14.84,3.27,20.49,0l10.73-6.2,8-4.63a6.69,6.69,0,0,1,1.78.71l.29.18-8.56,4.93-11.37,6.57a18.9,18.9,0,0,1-3.39,1.49Z"/><path class="cls-16" d="M95.44,282.18,67.35,266A15.89,15.89,0,0,0,53,266c-4.46,2.57-11.71,2.57-16.17,0L17.45,254.79l.9-1.56,19.36,11.18a15.89,15.89,0,0,0,14.37,0c4.46-2.57,11.71-2.57,16.17,0l28.09,16.22Z"/><path class="cls-17" d="M170.11,409.3a9.53,9.53,0,0,1-8.26.16l-.32-.16a4.45,4.45,0,0,1-1.23-1c-1-1.29-.61-2.86,1.23-3.92a9.58,9.58,0,0,1,6.8-.71,6.69,6.69,0,0,1,1.78.71l.29.18C172.48,405.9,172.39,408,170.11,409.3Z"/><path class="cls-18" d="M187.59,430.93c0,2.67-1.73,5.14-4.88,7L148,457.94l-.9-1.56,34.73-20.05c2.57-1.48,4-3.4,4-5.4s-1.41-3.91-4-5.39l-13.6-7.85c-3.15-1.82-4.88-4.29-4.88-7s1.73-5.14,4.88-7l18-10.51,1.79,1-18.87,11c-2.57,1.48-4,3.39-4,5.39s1.41,3.92,4,5.4l13.6,7.85C185.86,425.8,187.59,428.27,187.59,430.93Z"/></g><g class="cls-12"><path class="cls-19" d="M196,425.93l.89,1.56L236.32,405c5.66-3.23,14.85-3.19,20.48.1,6.13,3.58,16.13,3.63,22.29.11l13.38-7.64a6.25,6.25,0,0,0-.5,2.4c0,2.67,1.71,5.15,4.85,7l13.56,7.92c2.56,1.49,4,3.42,4,5.41s-1.44,3.91-4,5.38L275.5,445.52l.89,1.56,34.83-19.89c3.16-1.8,4.9-4.26,4.91-6.93s-1.7-5.14-4.84-7l-13.57-7.92c-2.56-1.5-4-3.42-4-5.42s1.43-3.91,4-5.38l26.9-15.35-1.79-1.05-17.47,10,0-.05-27.2,15.53c-5.66,3.23-14.85,3.19-20.49-.1-6.12-3.58-16.12-3.63-22.28-.11Z"/><path class="cls-20" d="M223.45,234.69l-.89,1.56-39.34-22.71c-5.65-3.26-14.84-3.26-20.48,0-6.15,3.55-16.15,3.55-22.29,0l-13.35-7.7a6.24,6.24,0,0,1,.49,2.4c0,2.67-1.73,5.14-4.88,7l-13.6,7.85c-2.57,1.48-4,3.4-4,5.4s1.41,3.91,4,5.39l34.73,20-.9,1.56-34.73-20c-3.15-1.82-4.88-4.29-4.88-7s1.73-5.14,4.88-6.95l13.6-7.86c2.57-1.48,4-3.4,4-5.4s-1.41-3.91-4-5.39L95,187.36l1.8-1,17.42,10.05,0-.05L141.34,212c5.65,3.26,14.84,3.26,20.5,0,6.14-3.55,16.14-3.55,22.28,0Z"/><path class="cls-21" d="M401.45,395.17a22.82,22.82,0,0,1-11.14-2.66L359.82,374.9l.9-1.56L391.21,391c5.65,3.26,14.84,3.26,20.49,0l90-52,.9,1.56-90,52A22.84,22.84,0,0,1,401.45,395.17Z"/><path class="cls-22" d="M51.3,372.52a12.29,12.29,0,0,1-6-1.45l-15.85-9.16.9-1.56,15.85,9.16a11.48,11.48,0,0,0,10.22,0l46.8-27,.9,1.56-46.8,27A12.23,12.23,0,0,1,51.3,372.52Z"/><path class="cls-23" d="M447.2,389.62a22.5,22.5,0,0,1-11-2.62l-48.67-28.1.9-1.56,48.67,28.1c5.55,3.21,14.58,3.21,20.14,0l35.3-20.38c6.05-3.49,15.89-3.49,21.93,0L531.66,375l-.9,1.55-17.15-9.9c-5.56-3.21-14.59-3.21-20.14,0L458.17,387A22.52,22.52,0,0,1,447.2,389.62Z"/><path class="cls-24" d="M84.79,355,56.71,338.74a15.89,15.89,0,0,0-14.37,0c-4.46,2.57-11.72,2.57-16.17,0L6.8,327.56,7.7,326l19.36,11.18a15.91,15.91,0,0,0,14.38,0c4.46-2.58,11.71-2.58,16.17,0l28.08,16.21Z"/><path class="cls-25" d="M526.55,349l-28.08-16.21a15.91,15.91,0,0,0-14.38,0c-4.46,2.57-11.71,2.57-16.17,0l-19.36-11.18.9-1.56,19.36,11.18a15.89,15.89,0,0,0,14.37,0c4.46-2.57,11.72-2.57,16.17,0l28.09,16.22Z"/><path class="cls-26" d="M471.37,214l-28.08-16.22a16,16,0,0,0-14.37,0c-4.46,2.58-11.72,2.58-16.17,0l-19.37-11.18.9-1.55,19.37,11.18a16,16,0,0,0,14.37,0c4.46-2.58,11.71-2.58,16.17,0l28.08,16.21Z"/><path class="cls-27" d="M432.83,379.24a9.47,9.47,0,0,0-8.58,0c-2.36,1.37-2.36,3.59,0,5a9.53,9.53,0,0,0,8.58,0C435.2,382.83,435.2,380.61,432.83,379.24Z"/><path class="cls-28" d="M294.84,394.59a9.47,9.47,0,0,0-8.58,0c-2.37,1.36-2.37,3.58,0,5a9.47,9.47,0,0,0,8.58,0C297.21,398.17,297.21,396,294.84,394.59Z"/><path class="cls-29" d="M476.56,209.27a9.47,9.47,0,0,0-8.58,0c-2.37,1.37-2.37,3.59,0,4.95a9.47,9.47,0,0,0,8.58,0C478.93,212.86,478.93,210.64,476.56,209.27Z"/><path class="cls-30" d="M88.78,352.47a9.53,9.53,0,0,0-8.58,0c-2.37,1.37-2.37,3.59,0,5a9.47,9.47,0,0,0,8.58,0C91.15,356.06,91.15,353.84,88.78,352.47Z"/><path class="cls-31" d="M462.52,274l-.9-1.56,24.85-14.34c2.22-1.28,3.44-2.93,3.44-4.65s-1.22-3.36-3.44-4.64l-28-16.2c-2.8-1.61-4.34-3.81-4.34-6.2s1.54-4.59,4.34-6.2l27.21-15.72c5.43-3.13,14.27-3.13,19.69,0l16.59,9.58-.9,1.56L504.44,206c-4.94-2.85-13-2.85-17.9,0l-27.21,15.72c-2.22,1.28-3.45,2.93-3.45,4.64s1.23,3.37,3.45,4.65l28,16.19c2.8,1.61,4.34,3.82,4.34,6.2s-1.54,4.59-4.34,6.21Z"/></g><g class="cls-10"><path class="cls-32" d="M96.34,193.94l0-5.16c0,1.35.88,2.7,2.65,3.73L99,197.66C97.22,196.64,96.33,195.29,96.34,193.94Z"/><path class="cls-33" d="M221.8,192.5,167,224.36l0,5.16,54.82-31.86c1.74-1,2.61-2.34,2.62-3.67l0-5.16C224.41,190.17,223.54,191.5,221.8,192.5Z"/><path class="cls-34" d="M99,192.51c-1.77-1-2.66-2.38-2.65-3.73l0,5.16c0,1.35.88,2.7,2.65,3.72l55.18,31.86.05-5.15Z"/><g class="cls-10"><path class="cls-1" d="M167,224.36l0,5.16a14.13,14.13,0,0,1-12.76,0l.05-5.15A14.1,14.1,0,0,0,167,224.36Z"/><g class="cls-35"><g class="cls-10"><path class="cls-36" d="M167,224.36l0,5.16a14.13,14.13,0,0,1-12.76,0l.05-5.15a14.1,14.1,0,0,0,12.76,0Z"/></g></g></g><path class="cls-37" d="M221.76,185.11c3.52,2,3.54,5.36,0,7.39L167,224.36a14.1,14.1,0,0,1-12.76,0L99,192.51c-3.52-2-3.54-5.36,0-7.4l54.82-31.86a14.13,14.13,0,0,1,12.76,0Z"/></g><g class="cls-10"><path class="cls-38" d="M216.11,162.09,166.37,191l-.06,29.07,49.74-28.9c1.58-.92,2.37-2.12,2.37-3.33l.06-29.08A4,4,0,0,1,216.11,162.09Z"/><path class="cls-39" d="M104.73,162.09c-1.61-.92-2.42-2.15-2.41-3.37l-.06,29.07c0,1.23.8,2.45,2.41,3.38l50.06,28.91.06-29.08Z"/><g class="cls-10"><path class="cls-2" d="M166.37,191l-.06,29.07a12.81,12.81,0,0,1-11.58,0l.06-29.08A12.84,12.84,0,0,0,166.37,191Z"/><g class="cls-40"><g class="cls-10"><path class="cls-41" d="M166.37,191l-.06,29.07a12.81,12.81,0,0,1-11.58,0l.06-29.08a12.84,12.84,0,0,0,11.58,0Z"/></g></g></g><path class="cls-42" d="M216.07,155.39c3.2,1.84,3.21,4.86,0,6.7L166.37,191a12.84,12.84,0,0,1-11.58,0l-50.06-28.91c-3.2-1.84-3.22-4.86,0-6.7l49.74-28.91a12.84,12.84,0,0,1,11.58,0Z"/></g><g class="cls-10"><path class="cls-43" d="M96.34,157.26l0-5.16c0,1.35.88,2.7,2.65,3.72L99,161C97.22,160,96.33,158.6,96.34,157.26Z"/><path class="cls-44" d="M221.8,155.82,167,187.68l0,5.16L221.75,161c1.74-1,2.61-2.34,2.62-3.67l0-5.16C224.41,153.48,223.54,154.81,221.8,155.82Z"/><path class="cls-45" d="M99,155.82c-1.77-1-2.66-2.37-2.65-3.72l0,5.16c0,1.34.88,2.7,2.65,3.72l55.18,31.86.05-5.16Z"/><g class="cls-10"><path class="cls-6" d="M167,187.68l0,5.16a14.13,14.13,0,0,1-12.76,0l.05-5.16A14.13,14.13,0,0,0,167,187.68Z"/><g class="cls-46"><g class="cls-10"><path class="cls-47" d="M167,187.68l0,5.16a14.13,14.13,0,0,1-12.76,0l.05-5.16a14.13,14.13,0,0,0,12.76,0Z"/></g></g></g><path class="cls-48" d="M221.76,148.43c3.52,2,3.54,5.36,0,7.39L167,187.68a14.13,14.13,0,0,1-12.76,0L99,155.82c-3.52-2-3.54-5.36,0-7.39l54.82-31.86a14.13,14.13,0,0,1,12.76,0Z"/></g><g class="cls-10"><path class="cls-49" d="M216.11,125.41l-49.74,28.9-.06,29.08,49.74-28.91a4,4,0,0,0,2.37-3.33l.06-29.07C218.48,123.29,217.69,124.49,216.11,125.41Z"/><path class="cls-39" d="M104.73,125.41c-1.61-.93-2.42-2.15-2.41-3.38l-.06,29.08a4.11,4.11,0,0,0,2.41,3.38l50.06,28.9.06-29.07Z"/><g class="cls-10"><path class="cls-7" d="M166.37,154.31l-.06,29.08a12.84,12.84,0,0,1-11.58,0l.06-29.07A12.81,12.81,0,0,0,166.37,154.31Z"/><g class="cls-50"><g class="cls-10"><path class="cls-51" d="M166.37,154.31l-.06,29.08a12.84,12.84,0,0,1-11.58,0l.06-29.07a12.81,12.81,0,0,0,11.58,0Z"/></g></g></g><path class="cls-52" d="M216.07,118.7c3.2,1.85,3.21,4.86,0,6.71l-49.74,28.9a12.81,12.81,0,0,1-11.58,0l-50.06-28.91c-3.2-1.84-3.22-4.86,0-6.71l49.74-28.9a12.77,12.77,0,0,1,11.58,0Z"/></g><g class="cls-10"><path class="cls-53" d="M96.34,121.26l0-5.15c0,1.35.88,2.7,2.65,3.72L99,125C97.22,124,96.33,122.61,96.34,121.26Z"/><path class="cls-54" d="M221.8,119.83,167,151.69l0,5.15L221.75,125c1.74-1,2.61-2.34,2.62-3.67l0-5.15C224.41,117.49,223.54,118.82,221.8,119.83Z"/><path class="cls-55" d="M99,119.83c-1.77-1-2.66-2.37-2.65-3.72l0,5.15c0,1.35.88,2.7,2.65,3.73l55.18,31.85.05-5.15Z"/><g class="cls-10"><path class="cls-8" d="M167,151.69l0,5.15a14.07,14.07,0,0,1-12.76,0l.05-5.15A14.13,14.13,0,0,0,167,151.69Z"/><g class="cls-56"><g class="cls-10"><path class="cls-57" d="M167,151.69l0,5.15a14.07,14.07,0,0,1-12.76,0l.05-5.15a14.13,14.13,0,0,0,12.76,0Z"/></g></g></g><path class="cls-58" d="M221.76,112.44c3.52,2,3.54,5.35,0,7.39L167,151.69a14.13,14.13,0,0,1-12.76,0L99,119.83c-3.52-2-3.54-5.36,0-7.39l54.82-31.86a14.07,14.07,0,0,1,12.76,0Z"/></g><g class="cls-10"><g class="cls-10"><path class="cls-59" d="M248.11,20.93l-3.64-2.06a2.82,2.82,0,0,1,.8-.34l3.64,2.07a2.52,2.52,0,0,0-.8.33Z"/><path class="cls-59" d="M248.91,20.6l-3.64-2.07a1.52,1.52,0,0,1,1.07.13L250,20.72a1.5,1.5,0,0,0-1.08-.12Z"/></g><g class="cls-10"><path class="cls-60" d="M192.27,90.3l-3.65-2.07a1.77,1.77,0,0,1-.75-1.61l3.64,2.07a1.77,1.77,0,0,0,.76,1.61Z"/></g><polygon class="cls-59" points="215.31 40.35 211.66 38.29 244.47 18.87 248.11 20.93 215.31 40.35"/><g class="cls-10"><path class="cls-59" d="M210.71,37l-3.64-2.06a3.79,3.79,0,0,1,1-.39l3.64,2.07a3.55,3.55,0,0,0-1,.38Z"/><path class="cls-59" d="M211.68,36.61,208,34.54a2.4,2.4,0,0,1,1.69.21l3.64,2.06a2.35,2.35,0,0,0-1.69-.2Z"/></g><polygon class="cls-59" points="191.51 88.69 187.87 86.62 186.21 50.15 189.85 52.21 191.51 88.69"/><polygon class="cls-59" points="192.42 47.62 188.78 45.56 207.07 34.93 210.71 36.99 192.42 47.62"/><g class="cls-10"><path class="cls-59" d="M189.85,52.21l-3.65-2.06a5.79,5.79,0,0,1,1.32-3.46l3.64,2.07a5.69,5.69,0,0,0-1.31,3.45Z"/><path class="cls-59" d="M191.16,48.76l-3.64-2.07a4.77,4.77,0,0,1,1.26-1.13l3.64,2.06a4.82,4.82,0,0,0-1.26,1.14Z"/></g><path class="cls-60" d="M192.42,47.62,210.71,37c1.38-.81,2.93-.5,3.44.7l1.16,2.66,32.8-19.42c1.45-.86,2.64-.2,2.66,1.47l-.7,31.53a5.52,5.52,0,0,1-2.46,4.38L194.06,90.1c-1.38.82-2.52.19-2.55-1.41l-1.66-36.48A5.8,5.8,0,0,1,192.42,47.62Z"/></g><g class="cls-10"><polygon class="cls-61" points="191.73 72.54 190.08 72.56 188.32 56.86 190.15 57.89 191.73 72.54"/><polygon class="cls-62" points="190.15 57.89 188.32 56.86 244.52 19.72 246.34 20.75 190.15 57.89"/><polygon class="cls-63" points="246.34 20.75 247.91 35.41 191.73 72.54 190.15 57.89 246.34 20.75"/></g><path class="cls-60" d="M214.34,58.93a8.63,8.63,0,0,1,1.5-2.68,7.9,7.9,0,0,1,2.08-1.89L250,35.09a3.22,3.22,0,0,1,1-.4,1.57,1.57,0,0,1,1.17.12l-3.64-2.06a1.62,1.62,0,0,0-1.17-.13,3.5,3.5,0,0,0-1,.4L214.27,52.29a8.26,8.26,0,0,0-2.07,1.9,8.74,8.74,0,0,0-1.51,2.67l-1.13,3.67L188.16,73.3a5.74,5.74,0,0,0-1.53,1.35,5.17,5.17,0,0,0-1.24,3l1.62,27a1.41,1.41,0,0,0,.65,1.3l3.64,2.06a1.4,1.4,0,0,1-.65-1.3l-1.61-27a5.14,5.14,0,0,1,1.23-3,5.74,5.74,0,0,1,1.53-1.35L213.21,62.6Z"/><path class="cls-64" d="M250,35.09c1.54-.91,2.81-.41,2.83,1.1l-.73,34.13a5.53,5.53,0,0,1-2.64,4.2l-56.08,33.3c-1.47.87-2.69.39-2.71-1l-1.61-27a5.79,5.79,0,0,1,2.76-4.39L213.21,62.6l1.13-3.67a9.22,9.22,0,0,1,3.58-4.57Z"/><g class="cls-10"><polygon class="cls-65" points="444.3 195.47 444.28 286.84 359.03 336.39 359.05 245.03 444.3 195.47"/><polygon class="cls-66" points="359.05 245.03 359.03 336.39 235.11 264.69 235.13 173.33 359.05 245.03"/><polygon class="cls-67" points="444.3 195.47 359.05 245.03 235.13 173.33 320.39 123.78 444.3 195.47"/></g><g class="cls-10"><polygon class="cls-68" points="439.04 185.95 439.04 194.34 359.01 240.86 359.01 232.47 439.04 185.95"/><polygon class="cls-39" points="359.01 232.47 359.01 240.86 240.36 172.2 240.36 163.81 359.01 232.47"/><polygon class="cls-69" points="439.04 185.95 359.01 232.47 240.36 163.81 308.87 123.99 439.04 185.95"/></g><g class="cls-10"><polygon class="cls-70" points="444.3 156.77 444.28 183.92 359.03 233.48 359.05 206.32 444.3 156.77"/><polygon class="cls-71" points="359.05 206.32 359.03 233.47 235.11 161.78 235.13 134.62 359.05 206.32"/><polygon class="cls-72" points="238.37 159.87 238.91 141.19 355.24 208.51 354.7 227.19 238.37 159.87"/><polygon class="cls-73" points="444.3 156.77 359.05 206.32 235.13 134.63 320.39 85.07 444.3 156.77"/></g><polygon class="cls-3" points="361.49 208.15 442.78 161.16 442.78 182.38 361.49 229.36 361.49 208.15"/><polygon class="cls-74" points="363.5 208.71 392.8 191.71 392.8 209.81 363.5 226.81 363.5 208.71"/><polygon class="cls-75" points="372.93 208.53 364.96 213.13 364.96 222.4 372.93 217.81 372.93 208.53"/><polygon class="cls-75" points="382.25 203.17 374.29 207.77 374.29 217.04 382.25 212.45 382.25 203.17"/><polygon class="cls-75" points="391.33 197.88 383.37 202.47 383.37 211.75 391.33 207.15 391.33 197.88"/><polygon class="cls-74" points="416.3 196.51 418.11 195.47 418.11 177.02 416.3 178.07 416.3 196.51"/><polygon class="cls-74" points="412.62 198.64 414.43 197.59 414.43 179.15 412.62 180.2 412.62 198.64"/><polygon class="cls-74" points="408.94 200.76 410.76 199.71 410.76 181.27 408.94 182.32 408.94 200.76"/><polygon class="cls-74" points="405.26 202.88 407.08 201.84 407.08 183.4 405.26 184.44 405.26 202.88"/><polygon class="cls-74" points="401.58 205.01 403.4 203.96 403.4 185.52 401.58 186.57 401.58 205.01"/><polygon class="cls-74" points="397.91 207.13 399.72 206.08 399.72 187.64 397.91 188.69 397.91 207.13"/><polygon class="cls-74" points="394.23 209.26 396.05 208.2 396.05 189.77 394.23 190.81 394.23 209.26"/><g class="cls-10"><polygon class="cls-76" points="439.04 148.1 439.04 156.49 359.01 203 359.01 194.61 439.04 148.1"/><polygon class="cls-39" points="359.01 194.61 359.01 203 240.36 134.34 240.36 125.95 359.01 194.61"/><polygon class="cls-69" points="439.04 148.1 359.01 194.61 240.36 125.95 308.87 86.14 439.04 148.1"/></g><g class="cls-10"><polygon class="cls-77" points="444.3 118.91 444.28 146.06 359.03 195.62 359.05 168.47 444.3 118.91"/><polygon class="cls-78" points="359.05 168.47 359.03 195.62 235.11 123.92 235.13 96.77 359.05 168.47"/><polygon class="cls-79" points="238.37 122.01 238.91 103.33 355.24 170.65 354.7 189.33 238.37 122.01"/><polygon class="cls-80" points="444.3 118.91 359.05 168.47 235.13 96.77 320.39 47.22 444.3 118.91"/></g><polygon class="cls-3" points="361.49 170.29 442.78 123.31 442.78 144.52 361.49 191.5 361.49 170.29"/><polygon class="cls-74" points="363.5 170.85 392.8 153.86 392.8 171.96 363.5 188.95 363.5 170.85"/><polygon class="cls-75" points="372.93 170.68 364.96 175.28 364.96 184.55 372.93 179.95 372.93 170.68"/><polygon class="cls-75" points="382.25 165.32 374.29 169.91 374.29 179.19 382.25 174.59 382.25 165.32"/><polygon class="cls-75" points="391.33 160.02 383.37 164.62 383.37 173.89 391.33 169.29 391.33 160.02"/><polygon class="cls-74" points="416.3 158.66 418.11 157.61 418.11 139.17 416.3 140.22 416.3 158.66"/><polygon class="cls-74" points="412.62 160.78 414.43 159.73 414.43 141.29 412.62 142.34 412.62 160.78"/><polygon class="cls-74" points="408.94 162.91 410.76 161.86 410.76 143.42 408.94 144.47 408.94 162.91"/><polygon class="cls-74" points="405.26 165.03 407.08 163.98 407.08 145.54 405.26 146.59 405.26 165.03"/><polygon class="cls-74" points="401.58 167.15 403.4 166.1 403.4 147.66 401.58 148.71 401.58 167.15"/><polygon class="cls-74" points="397.91 169.28 399.72 168.22 399.72 149.79 397.91 150.84 397.91 169.28"/><polygon class="cls-74" points="394.23 171.4 396.05 170.35 396.05 151.91 394.23 152.96 394.23 171.4"/><g class="cls-10"><polygon class="cls-81" points="439.04 109.63 439.04 118.02 359.01 164.54 359.01 156.15 439.04 109.63"/><polygon class="cls-39" points="359.01 156.15 359.01 164.54 240.36 95.88 240.36 87.49 359.01 156.15"/><polygon class="cls-69" points="439.04 109.63 359.01 156.15 240.36 87.49 308.87 47.68 439.04 109.63"/></g><g class="cls-10"><polygon class="cls-82" points="444.3 80.45 444.28 107.6 359.03 157.16 359.05 130 444.3 80.45"/><polygon class="cls-83" points="359.05 130 359.03 157.16 235.11 85.46 235.13 58.31 359.05 130"/><polygon class="cls-84" points="238.37 83.55 238.91 64.87 355.24 132.19 354.7 150.87 238.37 83.55"/><polygon class="cls-85" points="444.3 80.45 359.05 130 235.13 58.31 320.39 8.75 444.3 80.45"/></g><polygon class="cls-3" points="361.49 131.83 442.78 84.84 442.78 106.06 361.49 153.04 361.49 131.83"/><polygon class="cls-74" points="363.5 132.39 392.8 115.39 392.8 133.49 363.5 150.49 363.5 132.39"/><polygon class="cls-75" points="372.93 132.22 364.96 136.81 364.96 146.09 372.93 141.49 372.93 132.22"/><polygon class="cls-75" points="382.25 126.86 374.29 131.45 374.29 140.73 382.25 136.13 382.25 126.86"/><polygon class="cls-75" points="391.33 121.56 383.37 126.15 383.37 135.43 391.33 130.83 391.33 121.56"/><polygon class="cls-74" points="416.3 120.2 418.11 119.15 418.11 100.7 416.3 101.76 416.3 120.2"/><polygon class="cls-74" points="412.62 122.32 414.43 121.27 414.43 102.83 412.62 103.88 412.62 122.32"/><polygon class="cls-74" points="408.94 124.44 410.76 123.39 410.76 104.95 408.94 106 408.94 124.44"/><polygon class="cls-74" points="405.26 126.57 407.08 125.52 407.08 107.08 405.26 108.13 405.26 126.57"/><polygon class="cls-74" points="401.58 128.69 403.4 127.64 403.4 109.2 401.58 110.25 401.58 128.69"/><polygon class="cls-74" points="397.91 130.81 399.72 129.76 399.72 111.33 397.91 112.38 397.91 130.81"/><polygon class="cls-74" points="394.23 132.94 396.05 131.88 396.05 113.45 394.23 114.5 394.23 132.94"/><path class="cls-86" d="M290.62,228.14,175.09,161c-3.15-1.83-5.75-.39-5.76,3.25l-.44,83a12.79,12.79,0,0,0,5.7,9.9l115.53,67.1c3.16,1.84,5.72.37,5.75-3.24l.43-83A12.66,12.66,0,0,0,290.62,228.14Z"/><rect class="cls-87" x="181.59" y="263.15" width="3.32" height="4.56"/><path class="cls-88" d="M291.23,326.9h-3.08v3.37L173.3,263.56a12.46,12.46,0,0,0-11.4,0L80.22,305.45v7.36h0A4.17,4.17,0,0,0,82.59,316l115.55,67.1a12.68,12.68,0,0,0,11.4.05l79.34-45.79a4.11,4.11,0,0,0,2.33-3.14h0Z"/><path class="cls-89" d="M288.88,330.15,209.54,376a12.73,12.73,0,0,1-11.41-.06L82.58,308.79c-3.13-1.83-3.15-4.8,0-6.6l79.32-45.8a12.44,12.44,0,0,1,11.39,0l11.61,6.74-2.19,1.26,83.9,48.43,1.94-1.12,20.3,11.8C292,325.36,292,328.33,288.88,330.15Z"/><path class="cls-90" d="M173.4,159.27c.51-.32,1.07-.62,1.62-.94a4.11,4.11,0,0,1,4.08.4l115.54,67.12a12.62,12.62,0,0,1,5.64,9.88l-.4,83a4,4,0,0,1-1.68,3.67c-1.37.79-2.74,1.57-4.08,2.36a4,4,0,0,0,1.67-3.66l.42-83a12.63,12.63,0,0,0-5.68-9.91L175,161.1c-1.6-.93-3.05-1-4.08-.43Z"/><path class="cls-91" d="M274.07,341.85a4.62,4.62,0,0,1-1.93,3.68c-1.06.62-1.92,0-1.92-1.45a4.61,4.61,0,0,1,1.92-3.68C273.2,339.78,274.07,340.44,274.07,341.85Z"/><path class="cls-92" d="M270.44,344.48a4.6,4.6,0,0,0,1.92-3.67,2.49,2.49,0,0,0,0-.49c1-.44,1.75.2,1.75,1.53a4.62,4.62,0,0,1-1.93,3.68c-.93.54-1.71.11-1.89-1A.64.64,0,0,0,270.44,344.48Z"/><path class="cls-93" d="M271.61,345.24a4.62,4.62,0,0,0,1.92-3.68,1.92,1.92,0,0,0-.44-1.36c.58.11,1,.7,1,1.65a4.62,4.62,0,0,1-1.93,3.68,1.13,1.13,0,0,1-1.48-.09A1.4,1.4,0,0,0,271.61,345.24Z"/><path class="cls-91" d="M267.26,345.81a4.61,4.61,0,0,1-1.92,3.68c-1.07.62-1.93,0-1.93-1.45a4.59,4.59,0,0,1,1.93-3.68C266.4,343.74,267.26,344.4,267.26,345.81Z"/><path class="cls-92" d="M263.63,348.45a4.65,4.65,0,0,0,1.93-3.69,3.58,3.58,0,0,0,0-.48c1-.44,1.74.2,1.74,1.53a4.61,4.61,0,0,1-1.92,3.68c-.93.54-1.71.11-1.89-1Z"/><path class="cls-93" d="M264.8,349.2a4.62,4.62,0,0,0,1.93-3.68,1.92,1.92,0,0,0-.44-1.36c.58.1,1,.7,1,1.65a4.61,4.61,0,0,1-1.92,3.68,1.14,1.14,0,0,1-1.49-.09A1.39,1.39,0,0,0,264.8,349.2Z"/><path class="cls-94" d="M276.89,327a7.31,7.31,0,0,1-3.38,3.52L233,354.11c-4.38,2.53-11,2.8-14.81.61L115.59,295.56l-.12-.08a5,5,0,0,1-2.2-2.37c-.79-2,.38-4.36,3.39-6.09l40.54-23.56c4.38-2.52,11-2.79,14.8-.61L274.57,322a5.21,5.21,0,0,1,2.17,2.12A3.56,3.56,0,0,1,276.89,327Z"/><path class="cls-93" d="M276.89,327a7.31,7.31,0,0,1-3.38,3.52L233,354.11c-4.38,2.53-11,2.8-14.81.61L115.59,295.56l-.12-.08a5,5,0,0,1-2.2-2.37,7.37,7.37,0,0,1,3.39-3.54L157.2,266c4.38-2.54,11-2.8,14.8-.62l102.57,59.17a5.26,5.26,0,0,1,2.17,2.11A2.75,2.75,0,0,1,276.89,327Z"/><polygon class="cls-92" points="171.88 279.07 163.84 283.69 172.12 288.53 180.14 283.92 171.88 279.07"/><polygon class="cls-92" points="159.07 282.99 151.06 287.59 159.35 292.42 167.37 287.83 159.07 282.99"/><polygon class="cls-92" points="147.54 276.87 138.26 282.18 132.92 285.24 130.24 286.79 144.21 294.94 152.23 290.36 147.93 287.85 157.21 282.48 147.54 276.87"/><polygon class="cls-92" points="168.41 288.41 160.38 293.04 168.67 297.87 176.66 293.26 168.41 288.41"/><polygon class="cls-92" points="128.38 287.85 120.36 292.47 137.44 302.46 145.46 297.84 128.38 287.85"/><polygon class="cls-92" points="146.28 298.32 138.26 302.92 151.21 310.48 159.25 305.87 146.28 298.32"/><polygon class="cls-92" points="171.84 301.81 163.8 306.42 172.1 311.24 180.11 306.65 171.84 301.81"/><polygon class="cls-92" points="167.7 265.26 159.69 269.88 167.98 274.71 176 270.1 167.7 265.26"/><polygon class="cls-92" points="177.56 271.01 169.55 275.62 177.83 280.47 185.86 275.86 177.56 271.01"/><polygon class="cls-92" points="157.88 270.91 149.86 275.51 162.69 283.02 170.72 278.4 157.88 270.91"/><polygon class="cls-92" points="187.43 276.78 179.4 281.39 187.69 286.22 195.72 281.62 187.43 276.78"/><polygon class="cls-92" points="197.3 282.55 189.27 287.17 197.56 291.98 205.57 287.39 197.3 282.55"/><polygon class="cls-92" points="181.3 284.58 173.27 289.17 181.56 294.04 189.57 289.41 181.3 284.58"/><polygon class="cls-92" points="207.16 288.31 199.11 292.9 207.41 297.76 215.44 293.13 207.16 288.31"/><polygon class="cls-92" points="190.73 290.08 182.71 294.7 190.99 299.52 199.01 294.93 190.73 290.08"/><polygon class="cls-92" points="153.3 290.96 145.28 295.59 153.57 300.44 161.58 295.82 153.3 290.96"/><polygon class="cls-92" points="217.02 294.05 209 298.68 217.27 303.52 225.32 298.91 217.02 294.05"/><polygon class="cls-92" points="177.72 293.88 169.7 298.47 177.97 303.31 185.99 298.7 177.72 293.88"/><polygon class="cls-92" points="200.16 295.59 192.14 300.18 200.42 305.04 208.44 300.44 200.16 295.59"/><polygon class="cls-92" points="162.63 296.43 154.61 301.03 162.86 305.87 170.92 301.27 162.63 296.43"/><polygon class="cls-92" points="187.03 299.3 179.01 303.92 187.28 308.75 195.32 304.14 187.03 299.3"/><polygon class="cls-92" points="226.88 299.83 218.85 304.44 227.13 309.26 235.18 304.67 226.88 299.83"/><polygon class="cls-92" points="209.59 301.1 201.56 305.7 209.84 310.53 217.86 305.93 209.59 301.1"/><polygon class="cls-92" points="196.36 304.75 188.34 309.35 196.62 314.2 204.65 309.58 196.36 304.75"/><polygon class="cls-92" points="236.74 305.59 228.72 310.19 237.01 315.02 245.02 310.43 236.74 305.59"/><polygon class="cls-92" points="219.02 306.6 210.98 311.19 219.27 316.05 227.31 311.43 219.02 306.6"/><polygon class="cls-92" points="181.46 307.44 173.45 312.03 181.72 316.88 189.75 312.26 181.46 307.44"/><polygon class="cls-92" points="205.68 310.18 197.66 314.79 205.93 319.65 213.98 315.02 205.68 310.18"/><polygon class="cls-92" points="246.62 311.34 238.58 315.94 246.86 320.8 254.89 316.18 246.62 311.34"/><polygon class="cls-92" points="228.45 312.11 220.39 316.71 228.71 321.56 236.74 316.94 228.45 312.11"/><polygon class="cls-92" points="190.69 312.81 182.64 317.42 190.93 322.25 198.97 317.64 190.69 312.81"/><polygon class="cls-92" points="215 315.64 206.98 320.25 215.27 325.08 223.3 320.49 215 315.64"/><polygon class="cls-92" points="199.98 318.25 191.98 322.86 200.27 327.69 208.27 323.09 199.98 318.25"/><polygon class="cls-92" points="260.2 319.29 252.18 323.9 260.49 328.74 268.49 324.14 260.2 319.29"/><polygon class="cls-92" points="224.31 321.07 216.28 325.69 224.58 330.53 232.6 325.92 224.31 321.07"/><polygon class="cls-92" points="160.07 306.36 152.05 310.99 188.44 332.23 196.45 327.61 160.07 306.36"/><polygon class="cls-92" points="209.2 323.63 201.18 328.24 209.47 333.08 217.51 328.48 209.2 323.63"/><polygon class="cls-92" points="238.28 317.86 230.26 322.45 250.66 334.38 258.67 329.79 238.28 317.86"/><polygon class="cls-92" points="233.67 326.54 225.64 331.14 240.83 340.03 248.86 335.4 233.67 326.54"/><polygon class="cls-92" points="197.63 328.3 189.62 332.92 202.56 340.48 210.59 335.87 197.63 328.3"/><polygon class="cls-92" points="218.62 329.14 210.64 333.75 231.02 345.65 239.04 341.05 218.62 329.14"/><polygon class="cls-92" points="211.63 336.48 203.59 341.09 221.15 351.33 229.16 346.73 211.63 336.48"/><path class="cls-95" d="M172.12,336.21a5.35,5.35,0,0,1-2.26,2.18l-7.18,4.29c-3.12,1.81-7.85,2-10.56.44l-18.65-10.75a3.92,3.92,0,0,1-1.5-1.43c-.84-1.5,0-3.35,2.26-4.68l7.18-4.29c3.12-1.8,7.85-2,10.56-.43l18.65,10.75C172.36,333.31,172.84,334.8,172.12,336.21Z"/><path class="cls-93" d="M172.12,336.21a5.35,5.35,0,0,1-2.26,2.18l-7.18,4.29c-3.12,1.81-7.85,2-10.56.44l-18.65-10.75a3.92,3.92,0,0,1-1.5-1.43,5.49,5.49,0,0,1,2.26-2.19l7.18-4.29c3.12-1.8,7.85-2,10.56-.43l18.65,10.75A3.85,3.85,0,0,1,172.12,336.21Z"/><path class="cls-96" d="M233.09,201.42a5,5,0,0,0,2.09,4c1.15.67,2.09,0,2.09-1.58a5,5,0,0,0-2.09-4C234,199.17,233.09,199.88,233.09,201.42Z"/><polygon class="cls-97" points="175.05 250.15 288.46 316.84 288.46 239.58 175.05 172.9 175.05 250.15"/><polygon class="cls-94" points="177 174.02 177 249.09 288.46 314.65 288.46 316.84 175.05 250.15 175.05 172.9 177 174.02"/><polygon class="cls-93" points="288.46 316.84 175.05 250.15 177 249.09 288.46 314.65 288.46 316.84"/><polygon class="cls-93" points="276.5 343.41 283.85 339.24 283.85 334.04 276.5 338.22 276.5 343.41"/><polygon class="cls-92" points="282.35 338.37 276.8 341.51 276.8 342.89 283.55 339.06 283.55 339.06 282.35 338.37"/><polygon class="cls-91" points="276.8 338.39 276.8 341.51 282.35 338.37 282.35 335.26 282.05 335.43 276.8 338.39"/><polygon class="cls-98" points="276.8 338.86 276.8 341.06 282.05 338.1 282.05 335.89 276.8 338.86"/><polygon class="cls-99" points="283.55 337.68 283.55 334.57 282.35 335.26 282.35 338.37 283.55 339.06 283.55 337.68"/><path class="cls-100" d="M233.08,207c-19.66,8.43-39.11,17.42-58,27.79v15.34l5.45,3.21c24.7-11.43,49.86-22.2,74.95-33.19Z"/><path class="cls-100" d="M207.39,191.91c-11,5.47-21.8,11.26-32.34,17.46v5.28a413.88,413.88,0,0,1,37.88-19.48Z"/><polygon class="cls-93" points="219.03 376.42 221.75 374.85 221.75 369.7 219.03 371.27 219.03 376.42"/><polygon class="cls-101" points="220.27 373.99 219.32 374.53 219.32 375.9 221.45 374.68 221.45 374.68 220.27 373.99"/><polygon class="cls-102" points="219.32 371.44 219.32 374.53 220.27 373.99 220.27 370.91 219.97 371.08 219.32 371.44"/><polygon class="cls-103" points="219.32 371.9 219.32 374.09 219.97 373.72 219.97 371.54 219.32 371.9"/><polygon class="cls-103" points="221.45 373.31 221.45 370.22 220.27 370.91 220.27 373.99 221.45 374.68 221.45 373.31"/><polygon class="cls-93" points="223.13 374.26 225.85 372.7 225.85 367.55 223.13 369.12 223.13 374.26"/><polygon class="cls-101" points="224.37 371.84 223.43 372.38 223.43 373.75 225.55 372.52 225.55 372.52 224.37 371.84"/><polygon class="cls-102" points="223.43 369.29 223.43 372.38 224.37 371.84 224.37 368.75 224.07 368.92 223.43 369.29"/><polygon class="cls-103" points="223.43 369.75 223.43 371.94 224.07 371.57 224.07 369.39 223.43 369.75"/><polygon class="cls-103" points="225.55 371.15 225.55 368.07 224.37 368.75 224.37 371.84 225.55 372.52 225.55 371.15"/><g class="cls-10"><g class="cls-10"><path class="cls-9" d="M325.09,100.72l9.06-5.27c-5.06,3-8.2,9.2-8.23,18.09-.05,17.9,12.54,39.69,28.11,48.68L345,167.49c-15.57-9-28.16-30.78-28.11-48.68C316.89,109.92,320,103.66,325.09,100.72Z"/><g class="cls-104"><g class="cls-10"><path class="cls-9" d="M325.09,100.72l9.06-5.27c-4.61,2.68-7.62,8.1-8.14,15.76l-9.07,5.26c.53-7.65,3.54-13.07,8.15-15.75Z"/><path class="cls-9" d="M316.94,116.47l9.07-5.26c-.06.75-.08,1.53-.09,2.33a45.4,45.4,0,0,0,1,9.28l-9.06,5.27a44.71,44.71,0,0,1-1-9.28c0-.8,0-1.58.08-2.34Z"/><path class="cls-9" d="M317.86,128.09l9.06-5.27c3.08,14.67,12.9,30,24.85,38l-9.06,5.26c-11.95-8-21.77-23.32-24.85-38Z"/><path class="cls-9" d="M342.71,166.08l9.06-5.26c.74.49,1.5,1,2.26,1.4L345,167.49c-.76-.44-1.52-.91-2.26-1.41Z"/></g></g></g><g class="cls-10"><path class="cls-9" d="M374.1,164.19,365,169.46c-5.13,3-12.23,2.56-20.07-2l9.06-5.27C361.87,166.75,369,167.17,374.1,164.19Z"/><g class="cls-105"><path class="cls-9" d="M345,167.49l9.06-5.27a30.47,30.47,0,0,0,7.37,3.14l-9.06,5.27a30.87,30.87,0,0,1-7.37-3.14Z"/><path class="cls-9" d="M352.34,170.63l9.06-5.27c4.88,1.31,9.24.84,12.7-1.17L365,169.46c-3.46,2-7.82,2.47-12.7,1.17Z"/></g></g><path class="cls-3" d="M316.64,86.17l9.06-5.26c7.29-4.24,17.4-3.65,28.55,2.79L345.19,89C334,82.53,323.93,81.93,316.64,86.17Z"/><g class="cls-106"><g class="cls-10"><path class="cls-3" d="M316.64,86.17l9.06-5.26c4.92-2.87,11.13-3.52,18.07-1.67l-9.06,5.27c-6.94-1.86-13.15-1.2-18.07,1.66Z"/><path class="cls-3" d="M334.71,84.51l9.06-5.27a43.57,43.57,0,0,1,10.48,4.46L345.19,89a43.17,43.17,0,0,0-10.48-4.46Z"/></g></g><g class="cls-10"><path class="cls-3" d="M382.55,178.74,373.49,184c7.21-4.19,11.68-13.09,11.71-25.75.07-25.47-17.84-56.49-40-69.29l9.06-5.27c22.17,12.8,40.09,43.83,40,69.3C394.23,165.65,389.76,174.56,382.55,178.74Z"/><g class="cls-107"><g class="cls-10"><path class="cls-3" d="M345.19,89l9.06-5.27c1.09.63,2.16,1.3,3.23,2L348.41,91c-1.06-.71-2.13-1.38-3.22-2Z"/><path class="cls-108" d="M348.41,91l9.07-5.26c17,11.37,31,33.21,35.36,54.08l-9.06,5.27c-4.38-20.88-18.36-42.71-35.37-54.09Z"/><path class="cls-3" d="M383.78,145.06l9.06-5.27A64,64,0,0,1,394.26,153c0,1.13,0,2.24-.11,3.32l-9.06,5.26c.07-1.07.11-2.18.11-3.32a63.8,63.8,0,0,0-1.42-13.2Z"/><path class="cls-3" d="M385.09,161.58l9.06-5.26c-.75,10.89-5,18.61-11.6,22.42L373.49,184c6.56-3.81,10.85-11.53,11.6-22.43Z"/></g></g></g><path class="cls-109" d="M345.19,89c22.17,12.8,40.08,43.82,40,69.29s-18.1,35.75-40.27,23-40.08-43.82-40-69.3S323,76.17,345.19,89ZM345,167.49c15.58,9,28.24,1.78,28.29-16.12s-12.53-39.69-28.11-48.69-28.24-1.77-28.29,16.13S329.4,158.5,345,167.49Z"/></g><g class="cls-10"><g class="cls-10"><path class="cls-3" d="M395.86,154.23l16.52,9.6c-1.11-.64-2.66-.55-4.36.43l-16.52-9.6C393.2,153.68,394.75,153.59,395.86,154.23Z"/><g class="cls-110"><g class="cls-10"><path class="cls-111" d="M408,164.26l-16.52-9.6a6.8,6.8,0,0,1,1.28-.58l16.52,9.59a7.59,7.59,0,0,0-1.28.59Z"/><path class="cls-111" d="M409.3,163.67l-16.52-9.59a4.5,4.5,0,0,1,1.8-.25l16.51,9.6a4.46,4.46,0,0,0-1.79.24Z"/><path class="cls-111" d="M411.09,163.43l-16.51-9.6a3.2,3.2,0,0,1,1.28.4l16.52,9.6a3.2,3.2,0,0,0-1.29-.4Z"/></g></g></g><g class="cls-10"><path class="cls-3" d="M403.7,178.77l-16.52-9.6c-1.1-.64-1.78-2-1.79-3.93a13.47,13.47,0,0,1,6.11-10.58l16.52,9.6a13.44,13.44,0,0,0-6.11,10.58C401.92,176.77,402.6,178.13,403.7,178.77Z"/><g class="cls-112"><g class="cls-10"><path class="cls-111" d="M403.7,178.77l-16.52-9.6c-1.1-.64-1.78-2-1.79-3.93a8.18,8.18,0,0,1,.06-1l16.52,9.6a8.18,8.18,0,0,0-.06,1c0,1.93.69,3.29,1.79,3.93Z"/><path class="cls-111" d="M402,173.86l-16.52-9.6a11.3,11.3,0,0,1,.54-2.43l16.52,9.6a11.3,11.3,0,0,0-.54,2.43Z"/><path class="cls-113" d="M402.51,171.43,386,161.83a14.78,14.78,0,0,1,1.46-3.06l16.51,9.6a15,15,0,0,0-1.45,3.06Z"/><path class="cls-3" d="M404,168.37l-16.51-9.6a13,13,0,0,1,2.9-3.32l16.52,9.6a13.21,13.21,0,0,0-2.91,3.32Z"/><path class="cls-113" d="M406.87,165.05l-16.52-9.6a9.41,9.41,0,0,1,1.15-.79l16.52,9.6a9.41,9.41,0,0,0-1.15.79Z"/></g></g></g><path class="cls-3" d="M408,164.26c3.38-1.95,6.14-.39,6.15,3.5a13.47,13.47,0,0,1-6.11,10.58c-3.38,1.95-6.14.39-6.15-3.5A13.44,13.44,0,0,1,408,164.26Z"/></g><g class="cls-10"><path class="cls-4" d="M418.13,158.08l64.66,37.58c-2.2-1.28-5.26-1.1-8.63.85l-64.67-37.58C412.86,157,415.92,156.8,418.13,158.08Z"/><g class="cls-114"><g class="cls-10"><path class="cls-4" d="M474.16,196.51l-64.67-37.58a13.81,13.81,0,0,1,2.54-1.16l64.67,37.58a13.81,13.81,0,0,0-2.54,1.16Z"/><path class="cls-4" d="M476.7,195.35,412,157.77a8.78,8.78,0,0,1,3.55-.48l64.67,37.58a8.93,8.93,0,0,0-3.55.48Z"/><path class="cls-4" d="M480.25,194.87l-64.67-37.58a6.25,6.25,0,0,1,2.55.79l64.66,37.58a6.15,6.15,0,0,0-2.54-.79Z"/></g></g><path class="cls-4" d="M465.61,225.23l-64.67-37.58c-2.18-1.26-3.53-4-3.54-7.78,0-7.7,5.39-17.07,12.09-20.94l64.67,37.58c-6.7,3.87-12.11,13.24-12.09,20.94C462.08,221.28,463.43,224,465.61,225.23Z"/><g class="cls-115"><g class="cls-10"><path class="cls-4" d="M465.61,225.23l-64.67-37.58c-2.18-1.26-3.53-4-3.54-7.78a18.27,18.27,0,0,1,.1-1.94l64.67,37.58a18.41,18.41,0,0,0-.1,1.94c0,3.83,1.36,6.52,3.54,7.78Z"/><path class="cls-4" d="M462.17,215.51,397.5,177.93a23.18,23.18,0,0,1,1.09-4.82l64.67,37.59a22.34,22.34,0,0,0-1.09,4.81Z"/><path class="cls-116" d="M463.26,210.7l-64.67-37.59a29.25,29.25,0,0,1,2.87-6l64.67,37.58a29.09,29.09,0,0,0-2.87,6Z"/><path class="cls-116" d="M466.13,204.65l-64.67-37.58a26.33,26.33,0,0,1,5.76-6.59l64.67,37.59a26.28,26.28,0,0,0-5.76,6.58Z"/><path class="cls-4" d="M471.89,198.07l-64.67-37.59a20.28,20.28,0,0,1,2.27-1.55l64.67,37.58a19.12,19.12,0,0,0-2.27,1.56Z"/></g></g><path class="cls-117" d="M474.16,196.51c6.7-3.87,12.15-.76,12.17,6.94s-5.39,17.07-12.09,20.94-12.15.76-12.17-6.94S467.46,200.38,474.16,196.51Z"/></g><path class="cls-118" d="M347.67,166.33c15.58,9,28.24,1.78,28.3-16.12s-12.54-39.69-28.11-48.68-28.24-1.78-28.29,16.12,12.53,39.69,28.1,48.68Z"/><path class="cls-118" d="M347.86,101.53c-.51-.3-1-.57-1.52-.83,4.29,3.29,8.43,6.73,11.18,11.55,5.67,11.33,6.18,32.44-7.21,36.56-9.91,3-17.3-7.67-26.39-11.24,5,11.92,13.75,23,23.75,28.76,15.58,9,28.24,1.78,28.3-16.12S363.43,110.52,347.86,101.53Z"/><path class="cls-119" d="M337.28,121.81c0,6.15-3.07,9.36-6.85,7.17s-6.86-8.94-6.86-15.09,3.07-9.36,6.86-7.17S337.28,115.66,337.28,121.81Z"/><path class="cls-120" d="M435.86,303.6,429,313.19c1.81,1.65,4.39,3.65,6.26,5.27l6.88-8.63a5.13,5.13,0,0,0,.6-5.38A4.45,4.45,0,0,0,435.86,303.6Z"/><path class="cls-121" d="M432.16,308.44h0a3.65,3.65,0,0,0,3.64-3.64v-9a3.65,3.65,0,0,0-3.64-3.64h0a3.65,3.65,0,0,0-3.64,3.64v9A3.65,3.65,0,0,0,432.16,308.44Z"/><path class="cls-121" d="M438.3,300.5c-1.8,2.1-6.2,2.76-7,2.33h0a9.2,9.2,0,0,1-1.56.05c-.81-.16-1.61-.33-2.42-.48a1.94,1.94,0,0,1-.64-.24,3.24,3.24,0,0,1-1-1.36l-.07-.12a1.51,1.51,0,0,1-.1-.3c-.08-.39.32-.51.19-.93a5.57,5.57,0,0,0-.32-.58,1,1,0,0,1,0-.75.88.88,0,0,1-.39-.63,3.72,3.72,0,0,0-.11-.71,3.18,3.18,0,0,0-.81-.95.45.45,0,0,1-.14-.41,2.58,2.58,0,0,1,.62-1c.22-.25.51-.47.47-1,0-.3-.2-.64-.27-1a4.42,4.42,0,0,1,.17-1.39c0-.08.1-1.14.12-1.59,0,0,0-.26,0-.35a12.2,12.2,0,0,1,.54-1.85,4.36,4.36,0,0,1,.23-.42,4.1,4.1,0,0,1,.5-.73,3.59,3.59,0,0,1,.32-.35,6.32,6.32,0,0,1,2.29-1.48,7.46,7.46,0,0,1,1.49-.41h0a10.61,10.61,0,0,1,5.82.63c2.44,1.16,4.79,3.72,5.27,6.12C442.33,294.46,440,298.46,438.3,300.5Z"/><path class="cls-122" d="M438.3,300.5c-1.8,2.1-6.2,2.76-7,2.33h0s-.05,0-.06-.06,0,0,0-.06a.17.17,0,0,1,0-.08.22.22,0,0,1,0-.1,7.68,7.68,0,0,1,.33-.83c.08-.18.16-.38.23-.57a1.63,1.63,0,0,0,.11-.31.78.78,0,0,1,0-.14l0,0A1.92,1.92,0,0,0,433,299a3.13,3.13,0,0,0-.33-2,1.57,1.57,0,0,0-1.32-.82c-.38.05-.62.38-.74.81v0a6.09,6.09,0,0,0-.12,1.51c0,.07-.4,0-.64-.08-.05-.29-.11-.57-.15-.88a8,8,0,0,1,.38-2.79,4.17,4.17,0,0,0,.09-.46c.6-1.36.66-2.8-.86-3.74-1.33-.82-5.77-.11-5.77-.2-.08-3.22,3-4.47,3.12-4.57a6.32,6.32,0,0,1,2.29-1.48,7.46,7.46,0,0,1,1.49-.41h0a10.61,10.61,0,0,1,5.82.63c2.44,1.16,4.79,3.72,5.27,6.12C442.33,294.46,440,298.46,438.3,300.5Z"/><path class="cls-123" d="M401.77,310.33c.07-.55,1.47-.35,1.82-.28l2.3.45a16.87,16.87,0,0,1-2.65-.79c-.2-.07-.59-.21-.54-.49.1-.54,2.37,0,2.82.12l.82.18a1.52,1.52,0,0,1,.46,1.14,4.78,4.78,0,0,1-.33,1.94,7.26,7.26,0,0,1-.7,1.19c-1-.28-1.6-.48-2.63-.77a.83.83,0,0,1-.49-.27c-.43-.54,1.92-.21,2.66-.35a16.13,16.13,0,0,1-2.84-.52c-.22-.06-.66-.25-.51-.58s.56-.28.78-.25l1.42.13a9.83,9.83,0,0,1-2.16-.5A.33.33,0,0,1,401.77,310.33Z"/><path class="cls-123" d="M407.36,314.83l-.69,0a6.38,6.38,0,0,1-.63-2.54,12,12,0,0,1,.39-3.89c1.8.7,3.08,2.63,3.42,2.58l1.16-.29h0c3.12-.91,13.73-3.12,13.73-3.12,2.15.23-.37,3.69-.89,5.78s-8.67,1.53-14.57.93C408.7,314.37,408.33,314.9,407.36,314.83Z"/><path class="cls-121" d="M439.24,310.88a5.12,5.12,0,0,0,.6-5.37,4.44,4.44,0,0,0-6.88-.85l-9.11,13.52A3.45,3.45,0,0,0,424,323h0a3.43,3.43,0,0,0,4.85-.17Z"/><path class="cls-124" d="M443,387.31s.83,3.94-.53,5.21c-.37.35-1.88.34-3.58-.18-1.11-.34-2.27-1.13-3.38-1.38a9.66,9.66,0,0,1-6.29-4.6c-2.59-4.11,2.6-2.51,6-1A27.89,27.89,0,0,0,443,387.31Z"/><path class="cls-125" d="M433.72,388.43l-4-47c-.29-3,1.43-5.76,4.39-6.05s7.86,4.1,8,7.08c.37,7.27-1.31,12.31.42,21.74,1.15,6.26,1.46,25,1.47,25C442.14,390.86,434.91,390.62,433.72,388.43Z"/><path class="cls-124" d="M429.77,392s2.64,3.2,2,5c-.18.51-1.55,1.22-3.34,1.56-1.17.22-2.61.06-3.74.37a10,10,0,0,1-7.93-1.17c-4.33-2.52,1.16-3.55,5-3.77A28.8,28.8,0,0,0,429.77,392Z"/><path class="cls-98" d="M422.89,394.11,422.57,350c-.07-3,1.32-9.62,4-9.68s9.76-1.51,9.9,4.59c.18,7.34-4.16,14.43-3.25,25.09.8,9.43-.95,25.68-.95,25.76C430.94,396.89,423.42,395.54,422.89,394.11Z"/><path class="cls-126" d="M422.34,309c.2-1.77,6.06-4.16,6.07-4.16,1.63.72,3.57,1.19,5.15.49.69-.31,2.2-.89,2.18-1.95,3.86-.46,3.8-.9,5.58.89s1.48,5.46,1.49,7.1c0,2.86-1.08,10.6-1.05,17.33,0,5.61,1.51,10.88,1.48,14.89,0,6.29-18.36,6.86-21.47,3.11-.32-.4.74-9,1.21-15.56.49-6.92-.88-11.11-1.38-15.83C421.25,312.06,422.12,310.85,422.34,309Z"/><path class="cls-127" d="M420.4,317.34h8.27l-3,11.15a4,4,0,1,1-7.72-2.05Z"/><path class="cls-120" d="M424.73,307.12a4.8,4.8,0,0,1,3.58,1.9c2.48,3.67-.62,11.94-.62,11.94a41.45,41.45,0,0,1-5.32-1.55c-1-.33-1.32-.54-2.28-1l1.67-8.58C422.08,308.66,423.27,306.93,424.73,307.12Z"/><path class="cls-128" d="M405.94,313.16l-.09-.06a.18.18,0,0,0,.1.18l.09.06a.21.21,0,0,1-.1-.18Z"/><path class="cls-61" d="M405.74,315.35c.05,0,.1,0,.11.06v.46a.21.21,0,0,1-.1.19l-.39.24c-.06,0-.11,0-.11-.05l0-.46a.25.25,0,0,1,.11-.19Z"/><polygon class="cls-61" points="405.76 307.59 405.77 307.7 404.75 308.34 404.75 308.23 405.76 307.59"/><path class="cls-129" d="M407,307.05a.13.13,0,0,1,.22.11l.25,6.81a.44.44,0,0,1-.2.37l-3.38,2.12c-.12.07-.21,0-.22-.11l-.26-6.81a.48.48,0,0,1,.2-.37Z"/><path class="cls-63" d="M406.83,306.52c.28-.16.51,0,.52.27l.29,7.77a1.1,1.1,0,0,1-.47.88l-3.19,2c-.27.16-.5,0-.51-.27l-.29-7.77a1.08,1.08,0,0,1,.47-.88Zm.49,7.35-.24-6.46c0-.13-.1-.18-.21-.11l-3.21,2a.44.44,0,0,0-.18.35l.24,6.46c0,.12.09.17.2.11l3.21-2a.43.43,0,0,0,.19-.35Zm-1.46,2v-.46c0-.07-.06-.09-.11-.06l-.39.25a.25.25,0,0,0-.11.19l0,.46c0,.07.05.09.11.05l.39-.24a.21.21,0,0,0,.1-.19Zm-1.11-7.64v.11l1-.63v-.12l-1,.64Z"/><path class="cls-62" d="M406.7,306.22a.25.25,0,0,0-.21,0l-.15.06-3.19,2a1,1,0,0,0-.23.23,1.11,1.11,0,0,0-.24.66l.3,7.76a.34.34,0,0,0,.15.32l.5.26a.32.32,0,0,1-.16-.31l-.29-7.77a1.06,1.06,0,0,1,.23-.66.83.83,0,0,1,.24-.22l3.18-2,.15-.06a.3.3,0,0,1,.21,0Z"/><path class="cls-130" d="M407.05,309.3c0-.05,0-.07-.09,0l-1.57,1-1.57,1a.22.22,0,0,0-.08.15l.1,3c0,.06.05.08.09.05l1.57-1,1.57-1a.17.17,0,0,0,.08-.16Z"/><path class="cls-120" d="M407,307.79a.06.06,0,0,0-.09-.05l-1.57,1-1.57,1a.18.18,0,0,0-.08.15l0,1c0,.05,0,.08.09.05l1.57-1,1.57-1a.17.17,0,0,0,.08-.16Z"/><path class="cls-120" d="M407.17,312.72a.06.06,0,0,0-.09-.05l-1.57,1-1.57,1a.23.23,0,0,0-.08.16l0,1c0,.05,0,.08.08.05l1.57-1,1.57-1a.22.22,0,0,0,.09-.16Z"/><path class="cls-123" d="M408.17,308.83l-2.1-1.6s-.32-.29-.38-.05a1.75,1.75,0,0,0,.73,1.52c.22.17.92.81.92.81a9.28,9.28,0,0,0,.7,2.38s.69,1.28,1.14,1a1,1,0,0,0,.4-1.06l-.38-1S408.31,309.09,408.17,308.83Z"/><path class="cls-127" d="M405.39,315a5.22,5.22,0,0,1,1.6-2.3c.23,0,.53-.09.76.07A23.93,23.93,0,0,1,411,315.1c.34.35.42.81.78,1.27,0,0,11.38,7.62,11.38,7.62,1.69,1.87,3.71,2.58,1.84,4.26s-3.53,3.79-5.8,2.28c-3.17-2.1-6.24-7.67-10-11.39-.76-.69-2-.94-2.83-1.5A2.73,2.73,0,0,1,405.39,315Z"/><path class="cls-127" d="M404.86,311.54c-.12-.15-.2-.34-.09-.49.36-.47,2.23,1.14,2.61,1.45.67.53,1.51,1,2.17,1.58a6.07,6.07,0,0,1,1.3.84c.44.41.2.87.47,1.27l.17.08a6.35,6.35,0,0,1-1.68,2.21l-.56.44-.16-.17a13.76,13.76,0,0,1-1.76-.88c-3.29-2.49-1.77-3.06-.71-4.45C406.74,313.25,405,311.62,404.86,311.54Z"/><path class="cls-131" d="M333.73,354.34l-2.11,1.16a38.12,38.12,0,0,1,0,4.14c-.07,1.13-.23,2.26-.2,3.39s-.85,1.5-.19,2.42a8.54,8.54,0,0,0,2.62-3.72,9.65,9.65,0,0,0,1.16-3.41A7.88,7.88,0,0,0,333.73,354.34Z"/><path class="cls-132" d="M334.92,359.1a1.13,1.13,0,0,1-.79,0,23.88,23.88,0,0,1-3.1-.9,4.56,4.56,0,0,0,.69-2.47c0,.25.91.83,1.11,1a8.22,8.22,0,0,0,1.32.76c.31.13,1,.22,1.11.55A1,1,0,0,1,334.92,359.1Z"/><path class="cls-96" d="M331.52,353.92c.09.75.45,3.52.89,4.13s2.27.62,3,.31c.53-.23,2.36-33.22,1.46-36.63a10.26,10.26,0,0,0-1.95-3.94,5.24,5.24,0,0,0-1.59-1.34,12.53,12.53,0,0,0-2.37-.89c.2.06.49.5.59.65a1,1,0,0,1,.24.72,13.93,13.93,0,0,1,.09,1.45c0,.59-.24,1.22-.34,1.8-.2,5.5-.31,11-.36,16.52q0,2.19,0,4.38a8,8,0,0,0,.09,1.45,6.58,6.58,0,0,0-.35,2.77A75.23,75.23,0,0,0,331.52,353.92Z"/><path class="cls-98" d="M331.51,316.21c-.1-.15-.46-.59-.66-.65a12.93,12.93,0,0,1,2.44.89,5,5,0,0,1,1.18.88,13.87,13.87,0,0,1,0,6.31c-1.41,6.75.24,29.51,1,34.5,0,.12-.1.2-.15.22-.69.31-2.52.3-3-.31s-.8-3.38-.89-4.13a75.23,75.23,0,0,1-.64-8.62,6.58,6.58,0,0,1,.35-2.77,8,8,0,0,1-.09-1.45q0-2.19,0-4.38c.05-5.5.16-11,.36-16.52.1-.58.29-1.21.34-1.8a13.93,13.93,0,0,0-.09-1.45A1,1,0,0,0,331.51,316.21Z"/><path class="cls-131" d="M284.87,324.5c.67.39,1.33.81,2,1.21a20.27,20.27,0,0,1-2.24-1.66c-.16-.14-.47-.39-.34-.64.28-.48,2.24.83,2.62,1.07l1,.63c-.59-.56-1.31-1.29-.69-2.07a.29.29,0,0,1,.19-.13c.32,0,.82.85,1,1.07.63.76,1.49,1.29,2.1,2,.09.12.54.88.63,1.07a3.2,3.2,0,0,0,.77.63l-.3.31,1,1a12.3,12.3,0,0,1-1.4,2.29l-1.14-.24a14.55,14.55,0,0,1-1.36-.6c-.5-.27-.91-.48-1.45-.73a10,10,0,0,1-1.49-.85c-.92-.68-1.47-1.09-2.41-1.77a.76.76,0,0,1-.36-.43c-.05-.15,0-.21.16-.2a0,0,0,0,1,0,0,23.51,23.51,0,0,1,2.45.77,17.2,17.2,0,0,1-2.5-1.46c-.19-.14-.55-.46-.28-.73s.61-.07.81,0l1.31.61a10.46,10.46,0,0,1-1.88-1.22.35.35,0,0,1-.1-.41C283.31,323.66,284.56,324.32,284.87,324.5Z"/><path class="cls-131" d="M318.1,312.74v.4l.06,3.57a5,5,0,0,0,.85,1h0l.28,0c2.6-.28,5.82-.84,5.82-2.74,0,0,0-.05.05-.06l-.14-2.71-.31,0-4.67.41Z"/><path class="cls-133" d="M326,314.43c.39.39.22,4,.17,4.53-.12,1.47-.37-.61-1.74,0a7.52,7.52,0,0,1-4.36.24,2.67,2.67,0,0,1-1.75-.86c-.58-.6-.58-3-.07-3.07a20.14,20.14,0,0,1,2.2.06,8.16,8.16,0,0,0,3.56-.6C324.79,314.35,325.1,313.58,326,314.43Z"/><path class="cls-134" d="M331.27,401s.45,3.85-.86,5c-.37.31-1.72.19-3.21-.43-1-.41-2-1.26-2.94-1.58-2.88-.95-3.43-2.44-4.39-4.39-2-4.13,2.53-2.22,5.44-.52A14.9,14.9,0,0,0,331.27,401Z"/><path class="cls-134" d="M328.25,404.23l-.08-.72,2.82-.32v-.07l.66.91-.14,1.55S330,407,329.69,406.9l-.16,0-2.61-1.23.12-.53c-.52-.13-2-2.27-2-2.27Z"/><path class="cls-96" d="M320.76,359.9c0,.32,0,.67,0,1s0,.66,0,1c.07,1.08.2,2.15.31,3.22.06.52.13,1,.18,1.55.26,2.13.5,4.27.74,6.4s.7,4.36,1.06,6.54c.21,1.25.13,2.2.36,3.45.43,2.51.32,14.19.32,18.19,0,.5,3.33,1.68,5.94,2.23,1.6.34,2.93.44,3,0a92.45,92.45,0,0,0,.38-14.24c-.11-.95-.27-4.82-.42-9.46,0-.46,0-.94-.05-1.42-.24-8-.45-17.47-.34-18.46,0-.42.07-.9.08-1.42a16.3,16.3,0,0,0-.08-2.18c-.21-2-.84-4.11-2.25-5a4.14,4.14,0,0,0-3.65-.18,8.67,8.67,0,0,0-2.87,2l-.21.21a9.05,9.05,0,0,0-1.92,2.58A9.44,9.44,0,0,0,320.76,359.9Z"/><path class="cls-134" d="M321.56,405.27s1.41,3.58.43,5c-.28.4-1.61.66-3.2.48-1.05-.11-2.22-.65-3.24-.68-3-.1-3.92-1.39-5.33-3-3-3.41,1.87-2.85,5.1-2A14.69,14.69,0,0,0,321.56,405.27Z"/><path class="cls-134" d="M318.92,409.44l-.07-.73,2.82-.32v-.07l.66.92-.14,1.55s-1.48,1.37-1.81,1.32l-.16,0-2.61-1.23.07-.29-1.58-.42,0,0h0l-.72-.21-.12-.06Z"/><path class="cls-98" d="M311.56,371.53h0c0,.12.14,1.15.33,2.68v0c.53,4.51,1.54,13.36,1.57,16.38.06,5.11-.12,10.17-.09,15.28a1.23,1.23,0,0,0,.2.83,1.13,1.13,0,0,0,.71.29l1,.15,2.32.35a9.1,9.1,0,0,0,2.5.15,3.21,3.21,0,0,0,2.19-1.15,5.32,5.32,0,0,0,.74-3.07c0-3.12.08-6.22-.06-9.34-.12-2.82-.35-5.64-.66-8.45-.09-.77-.19-1.5-.31-2.21a25.35,25.35,0,0,0-1.2-4.55c-.55-1.53-1.4-3.12-2.91-3.13-.63,0-2.71-1.48-4.31-2.69C312.44,372.24,311.56,371.53,311.56,371.53Z"/><path class="cls-98" d="M311,356.82c.23,5.54.26,10.86.59,14.71h0c.09,1,.19,1.9.33,2.68v0a10.64,10.64,0,0,0,.46,1.87c.44,1.16,1,2.2,1.5,3.29a10.15,10.15,0,0,1,.61,1.76,5.16,5.16,0,0,0,1.28,2.71,2.77,2.77,0,0,0,3.19.16c1-.6,2.29,4.14,2.65,3a19.91,19.91,0,0,0,.36-3.22c0-.12,0-.24,0-.35.05-.86.09-1.75.13-2.53s.05-1.24.08-1.66c0-.19,0-.35,0-.46,0-.32.05-.63.09-.95a71.53,71.53,0,0,1,2.17-9.46,40.58,40.58,0,0,0,1.36-7.76,19.72,19.72,0,0,0-.06-3.44C325.7,356.79,311,356.82,311,356.82Z"/><path class="cls-98" d="M310.75,340.5c0,3.44-.48,13-.65,16a1.6,1.6,0,0,0,.75,1.47,11.23,11.23,0,0,0,4.21,1.58c.67.12,1.39.2,2.18.27a37,37,0,0,0,9.16-.39,12.89,12.89,0,0,0,5.92-2.5,1.66,1.66,0,0,0,.63-1.28h0c.08-3.26-1.64-12.27-1.65-15.77,0-6,2.16-16.12,2-19.47-.14-2.82-1.14-6.23-7.26-5.45L318,316.78c-1.67.94-8.68,2.2-9.35,6.27,0,0,.23,1.49.55,3.64.46,3.19,1.1,7.82,1.39,11.14C310.68,338.88,310.74,339.8,310.75,340.5Z"/><path class="cls-131" d="M315.71,310.38a5.46,5.46,0,0,0,2.4,2.76,3.54,3.54,0,0,0,1.27.43,1.07,1.07,0,0,0,.25,0,2.21,2.21,0,0,0,1.24-.2c.75-.38,3.45.1,3.73-.69a3.39,3.39,0,0,0,.13-.55c.3-2.05-1.12-5.13-1.45-7.07a8.19,8.19,0,0,0-2.79-4.66,11,11,0,0,0-4-2.29l-.75.9-.61.74a24.44,24.44,0,0,1,0,5.34A12.14,12.14,0,0,0,315.71,310.38Z"/><path class="cls-131" d="M315.11,305.12a24.44,24.44,0,0,0,0-5.34l.61-.74.24,1.16a18.73,18.73,0,0,0,0,8.49,6.12,6.12,0,0,0,1.35,2.94,2.74,2.74,0,0,0,3,.82l-.16.12a2.18,2.18,0,0,0-.68,1,3.53,3.53,0,0,0-.19,1,4.7,4.7,0,0,0,0,.65,2.59,2.59,0,0,0-.92,0,.5.5,0,0,0-.13,0l0-2.12a5.46,5.46,0,0,1-2.4-2.76A12.14,12.14,0,0,1,315.11,305.12Z"/><path class="cls-135" d="M314.09,299.35c.15,1.08,1.07,1,1.64,1.94s.69,2,1.34,3.08c.24.39.37,1.33,1.48.7,1.62-.94.59,6.14,3.57,7.71a5.5,5.5,0,0,0,2.48-.07,1.66,1.66,0,0,0,.81-.58l0-.05c.84-.9,3.92-3.82,4.59-5.3a10.71,10.71,0,0,0,.69-4.37,7.15,7.15,0,0,0-1.56-3.63,8.11,8.11,0,0,0-2.86-2.63,12,12,0,0,0-6.95-1q-.47.06-.9.15a15.37,15.37,0,0,0-1.55.4l-.65.35c-2.19,1.21-2.16,2.46-2.18,2.55S314.07,299.17,314.09,299.35Z"/><path class="cls-131" d="M318.55,305.06a1.39,1.39,0,1,0,2.14-.6A1.62,1.62,0,0,0,318.55,305.06Z"/><path class="cls-131" d="M319.11,305.5a.64.64,0,1,0,1,.75.73.73,0,0,0,0-1A.74.74,0,0,0,319.11,305.5Z"/><path class="cls-98" d="M318.73,316a8.58,8.58,0,0,0-1.44.44,1.28,1.28,0,0,0-.67.94c1.9.41,5.37-.35,7.28-.67a6.69,6.69,0,0,0,3.48-1.73c.65-1.09-3.33.09-3.74.2-1.6.45-3.3.47-4.91.82Z"/><path class="cls-136" d="M329.58,303.05a9.58,9.58,0,0,1-3.25,7.8,2.38,2.38,0,0,0-.84,1,.64.64,0,0,0,0,.2c.84-.9,3.92-3.82,4.59-5.3a10.71,10.71,0,0,0,.69-4.37,7.15,7.15,0,0,0-1.56-3.63,8.11,8.11,0,0,0-2.86-2.63,12,12,0,0,0-6.95-1,16.55,16.55,0,0,1,5.45,1A8.35,8.35,0,0,1,329.58,303.05Z"/><path class="cls-132" d="M291.84,327s-2.85,2.85-3.86,3.76c.68.53,1.38,1.3,2,1.84a49.31,49.31,0,0,0,3.06-3.89C293.34,328.26,291.84,327,291.84,327Z"/><path class="cls-137" d="M300.42,337.13a2.89,2.89,0,0,0,1,1.19,4.45,4.45,0,0,0,3.34,1.11h.09l11.39-11.58h0c1.2-1.49,1.86-5.44-.72-7.53a5.6,5.6,0,0,0-1.72-.91c-1.55-.52-3,.32-4.07,1.67L302,331l-.43.55-.43.57-.07.08-.55.7,0,0c-.06.18-.11.36-.16.54A5.47,5.47,0,0,0,300.42,337.13Z"/><path class="cls-137" d="M288.58,331.71v0c.47.34,10.12,7.43,14.58,8a2.7,2.7,0,0,0,1.67-.29s-.22-1-.34-1.88-.26-2-.31-2.12l1.26-2-2.55-1.23-1.35-.65-.42-.2-8.5-4.1a23.91,23.91,0,0,0-3.52,3.76C288.79,331.42,288.59,331.69,288.58,331.71Z"/><path class="cls-131" d="M301.06,305.6c-.32-.43.44-.6.67-1.08.49-1,.27-2.15,1.81-3.35.19-.15.42-.32.6-.48a7.67,7.67,0,0,1,1.2-.84c.25-.06.35.36.33.56-.08.87-1.4,1.36-1.41,2,1.63-.55,5.49-4.62,5.78-3.1.14.73-2.61,2.38-3.07,2.87.09-.1.88-.49,1-.57.46-.29,1.33-.8,1.5-.1s-.29.81-.68,1.11c-.08.07-.7.53-.58.48.46-.17,1.24-.76,1.41.1a.8.8,0,0,1-.37.74,6.79,6.79,0,0,1-.62.5c.7-.21,1.21.49.52,1a13.16,13.16,0,0,1-6,2.57s-.09.05-.12,0S303,308,303,308l-.14-.25c-.14-.25-.23-.16-.38-.41C302.16,306.83,301.41,306.07,301.06,305.6Z"/><path class="cls-96" d="M276.38,293.44c.57-.63.31-.94,1.15-.78a7.36,7.36,0,0,1,5.45,4.17c.59,1.33,3,12.45,4.62,12.85,3,.76,13.65-6.14,13.65-6.14.16-.13,3.62,4.07,3.34,4.31,0,0-16.25,14.88-22.62,9-3.89-3.57-3.6-13.61-4.85-17.34A17.14,17.14,0,0,1,276,295,2.19,2.19,0,0,1,276.38,293.44Z"/><path class="cls-98" d="M268.38,385.51a28.52,28.52,0,0,0,1.62,3l.12.23a7.46,7.46,0,0,1,.72,1.67,2.79,2.79,0,0,1-.21,2,2.46,2.46,0,0,1-1.76,1.12,4.12,4.12,0,0,1-2.11-.27,6.53,6.53,0,0,1-3.21-2.7,10.25,10.25,0,0,1-1-2.7,11.85,11.85,0,0,0-.65-2.42Z"/><path class="cls-98" d="M276.23,379.43s-4-1.79-4.44,3.52c-.11,1.38,1.63,1.93,2.41,2a2,2,0,0,1,1.31.39,6.17,6.17,0,0,1,1,1.19c1.84,2.15,5.51,2.17,6.62,1.23,1.59-1.33-.93-3.36-3.4-5.27A25.13,25.13,0,0,1,276.23,379.43Z"/><path class="cls-96" d="M270.58,332.61c-.08,4.34-.23,7.17-.35,17.59,0,0,.71,8.29.71,9.11,0,3.43-1.67,17,1,21.95.6,1.12,5.3.79,6.79.38.5-.13,2.67-33.35,2.28-49.15,0-1.12-.05-1.76-.05-1.76C278.54,330.52,270.62,330.17,270.58,332.61Z"/><path class="cls-98" d="M260.35,363.12c.08,6.11-2,13.78,1.6,23,.65,1.7,6.35.52,6.5-.76.4-3.37,1.32-13.36,1.61-23.13,0-1.11.09-10.85.45-13.65h0c.19-1.53,2.29-7.83,2.59-10,.24-1.71.33-3.5.41-5.43-.07.12-14.9-1.49-15.3-.33C256,339.33,260.33,361.73,260.35,363.12Z"/><path class="cls-138" d="M264.46,301.81l-5.64-.31c-.11-2.35.11-3.66,1-5,1.21-1.8,8.34-4.09,10-4.25,2.95-.26,5.42-1.49,8.39,2.21,1.52,1.89,2.08,5.49,2.25,7.87l-1-.05L278,328.5l-13.36-.74.79-14.23-1.63-.09Z"/><path class="cls-139" d="M269.84,307.46c-.17,1,3.26,8.11,3.26,8.11s1.59-6.3,1.51-7.59c-.23-3.9-2.6-12.17-2.6-12.17l-1.81,0A56.61,56.61,0,0,1,269.84,307.46Z"/><path class="cls-140" d="M271.79,294.54l-1.57.21-1,1.52,1.4,1.42a.86.86,0,0,0,1.37-.2l.81-1.52Z"/><path class="cls-141" d="M268.88,294.46c-1.05-.31-2.29-.9-2.28-1.57,0-1.82-.1-5.51-.1-5.51l6.52,2.5a29.22,29.22,0,0,1,.1,3.9C272.94,294.72,270.44,294.94,268.88,294.46Z"/><path class="cls-98" d="M273,314.86c1.3-2.21,3.67-9.2,1.51-21.63a3.21,3.21,0,0,0-1-1.64c.41.11,1.26.28,2.22.52.55.14,1.14.31,1.69.51a4.8,4.8,0,0,1,2.06,1.2c2,2.53,1.29,8.95,1.27,10.65,0,1.07-.18,2.56-.37,4.32-.16,1.52-.35,3.25-.47,5.07a44.51,44.51,0,0,0,.33,7.51c.27,2.59,1.76,12.86,1.73,13.29,0,0,.47,1.75-4.78,2.35-3.15.36-2.78-2-3.07-2h0C274.19,326,273.81,323.9,273,314.86Z"/><path class="cls-98" d="M258.53,329.19a38.52,38.52,0,0,0,1.71-10c.49-5.1-1.23-9.07-1.89-12.22-.25-1.19-2-7.78-1.3-9.44.51-1.24,2.31-2.11,3.11-2.43a24.92,24.92,0,0,0,5.91-3.38c-2.6,11.07,6.92,23.12,6.92,23.12A124.11,124.11,0,0,1,274.1,335c-.31.06-.13,1.54-1.3,2.2-2.63,1.48-12,2.18-15.08-1.16C257.53,335.85,257.44,332.53,258.53,329.19Z"/><path class="cls-98" d="M260.24,319.21c.49-5.1-1.23-9.07-1.89-12.22-.25-1.19-2-7.78-1.3-9.44a5.27,5.27,0,0,1,2.63-2.22c.16.12.31.22.51.12,2,8-.5,15.83,1.26,24.13,1.76,7.29,7.54,11.05,11.81,16.83a2.15,2.15,0,0,1,.14.26,2,2,0,0,1-.6.54,3.76,3.76,0,0,1-.53.25c-4.23-4-8.53-7.78-12.87-11.49A52.66,52.66,0,0,0,260.24,319.21Z"/><path class="cls-120" d="M272.13,294.08a1.81,1.81,0,0,0,.65-1.08,8.57,8.57,0,0,0,0-1.54l.6.12.51.61.56,0-.09,1.5.55,0a23.41,23.41,0,0,1-1.51,3.4c-.13-.08-2.26-2.34-2.55-2.45A4.65,4.65,0,0,0,272.13,294.08Z"/><path class="cls-142" d="M274.62,292.12c1.05.89,4.07,5.82,4.07,5.82L277,300.51l1.55,3.85L273,314.89s3.64-12,1.29-21a6.43,6.43,0,0,0-1.78-3A22.21,22.21,0,0,1,274.62,292.12Z"/><path class="cls-137" d="M274.62,292.12c1.05.89,3.66,5.23,3.66,5.23L277,300l1.34,3.93L273,314.89s3.64-12,1.29-21a6.43,6.43,0,0,0-1.78-3A22.21,22.21,0,0,1,274.62,292.12Z"/><path class="cls-120" d="M265.62,293.05c0-.07.42-1.23.45-1.31a3.18,3.18,0,0,1,.53-.6,4.16,4.16,0,0,0,.39,1.14,4.63,4.63,0,0,0,.79.92,6.71,6.71,0,0,0,1.46,1,3.82,3.82,0,0,0,1.65.46s-2.41,2.88-2.43,2.83C268.28,297.19,265.09,294.27,265.62,293.05Z"/><path class="cls-142" d="M265.56,301.76l-2.79-3.58s3-6.14,3.3-6.44a4.44,4.44,0,0,0,.16,2.38c1.33,6.48,6.71,20.31,6.76,20.77-6.34-7.6-7.73-10.62-7.73-10.62Z"/><path class="cls-137" d="M266.12,301.2,263,297.35s2.72-5.31,3-5.61a4.44,4.44,0,0,0,.16,2.38c1.33,6.48,6.71,20.31,6.76,20.77-6.34-7.6-7.29-11.23-7.29-11.23Z"/><path class="cls-131" d="M274.87,292.31a4.1,4.1,0,0,1-3.11.72,8.21,8.21,0,0,1-4.14-1.77,1.67,1.67,0,0,1-.29-.3.05.05,0,0,0,0,0,19.42,19.42,0,0,1-3-5.61c0-.24-.09-.49-.14-.72-.55-4.05,3.11-5,5.9-7.19a4.75,4.75,0,0,1,4.78-1c1.19.55,2.07,1.89,2.25,4.09C277.5,285.31,277.44,290.27,274.87,292.31Z"/><path class="cls-143" d="M263.81,277.37c2-2.82,4.07-3.28,8.5-3.05a7.7,7.7,0,0,1,1.59.61c4.24,2.2,3.64,5.37,3.19,5.37-.18,0-.67-2.53-2.14-2.45-.55,0-1.24.87-2.1,1.73-1.23,1.21-3.38-1.8-5.33-.46-2.39,1.64,2.82,7.36,1.75,8.47s-1.31,0-1.57.45a3.56,3.56,0,0,0-.32,3c-1-.64-4.55-4.18-5-7.52C261.94,280,261.85,280.19,263.81,277.37Z"/><path class="cls-143" d="M265.21,276.6l.14-.17a13.49,13.49,0,0,1,2.17,2h-1.3v10.67h1.06a3.75,3.75,0,0,0,.1,2c-1-.64-4.55-4.18-5-7.52C261.59,277.2,265.21,276.6,265.21,276.6Z"/><path class="cls-131" d="M268.91,289.84c-.56.47-1.63.13-2.4-.78s-.94-2-.39-2.49,1.63-.13,2.4.78S269.47,289.37,268.91,289.84Z"/><path class="cls-144" d="M268.17,289c-.26.22-.76.06-1.12-.36s-.45-.95-.19-1.17.77-.06,1.13.36S268.43,288.75,268.17,289Z"/><path class="cls-131" d="M275.67,335.54c-.53-.61-1.08-1.2-1.62-1.82a20.68,20.68,0,0,0,2.12,2c.17.13.49.4.71.22.44-.38-1.27-2.11-1.59-2.46s-.56-.59-.83-.89c.69.49,1.57,1.08,2.23.3a.26.26,0,0,0,.1-.21c-.1-.33-1-.68-1.28-.81-.89-.5-1.6-1.27-2.49-1.74-.14-.07-1-.38-1.21-.44A3.1,3.1,0,0,1,271,329l-.25.37-1.23-.86a12.63,12.63,0,0,0-2.05,1.87l.46,1.1a14.67,14.67,0,0,0,.87,1.26c.38.47.67.84,1,1.34a10.52,10.52,0,0,0,1.15,1.35c.88.8,1.4,1.28,2.27,2.1a.88.88,0,0,0,.51.29c.16,0,.21-.05.17-.21s0,0,0,0c-.1-.53-1-1.76-1.26-2.34a18.48,18.48,0,0,0,2,2.26c.19.16.58.46.8.13s-.05-.62-.19-.81c-.29-.41-.58-.81-.88-1.2a11,11,0,0,0,1.6,1.66.35.35,0,0,0,.44,0C276.83,337,275.92,335.82,275.67,335.54Z"/><path class="cls-137" d="M259.21,295.56c.29,0,1.39.52,1.39,4.74,0,7.14-.58,9.35.13,14.59,2.88,4.64,6.85,7.28,11.1,13.94.09,1.75-2.84,3.33-3.68,3.81,0,0-13-13.09-13.16-13.8-2.9-5.62-1.82-17-1.14-19.16A6.4,6.4,0,0,1,259.21,295.56Z"/><path class="cls-145" d="M253.85,299.68a6.4,6.4,0,0,1,5.36-4.12.43.43,0,0,1,.31.11c-7.81,4.22-6.87,16.38-3.35,22.4,3,5.16,7.55,8.48,12.51,14.27l-.53.3s-13-13.09-13.16-13.8C252.09,313.22,253.17,301.84,253.85,299.68Z"/><path class="cls-146" d="M102.94,164.8c.78-.31,3.66.42,4.65,2.73,2.45,5.69,3,7.7,4.93,11.27l12.82,4.42H124.1v3.86l-10.87-1.37c0,.26,0,.49,0,.71-2.86.06-5.66-2.12-7.29-4.3a19.76,19.76,0,0,1-2.44-4.72c-1.41-4.38-2.52-8.66-2.73-9.76C100.39,165.63,100.09,165.92,102.94,164.8Z"/><path class="cls-147" d="M86.79,256.31a2.07,2.07,0,0,0,0,1.21,9.3,9.3,0,0,1-.55,2.89,10.42,10.42,0,0,0-.39,3,6.9,6.9,0,0,0,1.73,4.14,4.44,4.44,0,0,0,1.87,1.29,2.65,2.65,0,0,0,2.22-.21,3,3,0,0,0,1.18-1.82A8.42,8.42,0,0,0,93,264.9a2.62,2.62,0,0,1,0-.28,24.29,24.29,0,0,1,0-4.09c.14-1,.5-1.9.59-2.87a2.38,2.38,0,0,0-.15-1.16,1.56,1.56,0,0,0-.16-.28,4.06,4.06,0,0,0-.43-.5,6.52,6.52,0,0,0-1.06-1c-.15-.11-2-1-2-1.08a3,3,0,0,1-1.66,1.85,6.88,6.88,0,0,0-1,.41A1,1,0,0,0,86.79,256.31Z"/><path class="cls-147" d="M104.56,250.05s-4.3-1.9-4.73,3.77c-.11,1.48,1.74,2.06,2.57,2.15a2.13,2.13,0,0,1,1.41.41,6.46,6.46,0,0,1,1,1.27c2,2.29,5.89,2.3,7.08,1.3,1.7-1.43-1-3.59-3.65-5.63A26.63,26.63,0,0,1,104.56,250.05Z"/><path class="cls-148" d="M108.45,214.55c0-.37,0-.73,0-1.08-.1-2-.2-3.79-.29-5.28H96.89c0,.71,0,1.51,0,2.38v.49c0,.81,0,1.68,0,2.6,0,1.52,0,3.19.08,4.93s.08,3.55.13,5.39c0,.28,0,.56,0,.85h0c.07,2.25.15,4.55.26,6.8.46,9.68.09,21.45,1.78,22.52,1.53,1,7.14.33,8.49-.43.23-.13.37-1.28.44-3,.22-5.27-.15-12-.27-17.09C107.79,229.44,108.61,218.1,108.45,214.55Z"/><path class="cls-149" d="M108.15,208.91c-.28.7-10.68,5.79-10.7,6.25-.1,2.36-.58,12.7-.69,14.92h0c0,.23,0,.42,0,.59-.08,1.25-.67,6.92-.85,8.35-1.13,8.85-1.32,14.28-1.74,21.32l-.19.07-.49.14-.58.12a34.23,34.23,0,0,1-4.79.43c-.53,0-1,0-1.48,0h-.33c-.36,0-.66,0-.89-.08,0,0,0-.69,0-1.62a37.76,37.76,0,0,0-.24-5.64,12,12,0,0,1-.24-1.19h0a38.76,38.76,0,0,1-.47-4.05,37.77,37.77,0,0,1,1.3-13c0-.21.1-.41.16-.6,0-.41-.07-.84-.1-1.3-.46-6-1.41-24.08-1-28.84L86,206.33l.12.26h.28l2.42.06v0l2,0,4.2.1,0,0Z"/><path class="cls-108" d="M108.15,208.91s-23.17,3.8-23.34,1.16c0-.54-.06-1-.07-1.56,0-.13,0-.27,0-.41a84.22,84.22,0,0,1,.58-10.6c.1-1.1.19-2.24.26-3.49q0-.82.09-1.71a28.91,28.91,0,0,0-.74-8c-.15-.67-.32-1.31-.49-1.93,0-.06,0-.12,0-.18-.16-.6-.33-1.18-.48-1.76a.5.5,0,0,0,0-.13l-.18-.74-.12-.48a24.33,24.33,0,0,1-.45-2.4c0-.1,0-.2,0-.3a26.12,26.12,0,0,1-.32-3.89,6.26,6.26,0,0,1,.79-3.11,3.93,3.93,0,0,1,1.62-1l1.33-.6c.86-.39,1.88-.84,2.79-1.22l.16-.07.65-.26c.39-.15.73-.28,1-.35l.09,0c.28-.08,3.2-.9,3.82-1q.58-.09,1.14-.21c.67-.14,1.32-.28,2-.36l.32,0h0l.31,0h.74l.32,0h0c.32,0,.91.08,1.6.2h0a6.39,6.39,0,0,1,3.53,1.49c1.09,1.21,1.55,3.43,1.75,5.58h0c.07.78.11,1.54.12,2.25,0,1.23,0,2.28,0,2.89v.15c0,.19,0,.39,0,.61,0,1-.06,2.35-.14,3.86s-.17,3.36-.21,5.25a63.49,63.49,0,0,0-.05,7.31c0,.14,0,.28.05.42.07.57.21,1.59.38,2.84C107.51,201.39,108.15,208.56,108.15,208.91Z"/><path class="cls-149" d="M105,180.91c-.37,1.64-2.76.18-3.91-.35.35-10.32-1.8-14.67-3-16.29l.32,0h0l.31,0h.74l.32,0h0c.32,0,.91.08,1.6.2C104,169.24,105.33,179.66,105,180.91Z"/><path class="cls-149" d="M108.15,208.91s-23.17,3.8-23.34,1.16c0-.54-.06-1-.07-1.56,0-.13,0-.27,0-.41a84.22,84.22,0,0,1,.58-10.6c.07-.79.14-1.62.2-2.48.13,0,.26,0,.4-.06a10.44,10.44,0,0,0,1.73-.25,4.76,4.76,0,0,0,2.6-3.23c.13-.51.23-1,.31-1.52.74-4.51,0-9.06,1.67-13.27a2.87,2.87,0,0,1,2.29-1.57c3.13-.72,7.5-2.18,9.27.84,1.88,3.23.94,7.18,1.88,10.93a4.71,4.71,0,0,0,.8,1.6l0,.69a32.82,32.82,0,0,0,0,4.65c0,.14,0,.28.05.42a4.16,4.16,0,0,0,.06.44c.07.6.19,1.43.32,2.4C107.51,201.39,108.15,208.56,108.15,208.91Z"/><path class="cls-149" d="M93.93,181.62c-.22,1.67-1.78,3.64-3,3.22-.6-9.69-3-14.8-4.46-17.08.86-.39,1.88-.84,2.79-1.22C92.29,170.73,94.1,180.32,93.93,181.62Z"/><path class="cls-150" d="M105.08,192.75c-1.13-1.33-.92-4.08-.52-5a21,21,0,0,1,3.34-.84c2-.35,4.4-.45,5.65.44,2.67,1.89,2,3.1,1,4.12C113.08,193.05,107,191.11,105.08,192.75Z"/><path class="cls-151" d="M108.1,192.33l-15.93,4.88a3.9,3.9,0,0,1-1.07.08,2.36,2.36,0,0,1-1.43-.36c-1.68-1-3-3.47-3.57-4.53-2.38-4.54-3.87-17.81-4-19.85s-.06-3.61,2.91-4.36a1.93,1.93,0,0,1,1.21.18h0A5,5,0,0,1,88.68,171,54.42,54.42,0,0,1,93,186.42c.11.84.14,2.38,2.11,2.05,4.93-.83,11.45-2.44,11.45-2.44l.44,1.78Z"/><path class="cls-152" d="M107.72,188.76l17-10.06a.58.58,0,0,1,.6-.06l.85.48a.58.58,0,0,0-.6.06l-.89.53.07,0h0l.51.29.34.19a.34.34,0,0,1,.15.32l.15,10.42a1.13,1.13,0,0,1-.5.88l-.4-.23h0l.4.23-16.31,9.65a.37.37,0,0,1-.36,0l-.83-.47v1a.61.61,0,0,0,.26.54l-.43-.24-.42-.24a.6.6,0,0,1-.25-.54l-.16-11.38A1.84,1.84,0,0,1,107.72,188.76Z"/><g class="cls-10"><g class="cls-10"><g class="cls-153"><path class="cls-96" d="M110,188v.17a.17.17,0,0,0,.1-.13v-.17a.17.17,0,0,1-.1.13Z"/></g></g><polygon class="cls-154" points="109.47 188.37 109.47 188.54 110.05 188.21 110.04 188.04 109.47 188.37"/><g class="cls-10"><g class="cls-155"><g class="cls-10"><path class="cls-96" d="M108.93,188.24v.17a.11.11,0,0,0,0,.08v-.17a.11.11,0,0,1,0-.08Z"/><path class="cls-156" d="M109,188.32v.17l.06,0a.38.38,0,0,0,.16.05v-.17a.38.38,0,0,1-.16,0l-.06-.05Z"/><path class="cls-96" d="M109.18,188.42v.17a.56.56,0,0,0,.29-.05v-.17a.56.56,0,0,1-.29,0Z"/></g></g></g><path class="cls-157" d="M109,188.11a.14.14,0,0,0,0,.26.51.51,0,0,0,.45,0L110,188c.13-.07.13-.19,0-.26a.51.51,0,0,0-.45,0Z"/></g><path class="cls-158" d="M108.57,189.24l17-10.06c.46-.27.84-.06.85.47l.16,11.38a1.88,1.88,0,0,1-.83,1.46l-17,10.06c-.47.27-.85.06-.86-.47l-.15-11.37A1.84,1.84,0,0,1,108.57,189.24Z"/><path class="cls-159" d="M109.1,191a1.64,1.64,0,0,1,.74-1.29c.41-.24.75-.05.75.43a1.67,1.67,0,0,1-.75,1.29C109.43,191.7,109.1,191.5,109.1,191Z"/><polygon class="cls-159" points="107.59 193.63 107.13 193.36 107.13 191.88 107.59 192.15 107.59 193.63"/><polygon class="cls-159" points="107.59 195.61 107.13 195.35 107.13 193.87 107.59 194.13 107.59 195.61"/><path class="cls-159" d="M110.71,187.21a.55.55,0,0,1,.47,0c.13.08.13.2,0,.27a.49.49,0,0,1-.47,0C110.58,187.41,110.58,187.29,110.71,187.21Z"/><path class="cls-159" d="M111.81,186.56a.49.49,0,0,1,.47,0c.13.07.13.19,0,.27a.55.55,0,0,1-.47,0C111.68,186.75,111.68,186.63,111.81,186.56Z"/><polygon class="cls-159" points="112.87 185.94 113.29 186.18 114.2 185.65 113.78 185.41 112.87 185.94"/><path class="cls-150" d="M124,185.93a5.5,5.5,0,0,0,.47-.41c-.24,0-.52-.05-.61-.27a.45.45,0,0,1,.14-.46,1.45,1.45,0,0,1,.45-.22c.7-.23,1.52-.65,2.21-.87.75.18,1.24,2.06,1.31,2.5a2.48,2.48,0,0,1-.38,2.06l-.81.15c-.22,0-.42.06-.62.08s-.2-.23-.22-.23a.89.89,0,0,1,0-.28.21.21,0,0,0-.18-.27c-.33-.05-1,0-1-.61a.15.15,0,0,0-.14-.15C124.07,186.89,124,186.4,124,185.93Z"/><path class="cls-141" d="M93.61,167.84c-1.14-.34-2.51-1-2.5-1.72,0-2-.1-6-.1-6l7.14,2.75a32.68,32.68,0,0,1,.11,4.27C98.06,168.13,95.32,168.36,93.61,167.84Z"/><path class="cls-131" d="M100.18,165.48a4.47,4.47,0,0,1-3.42.79,8.85,8.85,0,0,1-4.52-1.93,1.75,1.75,0,0,1-.32-.34l0,0a21,21,0,0,1-3.25-6.14c-.05-.27-.1-.54-.16-.79-.6-4.45,3.41-5.52,6.47-7.88,1.73-1.35,3.7-1.78,5.23-1.08,1.31.61,2.27,2.07,2.48,4.48C103.06,157.81,103,163.25,100.18,165.48Z"/><path class="cls-160" d="M102.61,152.32c-.28,0,0-2.06-3.74-.75-2.63.92-3.8-.27-4.52.72a6.48,6.48,0,0,0-.58,4.17c.11.72.68,4.81-.64,3.77-.83-.66-.53.08-.82.58a3.93,3.93,0,0,0-.34,3.28c-1-.71-5-4.59-5.46-8.25-.89-6.91,3.08-7.58,3.08-7.58S93.48,143,99,145.88C103.69,148.29,103.1,152.32,102.61,152.32Z"/><path class="cls-161" d="M89.59,148.26l.15-.18a12.72,12.72,0,0,1,4.24,5,7.82,7.82,0,0,0-.21,3.41c.11.72.68,4.81-.64,3.77-.83-.66-.53.08-.82.58a3.93,3.93,0,0,0-.34,3.28c-1-.71-5-4.59-5.46-8.25C85.62,148.93,89.59,148.26,89.59,148.26Z"/><path class="cls-131" d="M93.65,162.78c-.61.52-1.79.14-2.64-.85s-1-2.21-.42-2.73,1.79-.14,2.63.85S94.25,162.26,93.65,162.78Z"/><path class="cls-144" d="M92.83,161.83c-.28.24-.83.06-1.23-.4s-.48-1-.2-1.28.84-.07,1.24.4S93.12,161.58,92.83,161.83Z"/></g></g></svg>